<svg width="263" height="91" viewBox="0 0 263 91" fill="none" xmlns="http://www.w3.org/2000/svg">
<path d="M17.3567 34.82C16.8567 34.01 15.9567 33.23 15.3567 32.25C14.6858 31.0749 14.0815 29.863 13.5467 28.62C12.6097 26.1534 11.4968 23.7572 10.2167 21.45C9.13666 19.79 6.82666 17.96 7.21666 20.18C7.59666 22.7 11.7067 27.75 13.2167 29.77C14.7567 31.97 17.4067 35.07 18.4367 37.59C16.0767 36.96 13.1767 34.14 10.7067 32.23C7.31666 29.54 4.43666 23.59 1.08666 20.74C-4.41334 21 12.6467 36.65 14.7667 36.3C19.0367 40 22.6067 41.51 26.3667 45C24.1067 46.78 19.1867 44 20.6267 50.07C22.7367 52.16 23.7667 52.07 23.9667 49.82C26.2367 42.57 54.3167 62.91 64.0167 64.89C59.5667 70.06 47.6667 61.7 47.8867 67.22C48.0367 69.65 51.2067 69.96 52.5667 70.01C69.2467 64.52 73.3967 67.25 93.7567 74.36C97.1367 75.12 87.1067 79.42 87.5967 84.19C90.8167 86.38 94.7067 85.7 94.2267 81.36C92.3267 75.16 101.917 74.89 106.617 75.11C119.127 76.47 132.557 75.11 145.617 73.94C142.617 79.05 128.917 83.86 130.407 88.77C130.967 90.17 132.217 90.77 133.977 90.04C140.847 87.3 141.037 77.76 149.427 75.27C170.647 67.74 192.897 59.46 214.827 44.05C206.957 52.08 195.957 60 193.597 69.71C198.367 70.62 206.697 60.82 208.597 54.88C208.922 53.676 209.417 52.5244 210.067 51.46C210.908 50.1891 211.851 48.9885 212.887 47.87C213.567 47.21 214.277 46.58 214.977 45.95C216.447 44.59 217.977 43.23 219.437 41.87C222.727 38.87 226.077 35.87 229.437 32.76C237.107 25.68 244.807 18.34 252.437 10.52C255.777 7.1 259.137 3.6 262.437 0C261.01 0.993333 259.573 1.97 258.127 2.93C255.797 5.46 253.447 7.83 251.127 10.05C251.387 9.91 251.627 9.74 251.887 9.61C232.737 31.1 212.817 44.33 193.507 55.16C186.837 58.79 182.147 57.57 178.047 55.35C174.517 53.44 167.937 47.58 162.127 55.15C165.127 61.93 178.607 56.8 184.507 59.69C179.545 62.5221 174.164 64.5474 168.567 65.69C163.327 67.79 158.123 69.66 152.957 71.3C152.704 71.4296 152.414 71.4656 152.138 71.4015C151.861 71.3374 151.616 71.1775 151.447 70.95C137.677 74.95 119.637 76.86 117.927 65.73C116.087 57.58 105.597 61.73 111.377 68.33C114.377 70.33 117.967 71.56 120.627 73.82C113.527 75.9 76.1467 73.91 79.1967 64.3C79.6567 63.03 77.8067 59.05 76.4367 58.38C74.2867 57.38 73.1567 60.14 73.4367 61.8C73.5867 62.8 75.6867 66.65 76.6767 66.94C65.3167 64 46.9567 60.75 43.2367 45.76C42.517 44.1934 41.6427 42.7027 40.6267 41.31C38.7367 39.67 36.6267 40.24 38.2067 43.31C40.4567 48.38 44.0967 52.14 47.7067 55.97C41.8467 54.26 35.8367 49.48 30.2667 46.38C25.6167 43.39 21.1367 40.93 17.3567 34.82ZM9.35666 21.76C9.85666 22.61 10.3567 23.47 10.9467 24.46L10.5967 24.81C10.0067 23.62 8.56666 22.13 9.39666 21.76H9.35666ZM0.836661 22.2L1.83666 22.08C3.41666 24.61 5.42666 26.63 6.62666 29.24C4.16892 27.3823 2.185 24.9701 0.836661 22.2ZM21.9567 50.4C21.6567 49.86 21.3567 49.33 20.6967 48.19C21.5267 47.84 22.2067 47.54 22.8867 47.19C23.7667 49 22.1667 49.34 21.9567 50.4ZM54.6667 67.92C53.2567 68.34 51.4167 68.92 49.7767 67.36C50.5267 66.22 51.7767 66.86 53.3167 67.01C53.6567 67.24 54.1567 67.59 54.6667 67.92ZM93.3067 82.26C91.7267 83.41 90.3067 85.21 89.1667 82.74C89.934 81.7747 90.7624 80.8595 91.6467 80L93.3067 82.26ZM135.187 87.43C134.767 87.89 133.497 87.71 132.617 87.81C133.317 84.81 136.407 83.51 138.947 81.09C139.607 83.08 136.427 85.53 135.187 87.43ZM207.087 53.88C206.922 54.2539 206.782 54.638 206.667 55.03C203.857 59.28 200.767 65.61 196.667 67.03C197.667 63.38 201.667 58.67 207.607 52.84C207.404 53.1711 207.23 53.5191 207.087 53.88ZM166.957 52.46C168.277 53.92 174.777 54.33 173.197 56.91C171.557 55.89 161.247 57 166.957 52.46ZM111.587 65.27C111.867 63.37 114.947 63.01 115.767 64.33C116.197 66.33 116.767 67.82 115.707 70.1C114.249 68.5637 112.874 66.9515 111.587 65.27ZM75.7867 59.66C76.5467 61.13 77.5567 62.46 76.4667 63.81C75.6567 62.6 73.5667 59.92 75.7867 59.66ZM38.9567 42.14C40.9567 42.4 41.5067 45.46 42.5667 47.07C42.3767 47.63 42.2867 47.88 42.2067 48.13C40.8767 46.44 39.2767 44.12 38.9567 42.14Z" fill="white"/>
</svg>
