<svg width="130" height="130" viewBox="0 0 130 130" fill="none" xmlns="http://www.w3.org/2000/svg">
<g clip-path="url(#clip0_276_13751)">
<path d="M77.4532 3.80909C77.4782 3.81161 77.487 3.85043 77.4794 3.92558C77.4719 4.00072 77.4556 4.03703 77.4305 4.03452C76.9922 3.99054 76.5106 4.12564 75.9857 4.43982C75.4746 4.74274 75.0004 5.18218 74.5632 5.75815L71.7628 9.27213L71.3367 13.5177C71.2978 13.9059 71.3071 14.1915 71.3646 14.3744C71.4222 14.5572 71.548 14.69 71.7421 14.7727C71.9487 14.8567 72.2837 14.922 72.7471 14.9685C72.7847 14.9722 72.7997 15.0117 72.7921 15.0868C72.7846 15.162 72.762 15.1977 72.7245 15.1939C72.3362 15.1549 72.0363 15.1185 71.8246 15.0846L70.4927 14.932L69.1946 14.8207C68.9554 14.8094 68.6355 14.7836 68.2347 14.7434C68.2096 14.7409 68.2009 14.7021 68.2084 14.6269C68.216 14.5518 68.2323 14.5155 68.2573 14.518C68.7207 14.5645 69.062 14.5671 69.2812 14.5258C69.5004 14.4846 69.6563 14.38 69.7491 14.2123C69.8556 14.0332 69.9277 13.7558 69.9654 13.3801L70.3613 9.43511L67.7704 4.62121C67.4525 4.00742 67.1483 3.5721 66.8578 3.31526C66.5674 3.05842 66.2343 2.91115 65.8586 2.87345C65.821 2.86968 65.806 2.83022 65.8135 2.75508C65.8211 2.67994 65.8436 2.64425 65.8812 2.64802L66.5368 2.73278C66.8349 2.78798 67.0528 2.8225 67.1905 2.83632C67.6163 2.87904 68.1686 2.92181 68.8474 2.96461L69.9013 3.05138C69.9264 3.05389 69.9351 3.09272 69.9276 3.16786C69.92 3.24301 69.9037 3.27932 69.8787 3.27681C69.265 3.21524 68.9437 3.32847 68.9148 3.61652C68.9023 3.74176 68.9548 3.91148 69.0725 4.12568L71.5826 8.79866L74.1048 5.59831C74.4406 5.15131 74.6236 4.77753 74.6538 4.47696C74.7015 4.00105 74.3873 3.72917 73.711 3.66132C73.6859 3.65881 73.6772 3.61998 73.6847 3.54484C73.6923 3.46969 73.7086 3.43338 73.7336 3.43589L74.6334 3.54515C75.1319 3.62046 75.5815 3.67822 75.9822 3.71843C76.1951 3.73979 76.4531 3.75303 76.7562 3.75814L77.4532 3.80909Z" fill="#725671"/>
<path d="M80.9175 15.9879C80.9541 15.9972 80.9784 16.0294 80.9903 16.0844C81.0175 16.1304 81.0143 16.1685 80.9805 16.1989C79.9764 16.7217 78.9805 16.8568 77.9927 16.6043C77.2733 16.4204 76.698 16.1045 76.2669 15.6565C75.8389 15.1963 75.5593 14.6637 75.4282 14.0585C75.3002 13.4412 75.3157 12.8216 75.4747 12.1997C75.6587 11.4802 75.9977 10.8653 76.4919 10.3551C76.9984 9.84796 77.594 9.50005 78.2788 9.31135C78.9667 9.11045 79.6705 9.10196 80.3899 9.28587C81.0972 9.46667 81.587 9.78674 81.8593 10.2461C82.1469 10.6964 82.205 11.2568 82.0335 11.9275C81.9494 12.2568 81.8341 12.4027 81.6878 12.3653L77.165 11.2287C77.072 11.4907 77.0068 11.6949 76.9694 11.8412C76.6982 12.9022 76.73 13.8197 77.0647 14.5938C77.3994 15.3679 78.0241 15.8718 78.9387 16.1056C79.3045 16.1992 79.6203 16.2344 79.886 16.2114C80.1671 16.1793 80.5048 16.1032 80.8992 15.9832L80.9175 15.9879ZM79.6745 9.49273C79.1623 9.36181 78.6964 9.43108 78.2767 9.70056C77.8602 9.95784 77.5236 10.385 77.2671 10.9819L80.6149 11.7598C80.7739 11.1379 80.7659 10.6356 80.5908 10.2531C80.4311 9.86153 80.1257 9.60807 79.6745 9.49273Z" fill="#725671"/>
<path d="M91.8998 13.7816C91.923 13.7917 91.9194 13.8315 91.8892 13.9009C91.859 13.9704 91.8323 14.0001 91.8092 13.9901C91.5081 13.8592 91.2022 13.8501 90.8916 13.9629C90.5976 14.0691 90.2489 14.3168 89.8456 14.706L85.4313 18.9208C85.383 18.9686 85.3067 18.9699 85.2025 18.9246C85.1098 18.8843 85.0587 18.8276 85.0492 18.7546L84.8635 12.4368C84.8534 11.8266 84.8001 11.411 84.7034 11.19C84.6118 10.9574 84.4502 10.7907 84.2186 10.69C84.1838 10.6749 84.1816 10.6326 84.2118 10.5632C84.242 10.4937 84.2745 10.4665 84.3092 10.4816C84.5292 10.5772 84.7004 10.6586 84.8227 10.7255L85.5621 11.0676L86.7508 11.5637C86.9295 11.6277 87.1694 11.7251 87.4705 11.856C87.5052 11.8711 87.5075 11.9134 87.4773 11.9828C87.4471 12.0523 87.4146 12.0795 87.3799 12.0644C86.6967 11.7674 86.2972 11.752 86.1814 12.0184C86.1411 12.111 86.124 12.2137 86.13 12.3265L86.3089 17.5675L89.5111 14.4779C89.6878 14.2932 89.8038 14.1371 89.8592 14.0097C90.0707 13.5234 89.7306 13.0864 88.8389 12.6987C88.8158 12.6887 88.8193 12.6489 88.8495 12.5794C88.8797 12.5099 88.9064 12.4802 88.9296 12.4903C89.2422 12.6262 89.4771 12.7352 89.6342 12.8173L90.6688 13.2877L91.3364 13.5573C91.4573 13.5961 91.645 13.6709 91.8998 13.7816Z" fill="#725671"/>
<path d="M93.0295 22.6171C93.5936 22.9947 94.0384 23.3254 94.3639 23.6094C94.6962 23.8827 94.9303 24.2275 95.0663 24.6436C95.206 25.077 95.1127 25.5475 94.7864 26.055C94.4126 26.6365 93.8809 27.0568 93.1914 27.3158C92.5019 27.5748 91.7553 27.6553 90.9518 27.5571C90.1588 27.4657 89.424 27.2026 88.7473 26.7676C88.0283 26.3054 87.5608 25.7659 87.3449 25.1489C87.1326 24.5493 87.1897 23.9957 87.5159 23.4883C88.0121 22.7165 89.0407 22.3019 90.6018 22.2444C90.2619 21.9363 90.0407 21.6297 89.938 21.3246C89.8353 21.0196 89.8893 20.7031 90.1 20.3754C90.3039 20.0582 90.5773 19.8305 90.9202 19.6923C91.2804 19.5503 91.7513 19.4571 92.3328 19.4125C92.0783 18.9949 91.9473 18.5595 91.9397 18.1064C91.939 17.6427 92.061 17.2206 92.3056 16.84C92.6931 16.2374 93.2523 15.902 93.9834 15.8341C94.725 15.7729 95.4659 15.9802 96.206 16.4559C96.8721 16.8841 97.3165 17.4014 97.5393 18.0078C97.9441 18.0289 98.3059 18.0822 98.6246 18.1675C98.9501 18.2423 99.2661 18.3782 99.5728 18.5753C99.6045 18.5957 99.5984 18.6516 99.5546 18.7429C99.5282 18.8305 99.4844 18.9219 99.4232 19.0171C99.3417 19.1439 99.2408 19.2659 99.1207 19.383C99.0007 19.5 98.9263 19.5344 98.8976 19.486C98.6612 19.11 98.3527 18.7996 97.9721 18.5549C97.824 18.4598 97.7096 18.3937 97.6288 18.3567C97.733 18.9616 97.622 19.5178 97.2957 20.0253C97.051 20.4059 96.7157 20.6834 96.2898 20.8579C95.8638 21.0323 95.3941 21.089 94.8805 21.0278C94.3775 20.9734 93.8829 20.7899 93.3965 20.4773C93.0688 20.2666 92.7697 19.9996 92.4993 19.6764C92.2071 19.7127 91.971 19.7776 91.7913 19.8713C91.6116 19.9649 91.4639 20.1016 91.3484 20.2813C91.192 20.5245 91.1471 20.7571 91.2135 20.9791C91.28 21.2012 91.4548 21.4405 91.738 21.6973C92.028 21.9435 92.4585 22.2501 93.0295 22.6171ZM95.6305 16.4446C95.2816 16.2203 94.9372 16.1633 94.5974 16.2736C94.2643 16.3733 93.9449 16.661 93.639 17.1368C93.3399 17.602 93.1609 18.0547 93.102 18.495C93.0537 18.942 93.0986 19.337 93.2368 19.6798C93.3818 20.0121 93.597 20.27 93.8825 20.4535C94.2208 20.671 94.5686 20.7227 94.9258 20.6087C95.3004 20.4909 95.6509 20.1782 95.9771 19.6707C96.3918 19.0258 96.5522 18.4043 96.4586 17.8062C96.3823 17.2043 96.1063 16.7505 95.6305 16.4446ZM89.777 26.7347C90.4748 27.1833 91.1629 27.3566 91.841 27.2546C92.5124 27.1633 93.0521 26.8004 93.4599 26.166C93.7318 25.7431 93.8318 25.3667 93.7601 25.0367C93.6884 24.7067 93.5003 24.4065 93.196 24.1361C92.9022 23.8726 92.4574 23.5418 91.8615 23.1438C91.4386 22.872 91.1388 22.6643 90.962 22.5208C90.5089 22.5284 90.1109 22.6013 89.768 22.7395C89.4289 22.895 89.137 23.1631 88.8923 23.5437C88.5185 24.1252 88.4112 24.6988 88.5706 25.2644C88.7299 25.83 89.1321 26.3202 89.777 26.7347Z" fill="#725671"/>
<path d="M101.44 28.5775C101.468 28.6024 101.475 28.6421 101.46 28.6965C101.464 28.7498 101.443 28.7823 101.4 28.794C100.268 28.8026 99.3192 28.4697 98.5546 27.7954C97.9976 27.3042 97.6291 26.7611 97.4491 26.166C97.2774 25.5615 97.2709 24.96 97.4295 24.3615C97.5965 23.7536 97.8923 23.2089 98.3169 22.7275C98.8081 22.1705 99.3898 21.7773 100.062 21.5479C100.744 21.3268 101.433 21.288 102.128 21.4316C102.832 21.5658 103.463 21.8785 104.02 22.3697C104.567 22.8525 104.858 23.3604 104.891 23.8934C104.942 24.4252 104.739 24.9507 104.281 25.4699C104.056 25.7247 103.887 25.8022 103.774 25.7023L100.264 22.6321C100.062 22.8231 99.9109 22.9752 99.811 23.0885C99.0867 23.9098 98.6974 24.7412 98.6432 25.5828C98.589 26.4244 98.9159 27.1574 99.6239 27.7818C99.9071 28.0316 100.172 28.2067 100.419 28.3071C100.684 28.4064 101.02 28.4924 101.425 28.565L101.44 28.5775ZM103.289 22.2283C102.892 21.8786 102.446 21.7283 101.949 21.7773C101.461 21.8168 100.967 22.044 100.467 22.4588L103.094 24.6749C103.519 24.1935 103.74 23.7426 103.758 23.3224C103.794 22.901 103.638 22.5363 103.289 22.2283Z" fill="#725671"/>
<path d="M107.391 37.0271C107.415 37.0565 107.397 37.0949 107.338 37.1423C107.279 37.1897 107.238 37.1987 107.215 37.1694C107.017 36.9244 106.868 36.7295 106.767 36.5844L106.141 35.779L105.487 34.9974C105.366 34.8681 105.211 34.6859 105.022 34.4508C104.998 34.4214 105.015 34.383 105.074 34.3356C105.133 34.2882 105.174 34.2792 105.198 34.3086C105.403 34.5633 105.578 34.7297 105.722 34.8077C105.883 34.8876 106.048 34.8919 106.217 34.8205C106.404 34.7509 106.639 34.6016 106.923 34.3724L109.26 32.4878C109.828 32.0295 110.157 31.5859 110.248 31.157C110.356 30.73 110.225 30.2863 109.854 29.8259C109.624 29.5418 109.314 29.3072 108.922 29.122C108.538 28.9466 108.115 28.8432 107.653 28.8116L104.493 31.36C104.209 31.5891 104.009 31.7825 103.894 31.9403C103.796 32.0999 103.769 32.2671 103.813 32.4418C103.867 32.6087 103.997 32.8195 104.202 33.0742C104.226 33.1036 104.208 33.142 104.15 33.1894C104.091 33.2368 104.05 33.2458 104.026 33.2164C103.828 32.9715 103.679 32.7765 103.578 32.6315L102.953 31.8261L102.298 31.0444C102.178 30.9152 102.023 30.733 101.833 30.4979C101.809 30.4685 101.827 30.4301 101.885 30.3827C101.944 30.3353 101.985 30.3263 102.009 30.3556C102.215 30.6104 102.389 30.7767 102.533 30.8548C102.695 30.9347 102.86 30.939 103.029 30.8675C103.215 30.798 103.45 30.6486 103.734 30.4195L106.615 28.0963C106.938 27.8356 107.142 27.6067 107.225 27.4098C107.309 27.2129 107.28 27.0263 107.138 26.85C107.019 26.703 106.736 26.5027 106.289 26.2489L106.277 26.2342C106.245 26.1951 106.241 26.1499 106.265 26.0987C106.298 26.0396 106.34 26.0217 106.391 26.0451L108.666 27.121L108.752 27.1973C108.831 27.2953 108.793 27.4792 108.639 27.7491C108.503 28.0209 108.257 28.3079 107.902 28.6101C109.322 28.6457 110.348 29.0553 110.98 29.8391C111.415 30.3779 111.594 30.9207 111.517 31.4674C111.449 32.024 111.125 32.5354 110.547 33.0016L107.682 35.3129C107.398 35.542 107.198 35.7355 107.083 35.8932C106.985 36.0528 106.958 36.22 107.002 36.3948C107.056 36.5616 107.185 36.7724 107.391 37.0271Z" fill="#725671"/>
<path d="M116.788 34.8143C116.648 34.5756 116.601 34.3475 116.649 34.1299C116.702 33.9231 116.848 33.7496 117.087 33.6092C117.304 33.4816 117.516 33.4446 117.723 33.4982C117.936 33.5627 118.113 33.7143 118.253 33.953C118.387 34.1808 118.427 34.3981 118.374 34.6049C118.32 34.8116 118.185 34.9788 117.968 35.1064C117.729 35.2468 117.506 35.2902 117.299 35.2365C117.093 35.1829 116.922 35.0422 116.788 34.8143ZM107.681 38.2861C107.662 38.2536 107.685 38.2182 107.75 38.1799C107.815 38.1416 107.858 38.1387 107.877 38.1713C108.113 38.5727 108.34 38.797 108.557 38.8443C108.786 38.8852 109.128 38.7716 109.583 38.5036L112.611 36.7235C112.99 36.5002 113.245 36.2996 113.374 36.1215C113.502 35.9435 113.51 35.7568 113.395 35.5615C113.286 35.3771 113.07 35.1831 112.746 34.9795L112.736 34.9632C112.711 34.9198 112.719 34.8713 112.76 34.8177C112.802 34.7641 112.846 34.7526 112.893 34.7833L115.175 36.3543L115.23 36.4099C115.249 36.4424 115.252 36.4845 115.238 36.5362C115.231 36.5987 115.211 36.6396 115.179 36.6587C115.103 36.7034 114.883 36.8256 114.518 37.0253C114.154 37.225 113.728 37.4684 113.239 37.7555L110.196 39.5452C109.881 39.7302 109.655 39.8923 109.518 40.0314C109.398 40.1749 109.347 40.3364 109.365 40.5157C109.394 40.6886 109.491 40.9162 109.657 41.1982C109.676 41.2308 109.653 41.2662 109.588 41.3045C109.523 41.3428 109.481 41.3456 109.462 41.3131C109.302 41.0419 109.183 40.8271 109.105 40.6688L108.604 39.7805L108.052 38.8787C107.952 38.7332 107.828 38.5357 107.681 38.2861Z" fill="#725671"/>
<path d="M119.818 46.6908C119.832 46.7256 119.805 46.7577 119.735 46.7869C119.666 46.8162 119.624 46.8134 119.609 46.7786C119.477 46.4653 119.255 46.2447 118.942 46.1169C118.634 46.0006 118.183 45.9511 117.589 45.9684L111.142 46.2198C109.836 46.2633 108.789 46.2253 108.001 46.1056C107.207 46.0024 106.591 45.8038 106.154 45.5098C105.709 45.2323 105.38 44.8382 105.165 44.3276C105.048 44.0491 105.02 43.8019 105.079 43.5858C105.122 43.363 105.259 43.2028 105.491 43.1053C105.677 43.0273 105.849 43.0302 106.007 43.1139C106.149 43.191 106.253 43.3107 106.322 43.4732C106.385 43.624 106.419 43.7532 106.423 43.8606C106.421 43.9846 106.406 44.1134 106.381 44.2471C106.379 44.2752 106.371 44.3536 106.357 44.4824C106.347 44.6228 106.377 44.7743 106.445 44.9367C106.562 45.2152 106.794 45.4251 107.14 45.5664C107.474 45.7126 107.979 45.8079 108.653 45.8524C109.315 45.9018 110.226 45.9083 111.385 45.8719L115.689 40.9098C116.087 40.4284 116.333 40.0864 116.425 39.8838C116.529 39.6763 116.535 39.4623 116.442 39.2418C116.432 39.2186 116.462 39.1924 116.532 39.1632C116.602 39.1339 116.641 39.1309 116.651 39.1541C116.763 39.421 116.843 39.6265 116.89 39.7706L117.128 40.3871L117.621 41.5112C117.706 41.6804 117.809 41.91 117.931 42.2001C117.941 42.2233 117.911 42.2496 117.841 42.2788C117.771 42.3081 117.732 42.3111 117.722 42.2879C117.585 41.963 117.452 41.7257 117.32 41.576C117.194 41.4379 117.061 41.3981 116.922 41.4566C116.864 41.481 116.778 41.5514 116.663 41.668L112.976 45.8585L117.386 45.5827C117.704 45.5585 117.949 45.5098 118.124 45.4367C118.402 45.3197 118.555 45.1324 118.584 44.8748C118.628 44.6239 118.556 44.2721 118.366 43.8196C118.356 43.7964 118.386 43.7702 118.455 43.7409C118.525 43.7117 118.565 43.7086 118.574 43.7318C118.706 44.0451 118.8 44.2855 118.857 44.4528L119.278 45.5045L119.559 46.1238C119.624 46.2465 119.711 46.4355 119.818 46.6908Z" fill="#725671"/>
<path d="M116 67.0215C115.993 67.0729 115.951 67.096 115.874 67.0909C115.812 67.097 115.778 67.0813 115.775 67.0437L115.556 64.8266C115.505 64.3005 115.844 63.445 116.575 62.2601C115.488 61.3679 114.87 60.164 114.721 58.6483C114.643 57.8592 114.703 57.183 114.901 56.6197C115.111 56.0552 115.416 55.6205 115.816 55.3155C116.217 55.0231 116.662 54.8528 117.15 54.8048C117.852 54.7357 118.487 54.8946 119.056 55.2812C119.627 55.6804 120.253 56.2637 120.936 57.0313C121.252 56.7726 121.547 56.5601 121.822 56.394C122.55 55.9555 123.215 55.7067 123.816 55.6476C124.38 55.5921 124.906 55.6731 125.396 55.8906C125.886 56.1205 126.293 56.4599 126.615 56.9088C126.939 57.3702 127.132 57.9204 127.195 58.5592C127.257 59.1855 127.159 59.7326 126.901 60.2006C126.656 60.6674 126.208 60.9328 125.557 60.9969C125.068 61.045 124.611 60.9635 124.186 60.7524C123.773 60.5401 123.398 60.2671 123.062 59.9334C122.738 59.5985 122.339 59.1382 121.864 58.5526L121.605 58.2366C120.268 59.304 119.015 60.7743 117.846 62.6473C118.583 62.9415 119.39 63.0455 120.267 62.9592C120.768 62.9099 121.128 62.7733 121.346 62.5495C121.578 62.337 121.668 61.9676 121.617 61.4415C121.613 61.404 121.648 61.3752 121.722 61.3553C121.797 61.3479 121.837 61.3692 121.842 61.4194L122.257 65.4384C122.262 65.4885 122.226 65.5173 122.151 65.5247C122.076 65.532 122.036 65.5107 122.031 65.4606C121.99 65.0472 121.916 64.7384 121.807 64.5341C121.712 64.341 121.585 64.2081 121.426 64.1352C121.267 64.0623 121.027 63.9974 120.705 63.9405C119.495 63.7182 118.476 63.3947 117.65 62.9701C117.174 63.7884 116.794 64.553 116.51 65.264C116.226 65.9749 116.056 66.5607 116 67.0215ZM124.874 56.7577C123.897 56.8538 122.89 57.288 121.853 58.0604C122.417 58.6499 122.947 59.091 123.444 59.3836C123.955 59.6875 124.51 59.8098 125.112 59.7507C125.663 59.6965 126.081 59.5099 126.366 59.191C126.65 58.8721 126.769 58.4683 126.721 57.9798C126.63 57.0529 126.014 56.6455 124.874 56.7577ZM115.435 59.5456C115.533 60.5351 115.973 61.3518 116.758 61.9955C116.854 61.8216 116.953 61.6665 117.053 61.5301C117.581 60.7194 118.161 59.935 118.795 59.1771C119.43 58.4316 120.068 57.787 120.71 57.2432C120.29 56.8293 119.861 56.5174 119.423 56.3075C118.997 56.0964 118.528 56.0162 118.014 56.0667C117.501 56.1172 117.032 56.2962 116.606 56.6036C116.195 56.9223 115.882 57.3389 115.667 57.8533C115.452 58.3677 115.375 58.9318 115.435 59.5456Z" fill="#725671"/>
<path d="M112.373 84.0434C112.361 84.0922 112.319 84.1076 112.245 84.0894C112.172 84.0712 112.141 84.0376 112.154 83.9888C112.211 83.7567 112.313 83.3993 112.459 82.9168C112.604 82.4342 112.706 82.0769 112.764 81.8448C112.833 81.5638 112.908 81.2126 112.986 80.7912C113.059 80.3942 113.122 80.0858 113.177 79.8659C113.189 79.817 113.232 79.8017 113.305 79.8199C113.378 79.8381 113.409 79.8716 113.397 79.9205C113.288 80.3603 113.247 80.6809 113.275 80.8823C113.312 81.099 113.434 81.2331 113.642 81.2846C113.825 81.3301 114.121 81.3128 114.53 81.2327L118.22 80.4755L119.307 76.0961L117.065 74.3919C116.738 74.1422 116.421 73.9794 116.116 73.9036C115.346 73.7126 114.815 74.2095 114.52 75.3945C114.505 75.4556 114.461 75.477 114.388 75.4588C114.314 75.4406 114.285 75.401 114.301 75.3399C114.355 75.12 114.446 74.8054 114.574 74.3962C114.713 73.938 114.826 73.5379 114.911 73.1959C114.986 72.8905 115.067 72.5149 115.151 72.069C115.218 71.6965 115.283 71.382 115.347 71.1254C115.362 71.0643 115.406 71.0429 115.479 71.0611C115.553 71.0793 115.582 71.1189 115.567 71.18C115.482 71.522 115.472 71.8243 115.536 72.0867C115.61 72.3644 115.784 72.6541 116.06 72.9558C116.335 73.2576 116.757 73.6217 117.325 74.0481L125.417 80.1611C125.448 80.1946 125.454 80.2481 125.436 80.3214C125.418 80.3946 125.389 80.4329 125.349 80.436L115.178 82.5413C114.183 82.7353 113.49 82.9394 113.1 83.1538C112.71 83.3681 112.467 83.6647 112.373 84.0434ZM119.651 76.3565L118.65 80.3878L123.612 79.3628L119.651 76.3565Z" fill="#725671"/>
<path d="M110.422 87.8807C110.115 88.4868 109.839 88.9687 109.596 89.3264C109.364 89.6895 109.049 89.9636 108.652 90.1486C108.237 90.3395 107.759 90.3032 107.215 90.0397C106.592 89.7377 106.11 89.2595 105.77 88.6051C105.43 87.9507 105.261 87.2182 105.262 86.4075C105.258 85.6082 105.431 84.8462 105.783 84.1213C106.156 83.3511 106.636 82.8217 107.224 82.533C107.795 82.2501 108.352 82.2404 108.896 82.5039C109.722 82.9047 110.258 83.8776 110.502 85.4226C110.768 85.0478 111.046 84.791 111.337 84.6523C111.628 84.5137 111.949 84.5294 112.3 84.6996C112.64 84.8643 112.899 85.1088 113.078 85.4331C113.262 85.7742 113.411 86.2311 113.525 86.8039C113.91 86.5008 114.327 86.3183 114.777 86.2565C115.238 86.2002 115.672 86.2708 116.08 86.4684C116.725 86.7813 117.126 87.2971 117.281 88.0157C117.431 88.7457 117.313 89.5071 116.929 90.2999C116.583 91.0135 116.122 91.5173 115.546 91.8115C115.573 92.2165 115.564 92.5825 115.517 92.9096C115.482 93.2421 115.384 93.5726 115.225 93.9011C115.209 93.9351 115.152 93.9358 115.056 93.9032C114.966 93.8874 114.87 93.8548 114.768 93.8054C114.632 93.7395 114.499 93.6539 114.368 93.5486C114.237 93.4432 114.194 93.3734 114.239 93.3391C114.584 93.059 114.856 92.7151 115.054 92.3073C115.13 92.1488 115.182 92.0271 115.21 91.9423C114.621 92.1185 114.054 92.0748 113.511 91.8113C113.103 91.6136 112.787 91.3136 112.562 90.911C112.338 90.5085 112.225 90.0483 112.224 89.5304C112.218 89.0238 112.341 88.5101 112.594 87.9891C112.764 87.638 112.994 87.3086 113.283 87.0011C113.212 86.7149 113.119 86.488 113.004 86.3206C112.889 86.1531 112.736 86.0227 112.543 85.9294C112.283 85.8031 112.046 85.7863 111.833 85.879C111.621 85.9717 111.404 86.1742 111.182 86.4866C110.972 86.8044 110.719 87.2691 110.422 87.8807ZM116.871 89.7264C117.052 89.3527 117.068 89.0035 116.917 88.6788C116.778 88.3597 116.454 88.0766 115.944 87.8296C115.446 87.588 114.974 87.4644 114.53 87.4586C114.079 87.4641 113.692 87.5562 113.368 87.7347C113.055 87.9186 112.824 88.1635 112.676 88.4694C112.5 88.8318 112.49 89.1837 112.647 89.5252C112.809 89.8835 113.161 90.1944 113.705 90.4579C114.396 90.7927 115.033 90.8778 115.617 90.7129C116.206 90.565 116.624 90.2361 116.871 89.7264ZM105.939 85.1411C105.576 85.8886 105.486 86.5933 105.669 87.2553C105.84 87.9119 106.266 88.4048 106.945 88.7342C107.399 88.9538 107.785 89.0081 108.104 88.8972C108.424 88.7863 108.7 88.5634 108.932 88.2284C109.159 87.9047 109.434 87.4229 109.759 86.7828C109.978 86.3297 110.149 86.0067 110.27 85.8139C110.209 85.3643 110.088 84.9773 109.91 84.653C109.715 84.3346 109.413 84.0765 109.005 83.8789C108.382 83.577 107.799 83.5391 107.256 83.7654C106.713 83.9916 106.274 84.4502 105.939 85.1411Z" fill="#725671"/>
<path d="M103.122 98.5937C103.1 98.6243 103.058 98.6173 102.997 98.5727C102.936 98.5282 102.916 98.4906 102.939 98.46C103.124 98.2051 103.274 98.01 103.388 97.8747L104.005 97.0601L104.592 96.2232C104.685 96.073 104.821 95.8756 105 95.6309C105.022 95.6003 105.064 95.6073 105.125 95.6519C105.186 95.6964 105.205 95.734 105.183 95.7646C104.99 96.0296 104.874 96.2419 104.836 96.4014C104.801 96.5785 104.84 96.7394 104.953 96.8841C105.069 97.0465 105.274 97.2353 105.57 97.4507L108.002 99.2217C108.593 99.6524 109.108 99.8559 109.547 99.8321C109.988 99.8259 110.383 99.5832 110.732 99.1041C110.948 98.8084 111.094 98.4469 111.171 98.0195C111.241 97.6022 111.231 97.1659 111.142 96.7106L107.854 94.3157C107.558 94.1004 107.319 93.9574 107.136 93.8868C106.956 93.8338 106.787 93.8513 106.63 93.9393C106.482 94.0347 106.312 94.2149 106.119 94.48C106.097 94.5106 106.055 94.5036 105.994 94.4591C105.932 94.4145 105.913 94.3769 105.935 94.3463C106.121 94.0915 106.271 93.8964 106.385 93.7611L107.002 92.9464L107.588 92.1095C107.682 91.9593 107.818 91.7619 107.996 91.5172C108.018 91.4867 108.06 91.4936 108.121 91.5382C108.182 91.5828 108.202 91.6203 108.18 91.6509C107.987 91.916 107.871 92.1282 107.833 92.2877C107.797 92.4648 107.836 92.6257 107.949 92.7705C108.065 92.9328 108.271 93.1217 108.567 93.337L111.564 95.5202C111.9 95.7653 112.175 95.9027 112.387 95.9325C112.6 95.9623 112.773 95.8855 112.906 95.702C113.018 95.5491 113.138 95.2232 113.267 94.7244L113.278 94.7091C113.308 94.6683 113.351 94.6526 113.406 94.6619C113.472 94.6787 113.5 94.7149 113.491 94.7705L113.041 97.2516L112.99 97.3545C112.916 97.4565 112.728 97.4679 112.426 97.3889C112.128 97.3275 111.786 97.1645 111.402 96.8999C111.736 98.2828 111.607 99.382 111.012 100.198C110.604 100.758 110.125 101.073 109.576 101.141C109.02 101.219 108.441 101.04 107.839 100.601L104.857 98.4294C104.561 98.2141 104.322 98.0711 104.14 98.0005C103.96 97.9475 103.791 97.965 103.633 98.053C103.486 98.1484 103.315 98.3286 103.122 98.5937Z" fill="#725671"/>
<path d="M98.6213 104.143C98.5941 104.169 98.5538 104.173 98.5004 104.154C98.4468 104.154 98.4158 104.131 98.4075 104.086C98.4861 102.952 98.8924 102.028 99.6265 101.315C100.161 100.795 100.733 100.468 101.343 100.333C101.962 100.208 102.564 100.248 103.151 100.453C103.747 100.667 104.27 101.005 104.719 101.467C105.239 102.001 105.588 102.614 105.766 103.305C105.935 104.004 105.921 104.697 105.723 105.382C105.535 106.077 105.173 106.684 104.639 107.204C104.113 107.715 103.582 107.967 103.046 107.959C102.509 107.969 101.999 107.725 101.514 107.227C101.276 106.982 101.212 106.807 101.32 106.701L104.665 103.423C104.489 103.206 104.349 103.044 104.243 102.935C103.476 102.146 102.674 101.693 101.835 101.574C100.997 101.455 100.237 101.725 99.5577 102.386C99.2859 102.651 99.0901 102.902 98.9706 103.142C98.8507 103.4 98.7388 103.729 98.6349 104.13L98.6213 104.143ZM104.836 106.483C105.217 106.113 105.402 105.677 105.391 105.177C105.389 104.685 105.2 104.173 104.823 103.64L102.402 106.1C102.851 106.562 103.285 106.818 103.705 106.869C104.124 106.937 104.501 106.809 104.836 106.483Z" fill="#725671"/>
<path d="M99.271 110.012C99.0185 109.665 98.7021 109.466 98.3218 109.416C97.9416 109.365 97.4418 109.386 96.8223 109.478C96.3318 109.554 95.9363 109.6 95.6359 109.616C95.3354 109.632 95.0322 109.58 94.726 109.46C94.4273 109.35 94.1666 109.142 93.9438 108.836C93.5651 108.316 93.4357 107.731 93.5558 107.082C93.6759 106.433 94.0774 105.86 94.7605 105.362C95.0256 105.169 95.3065 105.019 95.6032 104.912C95.8897 104.813 96.2147 104.756 96.5782 104.74C96.6691 104.737 96.7442 104.776 96.8036 104.857L97.7365 106.074C97.7588 106.104 97.7444 106.138 97.6935 106.175C97.6397 106.23 97.5966 106.246 97.5641 106.223C97.0093 105.846 96.4648 105.634 95.9306 105.587C95.4038 105.549 94.9365 105.679 94.5287 105.976C94.233 106.191 94.0556 106.43 93.9965 106.691C93.9373 106.953 94.0117 107.226 94.2196 107.512C94.5167 107.919 94.8604 108.145 95.2509 108.188C95.6386 108.249 96.1472 108.23 96.7768 108.13C97.2497 108.051 97.6313 108.007 97.9216 107.999C98.2118 107.99 98.5063 108.041 98.805 108.151C99.0935 108.268 99.3528 108.485 99.5831 108.801C99.9915 109.362 100.096 109.934 99.8959 110.516C99.6933 111.116 99.3014 111.628 98.7203 112.051C98.3124 112.348 97.8744 112.55 97.4062 112.657C97.2847 112.683 97.198 112.661 97.146 112.589C96.99 112.375 96.8726 112.203 96.7937 112.073L96.33 111.405C96.3151 111.384 96.3383 111.352 96.3994 111.307C96.4606 111.263 96.4986 111.251 96.5135 111.271C96.7437 111.587 97.125 111.746 97.6573 111.749C98.1868 111.769 98.6453 111.638 99.0327 111.355C99.2774 111.177 99.4266 110.975 99.4802 110.749C99.5338 110.522 99.4641 110.277 99.271 110.012Z" fill="#725671"/>
<path d="M86.9262 112.677C86.8929 112.695 86.8534 112.688 86.8076 112.655C86.7566 112.64 86.7333 112.609 86.7377 112.564C87.1249 111.503 87.7671 110.733 88.6643 110.254C89.3178 109.905 89.954 109.75 90.5731 109.79C91.198 109.841 91.7625 110.045 92.2665 110.402C92.7764 110.77 93.1822 111.237 93.4839 111.801C93.833 112.455 93.9974 113.136 93.9771 113.844C93.9458 114.559 93.7416 115.216 93.3645 115.816C92.9933 116.427 92.4809 116.907 91.8274 117.256C91.185 117.599 90.6089 117.693 90.0991 117.538C89.5842 117.4 89.164 117.027 88.8386 116.418C88.6789 116.119 88.6655 115.934 88.7984 115.863L92.8934 113.654C92.7854 113.399 92.6959 113.205 92.6249 113.072C92.1102 112.108 91.469 111.454 90.7013 111.11C89.9336 110.765 89.1344 110.815 88.3037 111.258C87.9714 111.436 87.7152 111.622 87.5351 111.818C87.3498 112.031 87.1524 112.314 86.9428 112.668L86.9262 112.677ZM92.2148 116.622C92.6801 116.373 92.9764 116.009 93.1039 115.528C93.2373 115.058 93.1975 114.517 92.9844 113.905L89.996 115.586C90.2977 116.151 90.6418 116.515 91.0282 116.679C91.4095 116.86 91.805 116.841 92.2148 116.622Z" fill="#725671"/>
<path d="M68.0661 115.959C68.0142 115.957 67.987 115.917 67.9845 115.841C67.9722 115.779 67.9845 115.744 68.0215 115.737L70.2059 115.299C70.7242 115.195 71.6093 115.447 72.8611 116.056C73.6405 114.886 74.7768 114.151 76.2701 113.852C77.0476 113.696 77.7264 113.688 78.3066 113.828C78.8892 113.981 79.3522 114.241 79.6955 114.609C80.0265 114.979 80.2402 115.405 80.3367 115.886C80.4753 116.577 80.3807 117.225 80.0527 117.83C79.7124 118.438 79.1943 119.119 78.4986 119.875C78.7876 120.163 79.0284 120.436 79.2211 120.693C79.73 121.374 80.0438 122.01 80.1626 122.603C80.274 123.158 80.2459 123.69 80.0783 124.199C79.8984 124.71 79.6012 125.148 79.1867 125.514C78.7598 125.882 78.2317 126.129 77.6023 126.255C76.9853 126.379 76.4311 126.336 75.9397 126.126C75.4509 125.929 75.1421 125.509 75.0134 124.868C74.9169 124.386 74.9524 123.924 75.12 123.479C75.2901 123.047 75.5244 122.647 75.8229 122.279C76.1239 121.924 76.542 121.48 77.0774 120.949L77.366 120.66C76.1706 119.437 74.5828 118.336 72.6026 117.36C72.3833 118.123 72.3603 118.936 72.5336 119.8C72.6326 120.294 72.8043 120.638 73.0488 120.833C73.2834 121.043 73.6599 121.095 74.1782 120.991C74.2152 120.984 74.2473 121.016 74.2745 121.088C74.2894 121.162 74.2721 121.204 74.2228 121.214L70.265 122.027C70.2156 122.036 70.1835 122.004 70.1687 121.93C70.1538 121.856 70.1711 121.814 70.2205 121.804C70.6277 121.723 70.9276 121.618 71.12 121.489C71.3027 121.376 71.4223 121.236 71.479 121.071C71.5357 120.905 71.5763 120.66 71.6008 120.334C71.7013 119.107 71.9217 118.061 72.2619 117.197C71.4002 116.805 70.6015 116.503 69.8657 116.291C69.13 116.079 68.5301 115.969 68.0661 115.959ZM79.1635 123.766C78.9705 122.803 78.438 121.845 77.5661 120.89C77.0357 121.51 76.6497 122.081 76.4081 122.605C76.1566 123.143 76.0903 123.708 76.2091 124.301C76.318 124.844 76.5453 125.241 76.891 125.493C77.2367 125.744 77.6502 125.822 78.1315 125.725C79.0448 125.542 79.3888 124.889 79.1635 123.766ZM75.4485 114.652C74.4736 114.847 73.7049 115.367 73.1426 116.212C73.3253 116.291 73.4895 116.373 73.6352 116.46C74.4944 116.904 75.3327 117.403 76.1501 117.958C76.9551 118.515 77.6602 119.087 78.2653 119.671C78.6353 119.212 78.9029 118.754 79.068 118.297C79.2356 117.853 79.2687 117.378 79.1672 116.872C79.0657 116.366 78.8409 115.916 78.4926 115.524C78.1345 115.147 77.6888 114.877 77.1555 114.714C76.6222 114.551 76.0532 114.531 75.4485 114.652Z" fill="#725671"/>
<path d="M50.8525 125.836C50.8275 125.833 50.8198 125.794 50.8294 125.719C50.8391 125.644 50.8563 125.608 50.8813 125.612C51.3183 125.668 51.8034 125.546 52.3367 125.246C52.856 124.958 53.3421 124.531 53.7951 123.968L56.6914 120.532L57.2343 116.3C57.284 115.913 57.2825 115.627 57.2301 115.443C57.1776 115.259 57.0555 115.122 56.8637 115.034C56.6595 114.945 56.3264 114.87 55.8645 114.811C55.827 114.806 55.8131 114.766 55.8227 114.691C55.8323 114.617 55.8559 114.582 55.8933 114.586C56.2803 114.636 56.5792 114.681 56.7898 114.72L58.117 114.91L59.4115 115.057C59.6503 115.075 59.9695 115.109 60.369 115.16C60.3939 115.164 60.4016 115.203 60.392 115.278C60.3824 115.352 60.3651 115.388 60.3401 115.385C59.8782 115.326 59.5371 115.314 59.3169 115.349C59.0966 115.384 58.9379 115.484 58.8405 115.65C58.7291 115.826 58.6494 116.101 58.6013 116.476L58.0968 120.408L60.554 125.292C60.8548 125.914 61.1469 126.357 61.4302 126.622C61.7134 126.887 62.0423 127.043 62.4169 127.091C62.4543 127.096 62.4683 127.136 62.4586 127.211C62.449 127.286 62.4255 127.321 62.3881 127.316L61.735 127.213C61.4386 127.15 61.2217 127.109 61.0844 127.092C60.6599 127.037 60.109 126.979 59.4317 126.918L58.3806 126.802C58.3556 126.799 58.3479 126.76 58.3575 126.685C58.3671 126.61 58.3844 126.574 58.4094 126.577C59.0211 126.656 59.3454 126.551 59.3823 126.264C59.3983 126.139 59.3504 125.968 59.2387 125.751L56.8584 121.011L54.2489 124.14C53.9009 124.578 53.7077 124.946 53.6692 125.246C53.6084 125.72 53.915 126.001 54.5892 126.087C54.6141 126.091 54.6218 126.13 54.6122 126.204C54.6026 126.279 54.5853 126.315 54.5603 126.312L53.6639 126.178C53.1677 126.089 52.7199 126.019 52.3204 125.968C52.1081 125.94 51.8506 125.92 51.5478 125.907L50.8525 125.836Z" fill="#725671"/>
<path d="M47.7143 113.568C47.6779 113.558 47.6546 113.525 47.6442 113.47C47.6183 113.423 47.6226 113.385 47.6572 113.355C48.6755 112.861 49.6748 112.754 50.6551 113.033C51.3692 113.237 51.9354 113.569 52.3539 114.029C52.7689 114.501 53.0334 115.041 53.1476 115.65C53.2583 116.271 53.2255 116.89 53.0492 117.507C52.8452 118.221 52.4891 118.826 51.9808 119.322C51.4605 119.815 50.8554 120.146 50.1655 120.316C49.4723 120.497 48.7686 120.486 48.0545 120.282C47.3526 120.082 46.8719 119.748 46.6125 119.281C46.3376 118.823 46.2952 118.261 46.4853 117.596C46.5786 117.269 46.6979 117.126 46.8432 117.168L51.3324 118.43C51.4327 118.171 51.5035 117.969 51.545 117.823C51.8458 116.77 51.8397 115.852 51.5267 115.069C51.2137 114.286 50.6033 113.765 49.6956 113.506C49.3325 113.402 49.0179 113.358 48.7516 113.373C48.4698 113.398 48.1301 113.464 47.7324 113.573L47.7143 113.568ZM48.7755 120.095C49.2838 120.241 49.7515 120.184 50.1785 119.927C50.602 119.681 50.9504 119.264 51.2235 118.674L47.8987 117.803C47.7224 118.42 47.7164 118.922 47.8807 119.31C48.0294 119.706 48.3277 119.967 48.7755 120.095Z" fill="#725671"/>
<path d="M36.717 115.5C36.6941 115.489 36.6985 115.449 36.7302 115.381C36.7619 115.312 36.7892 115.283 36.8122 115.293C37.11 115.431 37.4153 115.447 37.728 115.341C38.0241 115.241 38.3778 115.002 38.7893 114.622L43.2922 110.51C43.3415 110.464 43.4177 110.464 43.5208 110.512C43.6125 110.554 43.6622 110.612 43.6702 110.685L43.715 116.999C43.7115 117.609 43.7555 118.025 43.8471 118.248C43.9335 118.483 44.0912 118.653 44.3203 118.758C44.3546 118.774 44.3559 118.817 44.3242 118.885C44.2925 118.954 44.2595 118.98 44.2251 118.965C44.0075 118.864 43.8383 118.779 43.7176 118.709L42.9867 118.351L41.8105 117.829C41.6334 117.762 41.396 117.659 41.0982 117.521C41.0638 117.506 41.0625 117.463 41.0942 117.395C41.1259 117.326 41.159 117.299 41.1933 117.315C41.8691 117.627 42.2678 117.651 42.3894 117.388C42.4317 117.296 42.4511 117.194 42.4475 117.081L42.3855 111.843L39.1184 114.857C38.9378 115.038 38.8184 115.191 38.7602 115.317C38.5382 115.798 38.8682 116.242 39.7501 116.649C39.773 116.66 39.7686 116.699 39.7369 116.768C39.7052 116.837 39.6779 116.866 39.655 116.855C39.3457 116.713 39.1135 116.599 38.9585 116.513L37.9355 116.02L37.2747 115.736C37.1549 115.695 36.969 115.616 36.717 115.5Z" fill="#725671"/>
<path d="M35.7406 106.65C35.1835 106.259 34.745 105.918 34.4251 105.626C34.098 105.345 33.871 104.994 33.744 104.574C33.6136 104.136 33.7176 103.667 34.056 103.165C34.4437 102.591 34.986 102.181 35.6829 101.937C36.3799 101.692 37.13 101.628 37.9333 101.745C38.7262 101.854 39.4569 102.134 40.1255 102.585C40.8359 103.065 41.2925 103.616 41.4953 104.239C41.6947 104.845 41.6252 105.398 41.2868 105.9C40.7723 106.663 39.7319 107.055 38.1658 107.078C38.4997 107.394 38.7146 107.707 38.8108 108.015C38.907 108.323 38.8458 108.639 38.6273 108.963C38.4158 109.276 38.1367 109.498 37.7899 109.629C37.4256 109.763 36.9515 109.846 36.3676 109.878C36.6134 110.303 36.7351 110.742 36.7326 111.196C36.723 111.661 36.5913 112.081 36.3376 112.458C35.9358 113.053 35.3677 113.377 34.6334 113.429C33.8886 113.473 33.1506 113.249 32.4193 112.756C31.7611 112.312 31.3271 111.783 31.1173 111.17C30.712 111.14 30.3506 111.079 30.033 110.986C29.7084 110.904 29.3946 110.761 29.0916 110.556C29.0603 110.535 29.0676 110.479 29.1135 110.389C29.142 110.301 29.1879 110.211 29.2513 110.117C29.3359 109.991 29.4397 109.871 29.5627 109.757C29.6857 109.642 29.761 109.609 29.7887 109.658C30.0173 110.041 30.3196 110.359 30.6957 110.612C30.842 110.711 30.9552 110.78 31.0354 110.819C30.9444 110.21 31.068 109.655 31.4064 109.154C31.6601 108.777 32.0025 108.507 32.4333 108.341C32.8642 108.176 33.3363 108.13 33.8497 108.202C34.3527 108.268 34.8445 108.463 35.3251 108.787C35.6489 109.006 35.9428 109.28 36.2066 109.61C36.5004 109.58 36.7384 109.52 36.9206 109.43C37.1029 109.341 37.254 109.207 37.3738 109.029C37.5359 108.789 37.5861 108.557 37.5245 108.333C37.4628 108.109 37.2929 107.865 37.0147 107.601C36.7295 107.348 36.3048 107.031 35.7406 106.65ZM32.9959 112.78C33.3407 113.012 33.6846 113.077 34.0277 112.974C34.3638 112.882 34.6904 112.6 35.0076 112.13C35.3178 111.671 35.5073 111.221 35.5761 110.781C35.6345 110.334 35.5983 109.937 35.4674 109.59C35.3295 109.254 35.1194 108.991 34.8374 108.8C34.5031 108.575 34.1556 108.515 33.795 108.621C33.4169 108.731 33.0586 109.037 32.7203 109.538C32.2903 110.175 32.1156 110.795 32.1961 111.397C32.2592 112.002 32.5258 112.463 32.9959 112.78ZM39.0926 102.595C38.4031 102.13 37.7172 101.941 37.0352 102.028C36.3601 102.105 35.8111 102.457 35.3882 103.083C35.1062 103.501 34.9975 103.876 35.0621 104.209C35.1267 104.541 35.3085 104.846 35.6076 105.124C35.8962 105.395 36.3347 105.736 36.9231 106.148C37.341 106.43 37.6369 106.645 37.8109 106.793C38.2653 106.795 38.6659 106.731 39.0126 106.6C39.356 106.452 39.6546 106.19 39.9084 105.814C40.296 105.239 40.4163 104.667 40.2692 104.096C40.122 103.525 39.7298 103.025 39.0926 102.595Z" fill="#725671"/>
<path d="M27.5555 100.405C27.5279 100.379 27.5221 100.339 27.538 100.285C27.5361 100.232 27.5572 100.2 27.6014 100.19C28.7333 100.212 29.6721 100.571 30.4178 101.266C30.9611 101.773 31.3144 102.326 31.478 102.925C31.633 103.534 31.6229 104.136 31.4478 104.73C31.2641 105.333 30.9534 105.869 30.5157 106.339C30.0093 106.882 29.417 107.259 28.7386 107.47C28.051 107.672 27.3615 107.692 26.6701 107.529C25.97 107.375 25.3484 107.046 24.8052 106.539C24.2711 106.041 23.9948 105.526 23.976 104.992C23.9395 104.459 24.1573 103.939 24.6293 103.433C24.8611 103.184 25.0322 103.112 25.1427 103.215L28.5668 106.38C28.774 106.195 28.9291 106.047 29.0321 105.937C29.7788 105.136 30.1909 104.315 30.2683 103.475C30.3457 102.636 30.0391 101.894 29.3486 101.25C29.0724 100.993 28.8121 100.81 28.5679 100.703C28.3059 100.597 27.9731 100.502 27.5693 100.418L27.5555 100.405ZM25.5322 106.701C25.9189 107.061 26.361 107.224 26.8585 107.188C27.3474 107.162 27.8475 106.949 28.3589 106.548L25.7939 104.26C25.3562 104.73 25.1224 105.174 25.0926 105.594C25.045 106.014 25.1915 106.383 25.5322 106.701Z" fill="#725671"/>
<path d="M21.717 91.8146C21.694 91.7844 21.7126 91.7463 21.7731 91.7002C21.8335 91.6542 21.8752 91.6462 21.8982 91.6764C22.0902 91.9282 22.2349 92.1283 22.3323 92.277L22.9391 93.1041L23.5762 93.9082C23.6937 94.0415 23.8447 94.2289 24.0289 94.4706C24.052 94.5008 24.0333 94.5389 23.9729 94.585C23.9125 94.6311 23.8707 94.639 23.8477 94.6088C23.6481 94.347 23.477 94.1749 23.3345 94.0924C23.1743 94.0076 23.0083 93.9988 22.8366 94.066C22.6472 94.1308 22.4065 94.2746 22.1144 94.4972L19.7128 96.3283C19.1288 96.7736 18.7853 97.2106 18.6824 97.6395C18.5616 98.0659 18.6817 98.5157 19.0426 98.989C19.2653 99.281 19.5711 99.5254 19.9602 99.7224C20.3416 99.9093 20.7642 100.025 21.2281 100.069L24.4755 97.5934C24.7675 97.3708 24.9737 97.1817 25.094 97.0263C25.1966 96.8685 25.2282 96.7011 25.1888 96.5241C25.1393 96.3548 25.0148 96.1393 24.8151 95.8775C24.7921 95.8473 24.8108 95.8092 24.8712 95.7631C24.9316 95.717 24.9734 95.7091 24.9964 95.7393C25.1884 95.991 25.333 96.1912 25.4305 96.3399L26.0373 97.167L26.6743 97.971C26.7919 98.1043 26.9428 98.2918 27.1271 98.5335C27.1501 98.5637 27.1314 98.6018 27.071 98.6479C27.0106 98.6939 26.9689 98.7019 26.9459 98.6717C26.7462 98.4099 26.5752 98.2377 26.4327 98.1553C26.2724 98.0705 26.1065 98.0617 25.9348 98.1289C25.7454 98.1937 25.5046 98.3374 25.2126 98.5601L22.2521 100.817C21.9199 101.071 21.7089 101.295 21.6193 101.491C21.5297 101.687 21.554 101.875 21.6922 102.056C21.8073 102.207 22.0863 102.417 22.5291 102.684L22.5407 102.699C22.5714 102.739 22.5743 102.785 22.5493 102.836C22.5144 102.894 22.4714 102.911 22.4206 102.886L20.1624 101.742L20.0782 101.663C20.0015 101.562 20.0443 101.378 20.2068 101.111C20.3516 100.841 20.6064 100.559 20.9713 100.265C19.5448 100.19 18.5244 99.7503 17.9102 98.9448C17.4878 98.391 17.3226 97.8402 17.4145 97.2924C17.4987 96.7346 17.8379 96.2292 18.432 95.7762L21.3773 93.5306C21.6694 93.3079 21.8755 93.1189 21.9959 92.9634C22.0984 92.8056 22.13 92.6382 22.0906 92.4613C22.0412 92.292 21.9166 92.0764 21.717 91.8146Z" fill="#725671"/>
<path d="M12.3767 93.7334C12.5104 93.9759 12.5506 94.2053 12.4973 94.4215C12.4379 94.6266 12.287 94.7961 12.0444 94.9297C11.824 95.0512 11.6111 95.0823 11.4059 95.0229C11.1947 94.9525 11.0222 94.796 10.8886 94.5535C10.761 94.322 10.7269 94.1037 10.7862 93.8985C10.8456 93.6933 10.9855 93.53 11.206 93.4085C11.4485 93.2748 11.6724 93.2377 11.8776 93.2971C12.0828 93.3565 12.2492 93.5019 12.3767 93.7334ZM21.577 90.5172C21.5952 90.5503 21.5713 90.5851 21.5051 90.6215C21.439 90.658 21.3968 90.6596 21.3786 90.6266C21.1538 90.2187 20.9333 89.9881 20.7171 89.9348C20.4898 89.8876 20.1447 89.9916 19.6817 90.2467L16.6061 91.9416C16.2203 92.1542 15.9605 92.3477 15.8266 92.5221C15.6928 92.6964 15.6805 92.8828 15.7899 93.0812C15.8932 93.2686 16.104 93.4686 16.4224 93.6812L16.4315 93.6977C16.4558 93.7418 16.4465 93.7901 16.4035 93.8425C16.3605 93.8949 16.3159 93.9052 16.2695 93.8732L14.0323 92.239L13.9793 92.182C13.961 92.1489 13.9593 92.1068 13.9742 92.0555C13.983 91.9931 14.0039 91.9529 14.037 91.9347C14.1141 91.8921 14.3376 91.7761 14.7075 91.5867C15.0773 91.3972 15.5103 91.1658 16.0064 90.8925L19.0985 89.1885C19.4182 89.0123 19.6485 88.8566 19.7896 88.7214C19.9135 88.5812 19.9691 88.4213 19.9563 88.2415C19.9324 88.0678 19.8415 87.8377 19.6835 87.5511C19.6653 87.518 19.6892 87.4833 19.7554 87.4468C19.8215 87.4104 19.8637 87.4087 19.8819 87.4417C20.0338 87.7173 20.1468 87.9353 20.2208 88.0957L20.6964 88.9977L21.2233 89.9145C21.3194 90.0628 21.4373 90.2637 21.577 90.5172Z" fill="#725671"/>
<path d="M9.68312 81.7864C9.66947 81.7512 9.69785 81.7199 9.76826 81.6926C9.83868 81.6653 9.88071 81.6693 9.89436 81.7045C10.0172 82.0214 10.2333 82.248 10.5428 82.3846C10.8476 82.5094 11.2969 82.5715 11.8907 82.5708L18.3428 82.4995C19.6495 82.4924 20.6948 82.5597 21.4787 82.7013C22.2698 82.8267 22.8799 83.0424 23.309 83.3485C23.7454 83.6383 24.0637 84.0414 24.2639 84.5578C24.3731 84.8394 24.395 85.0874 24.3296 85.3018C24.2805 85.5233 24.1385 85.6795 23.9038 85.7705C23.7161 85.8433 23.5443 85.8356 23.3887 85.7475C23.2493 85.6665 23.1477 85.5439 23.084 85.3796C23.0249 85.227 22.9947 85.097 22.9935 84.9895C22.9995 84.8656 23.0173 84.7373 23.0467 84.6044C23.0494 84.5763 23.0595 84.4981 23.0773 84.3698C23.0905 84.2297 23.0652 84.0775 23.0015 83.9132C22.8923 83.6315 22.6667 83.4152 22.3247 83.2643C21.9944 83.1089 21.4931 82.9995 20.8205 82.9362C20.1598 82.8684 19.2497 82.8364 18.0902 82.8404L13.6489 87.6804C13.2372 88.1505 12.9824 88.4855 12.8844 88.6855C12.7747 88.89 12.7631 89.1037 12.8495 89.3267C12.8586 89.3502 12.828 89.3756 12.7575 89.4029C12.6871 89.4302 12.6474 89.4321 12.6383 89.4086C12.5336 89.1387 12.4599 88.931 12.417 88.7857L12.1957 88.1627L11.7345 87.0253C11.6545 86.8539 11.5577 86.6214 11.4439 86.328C11.4348 86.3046 11.4655 86.2792 11.5359 86.2519C11.6063 86.2246 11.6461 86.2227 11.6552 86.2461C11.7826 86.5747 11.9097 86.8157 12.0367 86.969C12.159 87.1105 12.2906 87.154 12.4315 87.0994C12.4901 87.0767 12.5785 87.0086 12.6966 86.8954L16.4988 82.8094L12.0828 82.962C11.7648 82.9773 11.5177 83.0191 11.3417 83.0873C11.06 83.1965 10.9015 83.3795 10.866 83.6362C10.8143 83.8857 10.8771 84.2394 11.0546 84.6971C11.0637 84.7205 11.033 84.7459 10.9626 84.7732C10.8922 84.8005 10.8524 84.8024 10.8433 84.7789C10.7205 84.4621 10.6331 84.2192 10.5811 84.0504L10.1892 82.9874L9.92594 82.3605C9.86415 82.2359 9.78321 82.0446 9.68312 81.7864Z" fill="#725671"/>
<path d="M14.0665 61.5713C14.0755 61.5202 14.1182 61.4982 14.1944 61.5055C14.2572 61.5011 14.2899 61.5177 14.2925 61.5553L14.4491 63.7777C14.4863 64.305 14.1232 65.1508 13.3598 66.3149C14.4216 67.2369 15.006 68.4575 15.113 69.9768C15.1687 70.7677 15.0901 71.442 14.877 71.9996C14.6514 72.5581 14.3344 72.9842 13.9261 73.2779C13.5169 73.5591 13.0675 73.7169 12.5778 73.7514C11.8747 73.801 11.244 73.6246 10.6857 73.2223C10.1265 72.8074 9.51639 72.2069 8.85534 71.4207C8.53226 71.6706 8.2312 71.8748 7.95215 72.0332C7.21192 72.4513 6.54047 72.6815 5.9378 72.724C5.3728 72.7638 4.84874 72.6682 4.36561 72.4373C3.88159 72.1938 3.48466 71.8432 3.17482 71.3856C2.8641 70.9154 2.68618 70.3601 2.64106 69.7198C2.59683 69.092 2.7099 68.5478 2.98027 68.0871C3.23809 67.6273 3.69344 67.3744 4.34633 67.3284C4.83599 67.2939 5.29056 67.3881 5.71003 67.6109C6.11695 67.8346 6.4839 68.1179 6.81088 68.4607C7.12532 68.8045 7.51182 69.2757 7.97038 69.8743L8.22027 70.1974C9.58613 69.1674 10.8793 67.7325 12.0998 65.8926C11.371 65.5781 10.5672 65.4517 9.68831 65.5136C9.18609 65.549 8.82277 65.6756 8.59837 65.8933C8.36053 66.0993 8.26019 66.466 8.29734 66.9933C8.3 67.031 8.2641 67.0587 8.18965 67.0766C8.11432 67.0819 8.07488 67.0594 8.07134 67.0092L7.76854 62.9802C7.765 62.93 7.8009 62.9022 7.87623 62.8969C7.95157 62.8916 7.991 62.9141 7.99454 62.9643C8.02373 63.3786 8.08979 63.6894 8.19272 63.8967C8.28221 64.0923 8.40538 64.2287 8.56224 64.306C8.7191 64.3832 8.95757 64.4548 9.27765 64.5205C10.4818 64.7764 11.4907 65.128 12.3046 65.5754C12.803 64.7706 13.2042 64.0168 13.508 63.314C13.8117 62.6113 13.9979 62.0303 14.0665 61.5713ZM4.91121 71.585C5.89054 71.516 6.90921 71.1099 7.96721 70.3666C7.41988 69.7616 6.90199 69.306 6.41355 68.9998C5.91167 68.6818 5.35939 68.5441 4.75673 68.5865C4.20428 68.6254 3.78129 68.8004 3.48775 69.1112C3.1942 69.4221 3.06468 69.8224 3.09918 70.3121C3.16465 71.2412 3.76866 71.6655 4.91121 71.585ZM14.4238 69.06C14.3539 68.0681 13.936 67.2396 13.1699 66.5743C13.0684 66.7455 12.9655 66.8979 12.8614 67.0314C12.3118 67.8272 11.7098 68.5951 11.0553 69.3352C10.4 70.0627 9.74384 70.6894 9.0869 71.2151C9.49542 71.6406 9.91568 71.9643 10.3477 72.1862C10.7672 72.409 11.2343 72.5023 11.7491 72.466C12.2639 72.4298 12.738 72.2639 13.1714 71.9684C13.5914 71.6612 13.9159 71.2535 14.1451 70.7452C14.3743 70.237 14.4672 69.6753 14.4238 69.06Z" fill="#725671"/>
<path d="M18.1622 44.6558C18.1757 44.6073 18.2188 44.5931 18.2915 44.6134C18.3643 44.6336 18.3939 44.668 18.3804 44.7165C18.3164 44.9469 18.2048 45.3012 18.0456 45.7795C17.8865 46.2579 17.7749 46.6122 17.7108 46.8426C17.6332 47.1215 17.5492 47.4705 17.4588 47.8896C17.3752 48.2843 17.303 48.5909 17.2423 48.8092C17.2288 48.8577 17.1857 48.8718 17.1129 48.8516C17.0402 48.8313 17.0105 48.797 17.024 48.7485C17.1454 48.3119 17.195 47.9926 17.1728 47.7904C17.1419 47.5728 17.0234 47.4353 16.8172 47.378C16.6353 47.3274 16.3389 47.3365 15.9279 47.4051L12.2186 48.059L11.0097 52.4063L13.2032 54.1724C13.5232 54.4312 13.8348 54.6028 14.1379 54.6871C14.9019 54.8995 15.4474 54.4176 15.7746 53.2413C15.7914 53.1807 15.8362 53.1605 15.909 53.1807C15.9817 53.201 16.0097 53.2414 15.9928 53.302C15.9321 53.5203 15.8323 53.8322 15.6934 54.2378C15.541 54.6918 15.4176 55.0886 15.3232 55.4282C15.2389 55.7313 15.1481 56.1046 15.051 56.5479C14.9741 56.9184 14.9002 57.231 14.8294 57.4857C14.8125 57.5463 14.7677 57.5665 14.6949 57.5463C14.6222 57.526 14.5942 57.4856 14.6111 57.425C14.7055 57.0854 14.7241 56.7836 14.667 56.5195C14.601 56.2398 14.4347 55.9454 14.168 55.6361C13.9012 55.3267 13.4897 54.951 12.9333 54.5089L5.01482 48.1723C4.98519 48.1379 4.98049 48.0844 5.00072 48.0116C5.02095 47.9389 5.05095 47.9015 5.0907 47.8995L15.3168 46.079C16.3167 45.9128 17.0148 45.7281 17.411 45.5247C17.8072 45.3213 18.0576 45.0317 18.1622 44.6558ZM10.6732 52.1364L11.7861 48.1347L6.79733 49.0207L10.6732 52.1364Z" fill="#725671"/>
<path d="M20.2248 40.8709C20.5495 40.2737 20.8385 39.7997 21.0917 39.4491C21.3338 39.0926 21.6561 38.8275 22.0585 38.6537C22.478 38.4745 22.9557 38.5243 23.4918 38.8029C24.106 39.1223 24.5739 39.6138 24.8956 40.2775C25.2173 40.9412 25.3661 41.6782 25.342 42.4885C25.3237 43.2876 25.1288 44.0445 24.7572 44.7592C24.3623 45.5186 23.8672 46.0343 23.2718 46.3064C22.6933 46.5731 22.1361 46.5671 21.6 46.2885C20.7848 45.8647 20.2768 44.8771 20.0762 43.3258C19.8001 43.693 19.5147 43.9418 19.2199 44.0723C18.9251 44.2028 18.6046 44.178 18.2584 43.998C17.9234 43.8239 17.6712 43.5722 17.5019 43.243C17.3272 42.8968 17.1909 42.4359 17.0931 41.8601C16.7 42.1523 16.2779 42.323 15.8267 42.3721C15.3644 42.4155 14.9322 42.3327 14.5302 42.1237C13.8936 41.7928 13.5078 41.2659 13.3729 40.5432C13.2438 39.8094 13.3824 39.0516 13.7889 38.2699C14.1547 37.5663 14.6297 37.0756 15.214 36.7977C15.1978 36.3921 15.2177 36.0265 15.2735 35.7009C15.3182 35.3695 15.4247 35.0418 15.5931 34.718C15.6105 34.6845 15.6668 34.6854 15.7619 34.7206C15.8517 34.7389 15.9469 34.7742 16.0474 34.8265C16.1814 34.8961 16.3123 34.9855 16.44 35.0944C16.5678 35.2034 16.6089 35.2744 16.5633 35.3075C16.21 35.5778 15.9288 35.9139 15.7198 36.3159C15.6385 36.4723 15.5831 36.5924 15.5537 36.6764C16.1473 36.5169 16.7122 36.5765 17.2482 36.8551C17.6502 37.0641 17.9578 37.373 18.1709 37.7817C18.384 38.1904 18.4836 38.6536 18.4698 39.1713C18.4618 39.6778 18.3243 40.1879 18.0572 40.7016C17.8772 41.0478 17.6384 41.3705 17.341 41.6698C17.404 41.9579 17.4904 42.1873 17.6003 42.3579C17.7102 42.5285 17.8601 42.6632 18.0499 42.7619C18.3068 42.8954 18.5429 42.9188 18.7582 42.8322C18.9735 42.7455 19.1961 42.5491 19.4262 42.2432C19.645 41.9314 19.9112 41.4739 20.2248 40.8709ZM13.8304 38.8447C13.6388 39.2132 13.6136 39.5619 13.7548 39.8906C13.8848 40.2135 14.2011 40.5056 14.7036 40.7669C15.195 41.0224 15.6629 41.1592 16.1074 41.1775C16.5577 41.1846 16.9474 41.1035 17.2766 40.9342C17.5946 40.759 17.832 40.5207 17.9888 40.2192C18.1746 39.8618 18.1942 39.5103 18.0477 39.1646C17.8958 38.8019 17.5518 38.4812 17.0158 38.2026C16.3346 37.8484 15.7 37.7455 15.1122 37.8939C14.519 38.0252 14.0917 38.3422 13.8304 38.8447ZM24.6298 43.7354C25.013 42.9984 25.1226 42.2964 24.9587 41.6296C24.8059 40.9685 24.3944 40.4638 23.7244 40.1155C23.2777 39.8832 22.893 39.8181 22.5705 39.9199C22.248 40.0218 21.966 40.2369 21.7243 40.5652C21.4885 40.8824 21.1995 41.3563 20.8574 41.9871C20.6251 42.4338 20.4456 42.7518 20.3187 42.9412C20.3679 43.3924 20.4771 43.7825 20.6464 44.1117C20.8327 44.4355 21.1269 44.7019 21.5289 44.9109C22.1431 45.2303 22.725 45.2845 23.2744 45.0736C23.8238 44.8627 24.2756 44.4167 24.6298 43.7354Z" fill="#725671"/>
<path d="M27.8534 30.4483C27.8765 30.4185 27.9178 30.4266 27.9775 30.4727C28.0371 30.5187 28.0555 30.5567 28.0324 30.5865C27.8405 30.8351 27.6858 31.0252 27.5683 31.1567L26.9315 31.9506L26.3245 32.7675C26.2269 32.9144 26.086 33.1071 25.9017 33.3458C25.8787 33.3756 25.8373 33.3675 25.7777 33.3214C25.718 33.2753 25.6997 33.2374 25.7227 33.2076C25.9224 32.949 26.0434 32.7409 26.0858 32.5832C26.126 32.4079 26.0918 32.2466 25.9833 32.0993C25.8725 31.9345 25.673 31.7407 25.3846 31.5181L23.013 29.687C22.4363 29.2417 21.9292 29.0248 21.4918 29.0362C21.0521 29.03 20.6519 29.2606 20.291 29.728C20.0683 30.0163 19.9126 30.3722 19.8237 30.7956C19.7425 31.2091 19.7402 31.6437 19.8167 32.0996L23.0235 34.5756C23.3119 34.7982 23.546 34.9473 23.7259 35.0226C23.9035 35.0804 24.072 35.0677 24.2315 34.9845C24.3811 34.8936 24.5556 34.7189 24.7553 34.4604C24.7783 34.4306 24.8197 34.4387 24.8793 34.4848C24.939 34.5308 24.9573 34.5688 24.9343 34.5986C24.7423 34.8472 24.5876 35.0372 24.4702 35.1688L23.8333 35.9627L23.2263 36.7796C23.1287 36.9264 22.9878 37.1192 22.8036 37.3578C22.7805 37.3877 22.7392 37.3796 22.6795 37.3335C22.6198 37.2874 22.6015 37.2495 22.6246 37.2196C22.8242 36.9611 22.9452 36.753 22.9877 36.5953C23.0278 36.42 22.9936 36.2587 22.8851 36.1114C22.7744 35.9465 22.5748 35.7528 22.2864 35.5301L19.363 33.2729C19.0348 33.0196 18.7655 32.8751 18.5549 32.8395C18.3443 32.8039 18.1699 32.8755 18.0317 33.0545C17.9165 33.2037 17.7876 33.5247 17.645 34.0178L17.6335 34.0327C17.6028 34.0724 17.5599 34.0869 17.5047 34.0761C17.4397 34.0576 17.4125 34.0208 17.4234 33.9656L17.9403 31.5079L17.9945 31.4069C18.0713 31.3075 18.2586 31.3013 18.5564 31.3884C18.852 31.4579 19.1875 31.6297 19.5631 31.9038C19.2685 30.5177 19.4283 29.4269 20.0425 28.6315C20.4648 28.0846 20.9503 27.7848 21.4988 27.7322C22.055 27.6697 22.6265 27.8649 23.2132 28.3178L26.1217 30.5635C26.4101 30.7862 26.6442 30.9352 26.8241 31.0106C27.0017 31.0683 27.1702 31.0556 27.3297 30.9724C27.4792 30.8816 27.6538 30.7069 27.8534 30.4483Z" fill="#725671"/>
<path d="M32.4947 25.0151C32.5225 24.9895 32.5627 24.9866 32.6153 25.0065C32.6687 25.0086 32.6989 25.032 32.7061 25.0769C32.5993 26.2038 32.1714 27.1132 31.4226 27.8051C30.8772 28.3091 30.2993 28.6203 29.6889 28.7387C29.07 28.8479 28.4709 28.7931 27.8917 28.5742C27.3039 28.3462 26.7922 27.9965 26.3565 27.525C25.8525 26.9796 25.5206 26.3609 25.3609 25.6687C25.2104 24.9681 25.242 24.2791 25.4558 23.6017C25.661 22.9151 26.0364 22.3198 26.5818 21.8158C27.118 21.3204 27.6529 21.0832 28.1865 21.1042C28.7208 21.1075 29.2229 21.3633 29.6927 21.8718C29.9234 22.1213 29.9832 22.2974 29.8723 22.3999L26.46 25.5785C26.6295 25.799 26.7655 25.9647 26.868 26.0756C27.6112 26.8798 28.3987 27.3518 29.2304 27.4915C30.0622 27.6312 30.8248 27.3807 31.5181 26.7401C31.7954 26.4838 31.9967 26.2379 32.1217 26.0024C32.2475 25.749 32.3672 25.4242 32.4809 25.0279L32.4947 25.0151ZM26.3666 22.5287C25.9783 22.8875 25.7833 23.3162 25.7814 23.8149C25.771 24.3044 25.9467 24.819 26.3084 25.3588L28.7809 22.9714C28.3452 22.4999 27.9192 22.2337 27.503 22.1728C27.0874 22.094 26.7087 22.2127 26.3666 22.5287Z" fill="#725671"/>
<path d="M31.9903 19.1379C32.2342 19.4888 32.5451 19.6937 32.9228 19.7526C33.3005 19.8116 33.799 19.8019 34.4181 19.7236C34.9085 19.6583 35.3036 19.621 35.6033 19.6116C35.903 19.6023 36.204 19.661 36.5063 19.7876C36.8015 19.9039 37.0567 20.1169 37.2719 20.4265C37.6379 20.9529 37.7539 21.5381 37.6199 22.1823C37.486 22.8265 37.0733 23.3889 36.3818 23.8695C36.1134 24.0561 35.8303 24.1993 35.5323 24.2992C35.2447 24.392 34.9197 24.4419 34.5571 24.4489C34.4665 24.4507 34.3925 24.4103 34.3351 24.3277L33.4324 23.0952C33.4109 23.0643 33.4259 23.0309 33.4775 22.995C33.5323 22.9416 33.5756 22.9268 33.6074 22.9506C34.152 23.3375 34.6898 23.5607 35.221 23.6201C35.745 23.6692 36.2134 23.5503 36.6263 23.2633C36.9256 23.0553 37.1076 22.8216 37.1723 22.5623C37.237 22.303 37.1689 22.0289 36.968 21.7399C36.681 21.3271 36.3435 21.0948 35.9554 21.0431C35.5705 20.9739 35.0633 20.982 34.4338 21.0674C33.9609 21.1359 33.5798 21.1712 33.2904 21.1733C33.001 21.1755 32.7088 21.1184 32.4136 21.0021C32.1287 20.8786 31.8751 20.6569 31.6527 20.3369C31.2581 19.7693 31.1668 19.1975 31.3787 18.6216C31.5938 18.0281 31.9955 17.5269 32.5839 17.118C32.9967 16.8311 33.4376 16.6394 33.9064 16.5432C34.028 16.5199 34.1139 16.5444 34.1642 16.6166C34.3148 16.8333 34.428 17.0072 34.5038 17.1382L34.9511 17.8147C34.9655 17.8353 34.9417 17.8672 34.8797 17.9102C34.8178 17.9533 34.7797 17.9645 34.7653 17.9438C34.5429 17.6239 34.1666 17.4569 33.6363 17.4428C33.1091 17.4112 32.6494 17.5317 32.2572 17.8043C32.0095 17.9765 31.8565 18.1747 31.7981 18.399C31.7397 18.6233 31.8037 18.8696 31.9903 19.1379Z" fill="#725671"/>
<path d="M44.834 17.5688C44.8678 17.5518 44.9072 17.5602 44.9523 17.5939C45.003 17.6106 45.0256 17.6415 45.02 17.6866C44.6058 18.7401 43.9432 19.4958 43.0323 19.9537C42.3688 20.2872 41.7274 20.4265 41.1081 20.3715C40.4831 20.3053 39.9226 20.087 39.4264 19.7166C38.9246 19.3349 38.5295 18.8573 38.2411 18.2838C37.9076 17.6203 37.7597 16.934 37.7975 16.2246C37.8466 15.5097 38.0675 14.8563 38.4603 14.2644C38.8474 13.6613 39.3727 13.1929 40.0361 12.8594C40.6884 12.5315 41.268 12.4515 41.775 12.6192C42.2876 12.7701 42.6993 13.1548 43.0103 13.7733C43.163 14.0769 43.1718 14.2626 43.0369 14.3305L38.8788 16.4418C38.9807 16.7005 39.0656 16.8974 39.1334 17.0323C39.6253 18.0107 40.2516 18.6819 41.0123 19.0462C41.773 19.4104 42.5751 19.3805 43.4185 18.9565C43.7559 18.7869 44.0173 18.6062 44.2026 18.4145C44.3935 18.2058 44.5984 17.9267 44.8172 17.5773L44.834 17.5688ZM39.6322 13.4851C39.1599 13.7225 38.8539 14.0806 38.7142 14.5593C38.5689 15.0269 38.5954 15.57 38.7938 16.1887L41.83 14.5779C41.5416 14.0044 41.2059 13.6308 40.8227 13.4572C40.4452 13.2666 40.0483 13.2759 39.6322 13.4851Z" fill="#725671"/>
<path d="M63.3308 13.9811C63.3825 13.9849 63.4086 14.0252 63.409 14.1017C63.4196 14.1637 63.4064 14.198 63.3692 14.2044L61.1735 14.5816C60.6525 14.6711 59.7748 14.3941 58.5403 13.7505C57.7287 14.8989 56.5724 15.602 55.0714 15.8599C54.2899 15.9942 53.6112 15.9831 53.0351 15.8267C52.4569 15.6578 52.0014 15.3849 51.6684 15.0079C51.3478 14.6288 51.1459 14.1973 51.0628 13.7135C50.9434 13.0188 51.0561 12.3737 51.4007 11.7781C51.7578 11.1804 52.2945 10.5134 53.0109 9.77735C52.73 9.48078 52.4969 9.20156 52.3114 8.9397C51.8216 8.24481 51.5256 7.59965 51.4232 7.00422C51.3273 6.446 51.3702 5.91503 51.5518 5.41129C51.7458 4.90542 52.0551 4.47553 52.4796 4.12163C52.9165 3.7656 53.4512 3.53324 54.0839 3.42454C54.7041 3.31797 55.2569 3.37624 55.7423 3.59936C56.2255 3.81007 56.5225 4.23795 56.6333 4.883C56.7165 5.36679 56.6681 5.82848 56.4882 6.26806C56.3062 6.69524 56.0609 7.08859 55.7523 7.44812C55.4416 7.79524 55.0113 8.22676 54.4614 8.74269L54.1648 9.02353C55.3258 10.28 56.8825 11.4237 58.8349 12.4548C59.0752 11.6983 59.1208 10.8859 58.9716 10.0175C58.8863 9.52133 58.7242 9.17244 58.4852 8.97085C58.2565 8.75472 57.8816 8.69142 57.3606 8.78094C57.3234 8.78733 57.2922 8.75438 57.267 8.68208C57.2542 8.60765 57.2727 8.56617 57.3223 8.55765L61.301 7.85486C61.3507 7.84634 61.3819 7.87929 61.3947 7.95372C61.4074 8.02815 61.389 8.06963 61.3394 8.07815C60.9301 8.14849 60.6274 8.24519 60.4314 8.36826C60.2457 8.47679 60.1223 8.61294 60.061 8.77672C59.9998 8.9405 59.9524 9.18491 59.9188 9.50995C59.7843 10.7336 59.535 11.7725 59.1709 12.6269C60.0214 13.0427 60.8115 13.3667 61.541 13.5989C62.2706 13.8312 62.8672 13.9586 63.3308 13.9811ZM52.4542 5.86924C52.6205 6.83682 53.1262 7.80994 53.9712 8.7886C54.5186 8.18371 54.9203 7.623 55.1764 7.10647C55.4427 6.57541 55.5247 6.01216 55.4224 5.41673C55.3286 4.87092 55.1124 4.46746 54.7738 4.20636C54.4352 3.94526 54.024 3.85628 53.5402 3.9394C52.6222 4.09712 52.2603 4.7404 52.4542 5.86924ZM55.9149 15.0828C56.8949 14.9145 57.6777 14.416 58.2632 13.5874C58.0828 13.5035 57.9209 13.4164 57.7777 13.326C56.9311 12.8585 56.107 12.336 55.3053 11.7585C54.5161 11.179 53.8271 10.5885 53.2385 9.98727C52.8559 10.4361 52.5757 10.8866 52.398 11.3386C52.2181 11.7781 52.1718 12.2522 52.2592 12.7608C52.3466 13.2694 52.5589 13.7246 52.8962 14.1265C53.2437 14.5137 53.6817 14.7961 54.2103 14.9734C54.7389 15.1508 55.3071 15.1873 55.9149 15.0828Z" fill="#725671"/>
</g>
<defs>
<clipPath id="clip0_276_13751">
<rect width="130" height="130" fill="white"/>
</clipPath>
</defs>
</svg>
