<svg width="390" height="397" viewBox="0 0 390 397" fill="none" xmlns="http://www.w3.org/2000/svg">
<path fill-rule="evenodd" clip-rule="evenodd" d="M43.5568 375.946C43.5777 376.616 44.5282 376.314 45.413 375.968C46.2987 375.622 47.1194 375.233 47.724 375.19C48.3278 375.147 48.7169 375.449 48.9324 375.147C49.1479 374.845 49.1918 373.937 49.6234 373.332C50.0551 372.727 50.8758 372.424 51.4372 372.036C51.9985 371.647 52.3004 371.172 52.0634 370.588C51.8256 370.005 51.0488 369.314 51.0055 368.601C50.9623 367.889 51.6533 367.153 52.3653 367.046C53.0779 366.939 53.8122 367.456 54.3736 367.759C54.9349 368.061 55.3233 368.148 55.7765 368.148C56.2298 368.148 56.7479 368.061 57.4606 366.916C58.1732 365.771 59.0797 363.568 59.6634 361.97C60.2464 360.371 60.505 359.378 60.4618 358.6C60.4186 357.823 60.0734 357.261 60.0734 356.354C60.0734 355.446 60.4186 354.194 61.2609 352.315C62.1026 350.436 63.4414 347.93 64.3479 345.964C65.2552 343.998 65.73 342.572 66.0968 341.471C66.4636 340.37 66.723 339.592 67.2195 338.771C67.7153 337.95 68.4503 337.086 69.2062 336.33C69.9613 335.574 70.7381 334.926 71.4731 334.278C72.2074 333.63 72.8977 332.981 73.2868 332.334C73.6752 331.686 73.7617 331.038 73.3517 330.477C72.941 329.915 72.0345 329.44 72.0993 328.77C72.1642 328.1 73.2004 327.237 73.1787 326.782C73.1579 326.329 72.0777 326.286 71.3874 325.94C70.697 325.594 70.3944 324.947 70.4376 324.234C70.4809 323.522 70.8693 322.744 70.589 322.506C70.3079 322.269 69.3582 322.571 67.9768 322.333C66.5955 322.096 64.7817 321.319 64.242 320.779C63.7023 320.238 64.4366 319.936 65.2782 319.526C66.1199 319.116 67.0696 318.597 67.7174 317.582C68.3652 316.567 68.7111 315.055 68.603 313.802C68.4957 312.549 67.9336 311.556 66.9406 311.058C65.9476 310.562 64.523 310.562 63.6814 311.037C62.839 311.512 62.5803 312.463 61.9325 313.003C61.2847 313.543 60.2492 313.673 59.0617 313.564C57.8742 313.456 56.536 313.11 55.6721 312.592C54.8088 312.073 54.4197 311.382 54.0745 310.043C53.7294 308.704 53.4267 306.717 53.2538 305.507C53.0808 304.297 53.0376 303.865 52.6492 303.93C52.2608 303.995 51.5265 304.557 50.7713 304.578C50.0154 304.599 49.2387 304.082 48.5044 303.973C47.7694 303.865 47.079 304.167 46.2158 304.448C45.3518 304.729 44.3156 304.988 43.6253 305.441C42.9342 305.896 42.5891 306.543 42.308 307.126C42.027 307.71 41.8115 308.228 41.4232 308.639C41.034 309.048 40.4727 309.351 40.4086 309.697C40.3437 310.043 40.7753 310.432 40.8618 310.864C40.9483 311.296 40.6889 311.771 39.9337 311.641C39.1778 311.511 37.9254 310.777 37.0621 310.669C36.1989 310.561 35.7233 311.079 35.3565 311.727C34.9897 312.376 34.7303 313.153 34.2987 313.736C33.8671 314.32 33.2625 314.709 32.8309 314.536C32.3992 314.363 32.1398 313.628 31.5785 313.174C31.0171 312.72 30.1531 312.548 29.5277 312.807C28.9022 313.065 28.5131 313.757 28.2321 314.275C27.9518 314.794 27.7788 315.139 27.9734 315.572C28.1679 316.003 28.7286 316.522 28.8799 316.998C29.0312 317.473 28.7718 317.905 28.1896 317.775C27.6066 317.645 26.6994 316.954 25.8145 316.695C24.9296 316.436 24.0663 316.609 23.5915 316.976C23.1166 317.344 23.0301 317.905 22.9011 318.553C22.7714 319.201 22.5985 319.936 22.7714 320.432C22.9444 320.928 23.4618 321.188 23.8941 321.707C24.3258 322.225 24.6716 323.002 25.3836 323.522C26.0955 324.04 27.1757 324.299 28.0606 324.709C28.9462 325.119 29.6365 325.682 29.9817 326.502C30.3275 327.322 30.3275 328.403 30.1114 329.116C29.8959 329.829 29.4643 330.174 28.8165 330.109C28.1686 330.044 27.3054 329.569 26.7008 328.899C26.0962 328.229 25.7511 327.366 25.3187 327.128C24.8871 326.891 24.369 327.279 24.2177 328.1C24.0663 328.922 24.2825 330.174 24.3683 331.405C24.4547 332.637 24.4115 333.846 24.0663 335.099C23.7212 336.352 23.0734 337.647 23.2024 338.166C23.3321 338.685 24.2386 338.425 24.9945 338.122C25.7504 337.82 26.3542 337.475 27.1966 336.546C28.0382 335.616 29.1184 334.105 30.262 333.241C31.4055 332.377 32.6154 332.161 33.2409 332.549C33.8663 332.938 33.9103 333.932 33.7374 334.645C33.5644 335.357 33.176 335.789 33.9528 335.919C34.7296 336.049 36.673 335.876 37.5579 334.904C38.4428 333.932 38.2706 332.161 37.6444 330.994C37.0182 329.829 35.9388 329.267 35.4423 328.467C34.9458 327.669 35.0323 326.631 35.2477 325.529C35.4632 324.429 35.809 323.261 36.3488 322.808C36.8885 322.354 37.6228 322.613 38.3996 323.218C39.1764 323.823 39.9971 324.773 40.3214 325.724C40.6449 326.674 40.472 327.625 41.1846 328.619C41.8973 329.613 43.4948 330.649 44.1427 331.6C44.7897 332.55 44.4878 333.415 43.8616 334.041C43.2354 334.667 42.285 335.056 42.156 335.51C42.027 335.963 42.7173 336.482 43.02 337.13C43.3219 337.777 43.2354 338.556 42.7389 339.571C42.2425 340.586 41.3352 341.839 40.4078 343.157C39.479 344.474 38.5293 345.857 37.2992 346.699C36.0685 347.542 34.5574 347.844 33.715 348.449C32.8727 349.054 32.7004 349.961 32.5923 351.667C32.4843 353.374 32.441 355.88 32.9807 357.305C33.5205 358.73 34.6431 359.076 35.1829 359.789C35.7226 360.501 35.6793 361.581 35.2902 362.618C34.9018 363.655 34.1675 364.649 33.3475 365.102C32.5275 365.556 31.6203 365.469 31.2751 366.096C30.9299 366.722 31.1454 368.062 32.1168 369.098C33.0881 370.134 34.8154 370.869 36.6291 371.388C38.4428 371.907 40.3423 372.209 40.7739 371.604C41.2055 370.999 40.1693 369.487 39.6512 368.018C39.1331 366.549 39.1331 365.123 39.6512 363.677C40.1693 362.229 41.2055 360.761 42.2634 360.027C43.3212 359.292 44.4006 359.292 45.1565 359.659C45.9117 360.027 46.344 360.761 45.9549 361.495C45.5658 362.23 44.3574 362.965 43.6015 363.828C42.8456 364.692 42.5437 365.685 42.8888 366.593C43.234 367.5 44.227 368.321 44.7458 369.207C45.2639 370.093 45.3071 371.043 44.8755 372.338C44.4417 373.635 43.5352 375.277 43.5568 375.946ZM361.536 31.1314C360.856 32.0924 360.402 33.2373 359.626 33.8746C358.849 34.512 357.748 34.641 356.959 34.4903C356.172 34.3389 355.697 33.9071 355.47 33.065C355.244 32.2229 355.265 30.9692 355.675 30.0514C356.085 29.1336 356.884 28.5496 357.813 27.9988C358.741 27.448 359.799 26.9296 360.123 26.3356C360.446 25.7415 360.036 25.0717 359.529 24.5317C359.022 23.9917 358.417 23.5815 358.525 23.247C358.633 22.9124 359.453 22.6529 360.198 22.3825C360.943 22.1122 361.612 21.8317 361.99 21.3133C362.367 20.795 362.454 20.0387 362.777 19.6393C363.102 19.2391 363.663 19.1966 364.203 18.6242C364.742 18.0517 365.261 16.9501 365.693 16.1181C366.125 15.2868 366.47 14.7245 367.269 14.0987C368.067 13.4722 369.32 12.7815 370.259 11.9712C371.198 11.1615 371.824 10.2322 372.072 9.20627C372.321 8.18035 372.191 7.05781 372.439 6.39813C372.688 5.73917 373.314 5.54452 374.005 5.93383C374.695 6.32243 375.451 7.29429 376.412 7.67279C377.373 8.05057 378.539 7.83428 379.834 6.87324C381.129 5.9122 382.554 4.20569 383.817 3.02837C385.08 1.85104 386.181 1.2029 387.023 1.0414C387.865 0.879184 388.448 1.20362 388.772 1.84022C389.095 2.47755 389.16 3.42778 389.095 4.38882C389.031 5.34986 388.836 6.32243 388.663 7.00229C388.491 7.68216 388.34 8.07148 387.411 8.51414C386.483 8.95681 384.778 9.45356 383.363 9.99356C381.949 10.5336 380.827 11.1168 379.888 11.7541C378.949 12.3915 378.193 13.0821 377.427 14.0115C376.66 14.9408 375.883 16.1066 375.224 17.0784C374.566 18.0503 374.026 18.8282 373.195 18.8606C372.364 18.8931 371.241 18.1801 370.431 18.0827C369.622 17.9854 369.125 18.5038 368.802 19.3249C368.478 20.1461 368.327 21.2686 367.971 22.079C367.615 22.8886 367.053 23.3861 366.459 23.9795C365.866 24.5735 365.24 25.2649 364.829 26.0529C364.419 26.8417 364.224 27.727 363.674 28.559C363.123 29.3924 362.216 30.1696 361.536 31.1314ZM331.453 51.3377C331.711 52.0068 332.23 52.9145 332.683 53.5193C333.137 54.1235 333.525 54.4263 334.022 54.3297C334.517 54.2324 335.123 53.7356 335.36 53.0118C335.597 52.2879 335.467 51.3377 335.608 50.6463C335.748 49.9556 336.159 49.5231 336.58 49.1669C337.001 48.81 337.433 48.5296 337.756 48.0653C338.081 47.6003 338.297 46.9528 338.631 46.4885C338.966 46.0242 339.42 45.7431 339.689 45.3004C339.959 44.8577 340.046 44.2528 340.218 43.7777C340.39 43.3026 340.65 42.9573 341.092 42.568C341.534 42.1794 342.161 41.7468 342.593 41.2068C343.025 40.6668 343.262 40.0186 343.564 39.5543C343.867 39.09 344.234 38.8096 344.806 38.5068C345.379 38.2047 346.156 37.8803 346.9 37.4701C347.645 37.0598 348.357 36.5631 349.037 35.9798C349.717 35.3966 350.365 34.7275 350.678 34.0577C350.991 33.388 350.969 32.7182 350.592 32.4918C350.215 32.2654 349.48 32.481 348.778 32.7081C348.076 32.9352 347.407 33.1724 346.468 32.8912C345.529 32.6108 344.32 31.8112 343.36 31.6598C342.399 31.5084 341.687 32.0052 341.255 32.8372C340.823 33.6684 340.671 34.8349 340.305 36.0555C339.938 37.2761 339.355 38.5508 338.621 39.501C337.887 40.4505 337.002 41.0777 336.549 41.8225C336.095 42.568 336.073 43.4317 335.804 44.2096C335.534 44.9875 335.015 45.6782 334.433 46.3371C333.85 46.9961 333.202 47.6219 332.652 48.1943C332.101 48.7668 331.647 49.2851 331.421 49.7603C331.193 50.2361 331.193 50.6679 331.453 51.3377ZM352.783 50.6788C353.064 49.4365 353.884 48.097 355.05 47.3522C356.216 46.6068 357.727 46.4561 358.548 46.942C359.368 47.4279 359.497 48.5512 358.818 49.8259C358.138 51.0998 356.648 52.5259 355.547 53.2814C354.446 54.037 353.733 54.1235 353.248 53.5943C352.761 53.0651 352.503 51.9202 352.783 50.6788ZM343.759 58.2279C343.715 57.5581 344.061 56.9533 344.892 56.6944C345.723 56.4349 347.04 56.5214 347.461 57.0506C347.882 57.5798 347.407 58.5516 346.791 59.1781C346.176 59.8047 345.421 60.0851 344.827 59.8587C344.234 59.6316 343.801 58.8977 343.759 58.2279ZM335.335 63.6077C335.425 63.0447 335.641 62.2235 336.083 61.597C336.526 60.9705 337.195 60.5386 337.983 60.6251C338.772 60.7116 339.678 61.3158 339.819 62.0721C339.959 62.8276 339.333 63.7353 338.455 64.2119C337.577 64.6892 336.448 64.7353 335.864 64.6055C335.282 64.4765 335.245 64.1708 335.335 63.6077ZM240.218 115.661C240.747 115.337 241.461 115.294 241.892 115.034C242.324 114.775 242.474 114.299 242.453 113.749C242.431 113.198 242.237 112.572 242.441 112.032C242.647 111.492 243.251 111.038 243.844 110.541C244.438 110.045 245.022 109.505 245.507 108.976C245.993 108.446 246.381 107.928 246.986 107.885C247.591 107.841 248.411 108.273 249.318 108.651C250.224 109.029 251.218 109.353 251.898 109.58C252.578 109.806 252.945 109.936 253.398 109.85C253.851 109.764 254.391 109.461 254.995 108.996C255.601 108.532 256.27 107.906 256.475 107.323C256.679 106.74 256.421 106.199 256.01 105.811C255.601 105.421 255.039 105.184 254.423 104.979C253.808 104.774 253.139 104.601 252.621 104.363C252.103 104.125 251.735 103.823 251.293 103.261C250.851 102.7 250.332 101.879 249.858 101.231C249.383 100.583 248.95 100.108 248.443 99.8273C247.936 99.5461 247.353 99.4603 246.846 99.4928C246.338 99.5252 245.906 99.6759 245.561 99.784C245.216 99.8922 244.957 99.9564 244.547 99.73C244.137 99.5029 243.575 98.9845 242.916 98.4337C242.258 97.8829 241.502 97.2996 240.898 96.8353C240.293 96.371 239.839 96.0249 239.623 95.5722C239.408 95.1187 239.429 94.5571 239.754 93.6278C240.077 92.6992 240.703 91.4036 241.286 90.4635C241.869 89.5241 242.409 88.9408 243.283 88.6279C244.157 88.3143 245.366 88.2718 246.197 88.5414C247.029 88.8117 247.482 89.3943 248.044 90.0424C248.605 90.6906 249.275 91.4036 249.858 92.1375C250.441 92.8722 250.937 93.6278 251.38 94.1036C251.822 94.5794 252.21 94.7734 252.815 94.5578C253.419 94.3415 254.24 93.715 255.017 93.056C255.795 92.3971 256.529 91.7057 257.23 91.0583C257.932 90.4101 258.601 89.8052 259.475 89.1895C260.349 88.5738 261.428 87.9473 262.475 87.4938C263.522 87.0403 264.537 86.7592 265.562 86.7383C266.588 86.7166 267.624 86.9538 268.94 87.6236C270.257 88.2934 271.855 89.395 273.636 90.3993C275.418 91.4036 277.382 92.3113 279.066 93.175C280.75 94.0387 282.153 94.8599 283.557 95.6054C284.96 96.3501 286.363 97.0199 287.745 97.6356C289.127 98.2513 290.487 98.8129 291.728 99.6016C292.97 100.39 294.092 101.405 294.761 101.772C295.431 102.14 295.647 101.859 295.819 100.93C295.992 100.001 296.122 98.4243 296.273 97.1179C296.423 95.8108 296.596 94.7741 296.769 93.8347C296.942 92.8953 297.114 92.0525 297.697 90.7136C298.28 89.3741 299.274 87.5385 300.126 86.0808C300.979 84.623 301.691 83.5423 302.587 82.5704C303.483 81.5985 304.563 80.7341 305.62 79.8488C306.679 78.9627 307.714 78.0558 308.61 77.0623C309.506 76.0688 310.262 74.9888 311.06 74.5454C311.859 74.1027 312.701 74.2974 314.169 74.567C315.637 74.8374 317.731 75.1827 319.221 75.2476C320.711 75.3125 321.596 75.0969 321.811 74.513C322.027 73.9297 321.574 72.9795 321.661 72.4935C321.747 72.0076 322.373 71.9853 322.945 72.3097C323.517 72.6341 324.036 73.3032 324.596 73.3897C325.158 73.4762 325.762 72.9795 326.474 72.3854C327.187 71.7913 328.008 71.0999 328.493 70.5275C328.979 69.955 329.13 69.5016 330.037 69.2319C330.944 68.9616 332.606 68.8751 333.664 68.3999C334.722 67.9248 335.175 67.0611 335.402 66.3048C335.629 65.5485 335.629 64.9004 335.316 64.7814C335.002 64.6632 334.376 65.0734 333.47 65.0734C332.562 65.0734 331.375 64.6632 330.954 64.2631C330.533 63.8637 330.879 63.4751 330.857 62.9127C330.836 62.3511 330.447 61.6172 330.177 60.8392C329.907 60.0613 329.756 59.2409 329.886 58.7117C330.016 58.1825 330.426 57.9453 330.533 57.556C330.641 57.1674 330.447 56.6274 330.037 56.357C329.627 56.0867 329.001 56.0867 328.299 55.8819C327.598 55.6772 326.82 55.2662 326.453 54.3802C326.086 53.4948 326.129 52.1337 326.205 50.7299C326.28 49.3262 326.388 47.8785 327.003 46.7019C327.618 45.5246 328.741 44.6176 329.238 43.3862C329.736 42.1548 329.605 40.5997 329.433 39.1744C329.261 37.7491 329.044 36.4528 328.332 36.5609C327.62 36.6683 326.411 38.1809 325.396 39.6928C324.382 41.2053 323.561 42.7165 322.568 44.2723C321.575 45.8281 320.409 47.4265 318.984 48.4416C317.558 49.4567 315.875 49.8886 314.579 49.327C313.285 48.7653 312.377 47.2102 311.233 46.1302C310.089 45.0502 308.707 44.4453 307.93 44.6184C307.153 44.7907 306.98 45.7416 306.311 45.9572C305.641 46.1728 304.476 45.6551 303.461 45.6118C302.447 45.5686 301.583 46.0004 301.303 45.5253C301.022 45.0502 301.323 43.6674 300.849 42.9118C300.374 42.1563 299.122 42.0258 297.545 41.5723C295.969 41.1188 294.07 40.3409 292.062 39.1102C290.054 37.8788 287.939 36.194 286.255 34.4665C284.571 32.7384 283.319 30.967 281.829 28.8719C280.339 26.7768 278.612 24.3572 276.129 21.5058C273.646 18.6544 270.408 15.3712 268.465 13.6113C266.522 11.8508 265.873 11.6136 265.453 11.7758C265.032 11.938 264.837 12.4996 264.491 12.9855C264.146 13.4715 263.65 13.8824 263.099 13.9898C262.548 14.098 261.943 13.9033 261.448 14.1845C260.951 14.4657 260.562 15.2212 260.238 16.1181C259.914 17.0143 259.655 18.0517 259.601 19.0986C259.547 20.1461 259.698 21.2045 260.086 22.3393C260.476 23.4733 261.102 24.6824 261.878 25.9787C262.656 27.275 263.584 28.657 264.081 29.8884C264.577 31.1198 264.642 32.1998 264.588 33.269C264.535 34.3382 264.362 35.3966 264.243 36.5523C264.124 37.708 264.059 38.961 263.703 40.0734C263.347 41.1859 262.699 42.1577 262.31 42.7518C261.922 43.3459 261.792 43.5622 261.889 43.9075C261.987 44.2528 262.31 44.7287 262.461 45.4626C262.613 46.1965 262.591 47.1907 262.505 48.2491C262.418 49.3075 262.268 50.4307 262.116 51.2952C261.965 52.1589 261.814 52.7638 261.501 53.3687C261.187 53.9735 260.713 54.5777 260.011 55.0853C259.31 55.5935 258.381 56.003 257.95 56.587C257.517 57.1703 257.582 57.9258 257.68 58.8552C257.777 59.7845 257.906 60.8854 258.198 62.3114C258.49 63.7375 258.943 65.4865 259.019 66.8153C259.094 68.1433 258.792 69.051 258.523 69.839C258.252 70.627 258.015 71.2968 257.595 71.8368C257.173 72.3768 256.568 72.787 255.813 72.8843C255.057 72.9816 254.15 72.7654 253.471 72.4849C252.79 72.2037 252.337 71.8584 251.926 71.5455C251.516 71.2326 251.15 70.9514 250.717 71.0487C250.285 71.1461 249.789 71.6212 249.228 71.6969C248.667 71.7726 248.041 71.4489 247.318 70.8981C246.595 70.3473 245.774 69.5701 244.749 69.0834C243.723 68.5975 242.492 68.4028 241.553 68.4893C240.614 68.5759 239.967 68.9428 239.589 69.3321C239.211 69.7207 239.102 70.131 239.372 70.725C239.642 71.3191 240.29 72.0963 240.765 72.8742C241.24 73.6521 241.542 74.4293 241.726 75.1207C241.91 75.8121 241.974 76.417 241.833 77.13C241.693 77.8431 241.347 78.6635 240.981 79.2792C240.613 79.8949 240.225 80.3051 239.868 80.6613C239.512 81.0182 239.189 81.3203 239.059 81.7846C238.928 82.2496 238.993 82.8754 238.767 83.1349C238.541 83.3945 238.023 83.2856 237.612 83.0059C237.202 82.7247 236.899 82.2705 236.533 82.4442C236.165 82.6173 235.734 83.4161 235.421 83.9993C235.107 84.5826 234.913 84.9503 234.503 85.1334C234.093 85.3173 233.467 85.3173 232.895 85.2848C232.323 85.2524 231.805 85.1875 231.383 85.5436C230.962 85.9005 230.639 86.6777 230.606 87.4982C230.574 88.3186 230.833 89.1823 230.855 89.9927C230.877 90.803 230.66 91.5586 230.413 92.2284C230.165 92.8981 229.884 93.4807 229.647 93.9781C229.409 94.4749 229.214 94.8851 229.247 95.5116C229.28 96.1381 229.538 96.9802 230.219 97.7257C230.899 98.4712 232 99.1193 232.875 99.6045C233.749 100.09 234.397 100.415 234.936 101.235C235.475 102.056 235.908 103.374 236.123 104.281C236.339 105.188 236.339 105.685 236.128 106.35C235.918 107.014 235.497 107.846 235.152 108.656C234.807 109.466 234.536 110.255 234.24 111.107C233.942 111.96 233.619 112.879 233.624 113.781C233.63 114.682 233.964 115.568 234.396 116.232C234.828 116.896 235.357 117.339 235.918 117.631C236.479 117.923 237.073 118.063 237.59 117.965C238.109 117.868 238.552 117.533 238.946 117.063C239.34 116.593 239.689 115.985 240.218 115.661ZM249.147 12.9574C248.64 13.3842 248.434 14.0324 248.316 14.8204C248.197 15.6084 248.165 16.5377 248.397 17.1801C248.629 17.8232 249.126 18.1793 249.659 18.1145C250.194 18.0496 250.766 17.5636 251.214 16.8398C251.662 16.1159 251.986 15.1556 251.975 14.3294C251.964 13.5032 251.619 12.8118 251.042 12.5688C250.464 12.3259 249.654 12.5313 249.147 12.9574ZM253.049 18.8275C252.461 19.1195 251.997 19.4756 251.792 19.994C251.587 20.5124 251.64 21.1929 252.035 21.8303C252.429 22.4669 253.162 23.0617 254.01 23.2448C254.857 23.4279 255.818 23.2015 256.304 22.5152C256.79 21.8296 256.8 20.6847 256.514 19.8693C256.229 19.0539 255.645 18.5679 254.998 18.4382C254.35 18.3091 253.637 18.5362 253.049 18.8275ZM224.515 97.1662C224.007 97.3443 223.328 97.6788 222.869 98.2895C222.41 98.8994 222.172 99.7855 222.221 100.568C222.269 101.351 222.604 102.031 223.084 102.383C223.565 102.734 224.191 102.756 224.677 102.394C225.162 102.032 225.507 101.287 225.691 100.525C225.875 99.7639 225.897 98.9859 225.869 98.3868C225.843 97.787 225.766 97.3659 225.562 97.1662C225.356 96.9658 225.022 96.9881 224.515 97.1662ZM95.8557 250.328C94.733 250.728 93.9562 251.418 93.7076 252.099C93.4597 252.78 93.74 253.449 94.8627 253.849C95.9854 254.248 97.9504 254.378 99.0075 253.956C100.065 253.535 100.217 252.563 100.217 251.764C100.217 250.965 100.066 250.338 99.2561 250.079C98.4462 249.82 96.9783 249.928 95.8557 250.328ZM102.883 245.424C101.814 245.781 100.864 246.644 100.605 247.682C100.346 248.719 100.777 249.927 101.512 250.554C102.245 251.18 103.281 251.224 104.243 250.738C105.204 250.252 106.089 249.237 106.423 248.254C106.757 247.271 106.542 246.321 105.84 245.77C105.139 245.219 103.951 245.068 102.883 245.424ZM208.508 199.211C208.789 197.915 209.307 196.403 209.048 195.625C208.789 194.847 207.752 194.804 206.436 195.582C205.118 196.359 203.521 197.957 202.204 199.361C200.887 200.765 199.851 201.975 199.959 203.076C200.066 204.178 201.32 205.172 201.643 205.971C201.967 206.77 201.362 207.375 200.715 208.152C200.067 208.93 199.377 209.88 199.506 210.464C199.636 211.047 200.585 211.262 201.773 211.154C202.96 211.047 204.385 210.615 205.918 209.815C207.451 209.017 209.091 207.85 209.76 206.641C210.431 205.431 210.128 204.178 209.696 203.508C209.264 202.839 208.703 202.752 208.444 202.17C208.185 201.587 208.228 200.506 208.508 199.211ZM227.321 284.904C226.614 285.125 226.301 286.001 226.301 286.723C226.301 287.447 226.614 288.019 227.234 288.23C227.855 288.44 228.783 288.29 229.334 287.782C229.884 287.275 230.057 286.411 229.593 285.762C229.129 285.115 228.027 284.682 227.321 284.904ZM121.577 290.693C120.735 291.2 119.936 291.978 120.066 292.745C120.196 293.512 121.254 294.267 122.721 294.322C124.189 294.377 126.068 293.728 126.381 292.842C126.694 291.957 125.442 290.833 124.373 290.391C123.304 289.948 122.419 290.185 121.577 290.693ZM141.377 261.074C142.099 260.9 142.834 261.009 143.093 261.419C143.352 261.83 143.136 262.543 142.855 263.363C142.574 264.184 142.229 265.113 142.186 265.75C142.143 266.388 142.402 266.733 142.823 267.068C143.244 267.403 143.827 267.727 144.312 267.672C144.798 267.618 145.186 267.187 145.554 266.755C145.921 266.323 146.267 265.891 146.924 266.02C147.583 266.151 148.554 266.841 149.386 267.262C150.217 267.684 150.908 267.835 151.448 267.77C151.987 267.705 152.376 267.424 152.689 267.025C153.002 266.625 153.24 266.107 153.671 265.804C154.104 265.502 154.729 265.416 155.172 265.286C155.614 265.156 155.873 264.984 156.121 264.606C156.37 264.228 156.607 263.644 156.899 263.116C157.191 262.587 157.536 262.111 158.011 262.154C158.486 262.198 159.09 262.76 159.371 262.824C159.652 262.89 159.609 262.457 159.382 261.658C159.156 260.859 158.745 259.692 158.324 258.655C157.903 257.619 157.472 256.712 157.212 256.031C156.954 255.351 156.867 254.897 157.158 254.335C157.45 253.774 158.119 253.104 158.519 252.315C158.918 251.527 159.048 250.62 159.631 249.951C160.214 249.281 161.25 248.849 162.135 248.395C163.02 247.942 163.755 247.467 164.466 246.732C165.178 245.998 165.869 245.004 166.431 244.032C166.992 243.06 167.424 242.109 168.136 241.267C168.849 240.425 169.842 239.69 170.49 238.761C171.137 237.832 171.44 236.709 171.721 235.478C172.002 234.247 172.26 232.908 172.045 231.438C171.829 229.969 171.138 228.371 170.836 226.881C170.534 225.39 170.62 224.008 171.03 222.734C171.44 221.459 172.175 220.292 173.449 219.472C174.722 218.651 176.536 218.176 178.198 217.745C179.86 217.313 181.371 216.923 182.516 216.297C183.66 215.67 184.438 214.807 185.128 214.85C185.819 214.893 186.423 215.843 186.337 217.075C186.251 218.305 185.474 219.818 184.372 221.266C183.271 222.713 181.846 224.095 180.572 224.765C179.298 225.435 178.176 225.391 177.399 225.672C176.622 225.953 176.19 226.558 176.341 227.098C176.492 227.638 177.227 228.113 177.852 228.653C178.478 229.193 178.996 229.798 179.061 230.575C179.126 231.353 178.737 232.304 178.565 233.211C178.393 234.118 178.435 234.982 179.018 235.522C179.601 236.062 180.724 236.278 181.868 236.213C183.012 236.148 184.178 235.803 184.933 235.047C185.689 234.291 186.034 233.124 186.488 232.174C186.941 231.224 187.503 230.49 188.43 230.252C189.359 230.015 190.654 230.273 191.669 230.144C192.683 230.014 193.418 229.497 194.54 228.826C195.663 228.157 197.175 227.337 198.233 226.58C199.29 225.824 199.895 225.133 200.499 224.874C201.104 224.615 201.709 224.788 202.421 224.55C203.133 224.312 203.954 223.664 204.969 223.06C205.983 222.456 207.192 221.894 207.926 221.289C208.659 220.684 208.919 220.036 209.242 219.302C209.566 218.567 209.955 217.747 210.473 216.947C210.991 216.148 211.638 215.37 211.941 214.247C212.244 213.123 212.2 211.655 212.762 210.424C213.322 209.193 214.488 208.199 216 207.162C217.511 206.126 219.368 205.045 220.987 204.009C222.606 202.972 223.988 201.979 224.614 201.006C225.239 200.034 225.11 199.084 225.11 197.809C225.11 196.535 225.239 194.936 225.564 193.684C225.887 192.431 226.405 191.524 227.269 190.487C228.133 189.45 229.342 188.284 230.205 186.923C231.068 185.562 231.586 184.007 232.019 182.387C232.451 180.767 232.796 179.082 233.055 177.7C233.314 176.317 233.488 175.237 233.703 174.395C233.92 173.553 234.178 172.948 234.524 172.149C234.869 171.349 235.301 170.356 235.733 169.017C236.165 167.678 236.597 165.993 236.791 164.654C236.986 163.314 236.943 162.321 236.705 161.544C236.468 160.766 236.035 160.204 235.69 159.621C235.345 159.038 235.086 158.433 234.632 158.173C234.179 157.914 233.531 158 232.56 157.978C231.588 157.957 230.293 157.828 229.559 157.244C228.824 156.66 228.652 155.624 228.717 154.652C228.782 153.68 229.085 152.772 229.796 152.794C230.509 152.816 231.632 153.766 232.516 153.788C233.402 153.809 234.049 152.901 234.589 151.628C235.129 150.354 235.56 148.712 235.582 147.567C235.604 146.422 235.215 145.774 234.74 145.191C234.266 144.608 233.703 144.089 233.595 143.419C233.488 142.75 233.833 141.929 233.703 141.216C233.574 140.504 232.969 139.899 232.731 139.316C232.494 138.732 232.624 138.171 232.818 137.631C233.012 137.091 233.271 136.572 234.156 136.032C235.041 135.492 236.553 134.931 237.611 134.434C238.668 133.937 239.273 133.505 239.402 132.922C239.531 132.339 239.186 131.604 239.402 130.741C239.618 129.876 240.396 128.883 240.546 128.191C240.698 127.5 240.223 127.111 239.877 126.247C239.532 125.383 239.315 124.044 239.337 123.137C239.359 122.23 239.618 121.755 240.525 121.905C241.431 122.056 242.985 122.834 243.957 122.985C244.929 123.137 245.317 122.662 245.943 123.525C246.57 124.39 247.433 126.592 247.973 128.299C248.512 130.006 248.728 131.215 249.182 131.755C249.635 132.295 250.326 132.165 250.801 131.755C251.276 131.345 251.535 130.653 251.664 129.898C251.795 129.142 251.795 128.32 252.225 128.148C252.658 127.975 253.521 128.45 254.405 129.121C255.291 129.79 256.197 130.653 256.802 130.87C257.407 131.086 257.709 130.654 257.817 129.855C257.924 129.056 257.838 127.889 257.989 127.155C258.14 126.421 258.528 126.118 258.701 125.686C258.874 125.254 258.831 124.692 258.722 124.001C258.615 123.31 258.442 122.489 258.053 122.057C257.664 121.626 257.06 121.582 256.455 121.647C255.851 121.712 255.246 121.884 254.339 122.382C253.432 122.879 252.223 123.7 251.274 124.023C250.324 124.347 249.633 124.174 249.288 123.462C248.942 122.749 248.942 121.496 249.18 120.352C249.417 119.207 249.892 118.171 250.41 117.198C250.928 116.226 251.49 115.319 252.224 114.801C252.958 114.283 253.865 114.153 254.836 114.541C255.808 114.93 256.844 115.837 257.707 116.442C258.571 117.047 259.261 117.35 260.039 117.306C260.816 117.263 261.679 116.874 262.176 116.939C262.672 117.004 262.802 117.523 262.564 118.646C262.327 119.769 261.723 121.497 261.766 122.685C261.81 123.873 262.5 124.521 262.608 125.731C262.716 126.94 262.241 128.712 262.284 130.137C262.328 131.563 262.889 132.643 263.148 133.852C263.407 135.061 263.364 136.402 263.753 137.481C264.141 138.562 264.962 139.382 265.631 139.987C266.299 140.592 266.817 140.98 267.789 141.823C268.761 142.665 270.185 143.962 270.941 145.43C271.697 146.899 271.783 148.541 272.128 150.204C272.473 151.868 273.078 153.552 273.618 155.41C274.157 157.267 274.632 159.298 274.87 161.501C275.107 163.704 275.107 166.081 274.977 167.959C274.848 169.838 274.589 171.221 273.92 172.69C273.25 174.158 272.171 175.713 271.372 176.729C270.573 177.744 270.055 178.219 269.343 179.105C268.631 179.991 267.724 181.287 267.27 182.454C266.817 183.62 266.817 184.657 266.903 185.779C266.989 186.903 267.162 188.112 267.27 189.365C267.378 190.618 267.421 191.914 267.4 192.994C267.379 194.074 267.292 194.938 267.119 195.564C266.946 196.191 266.687 196.579 266.298 196.299C265.909 196.018 265.391 195.068 264.701 194.312C264.01 193.556 263.146 192.994 262.693 192.994C262.239 192.994 262.197 193.556 261.851 194.052C261.506 194.548 260.857 194.981 260.102 195.111C259.346 195.241 258.483 195.067 258.073 195.391C257.663 195.716 257.706 196.536 257.706 197.163C257.706 197.789 257.662 198.221 257.382 198.739C257.102 199.258 256.584 199.863 256.194 200.489C255.806 201.115 255.548 201.763 255.439 202.476C255.331 203.188 255.374 203.966 255.483 204.766C255.591 205.565 255.764 206.386 256.195 207.163C256.627 207.941 257.318 208.676 257.641 209.496C257.965 210.317 257.922 211.223 257.879 212.433C257.835 213.643 257.793 215.155 257.771 216.235C257.75 217.315 257.75 217.962 257.966 218.719C258.182 219.475 258.613 220.339 258.657 221.202C258.701 222.066 258.355 222.93 258.052 223.751C257.75 224.572 257.491 225.349 257.426 226.214C257.362 227.077 257.491 228.028 257.189 228.632C256.887 229.237 256.153 229.496 255.591 230.058C255.03 230.619 254.642 231.485 254.231 232.435C253.821 233.384 253.389 234.422 253.044 235.48C252.698 236.539 252.439 237.619 252.072 238.655C251.704 239.692 251.23 240.685 251.1 241.528C250.97 242.37 251.186 243.061 251.251 243.839C251.316 244.617 251.23 245.481 250.928 246.15C250.625 246.82 250.107 247.295 249.913 248.159C249.719 249.023 249.848 250.276 250.841 252.004C251.835 253.731 253.691 255.935 254.965 257.62C256.239 259.305 256.93 260.471 256.736 261.054C256.541 261.638 255.462 261.638 254.337 261.823C253.211 262.01 252.04 262.382 250.991 263.324C249.941 264.267 249.013 265.778 248.549 266.891C248.084 268.003 248.084 268.716 248.117 269.753C248.149 270.791 248.214 272.151 247.911 273.307C247.609 274.462 246.94 275.413 246.206 275.963C245.471 276.515 244.674 276.666 243.756 276.817C242.838 276.969 241.802 277.12 240.981 277.648C240.161 278.178 239.557 279.085 239.071 279.96C238.585 280.835 238.218 281.677 237.689 282.185C237.161 282.692 236.47 282.864 235.984 282.455C235.498 282.045 235.218 281.051 235.358 280.273C235.498 279.496 236.061 278.935 236.222 278.416C236.383 277.898 236.146 277.422 235.833 277.033C235.52 276.645 235.131 276.342 235.186 275.834C235.241 275.327 235.736 274.615 235.898 274.096C236.06 273.577 235.887 273.253 235.703 272.93C235.52 272.606 235.326 272.282 235.369 271.763C235.412 271.245 235.692 270.532 236.394 269.603C237.096 268.675 238.218 267.53 239.06 266.709C239.902 265.887 240.463 265.391 240.528 264.861C240.593 264.333 240.161 263.771 239.751 263.404C239.341 263.037 238.952 262.864 238.24 262.972C237.528 263.079 236.491 263.469 235.8 263.922C235.109 264.376 234.763 264.894 234.462 265.379C234.16 265.866 233.901 266.319 233.374 266.781C232.848 267.242 232.054 267.712 231.604 268.174C231.153 268.636 231.045 269.09 231.067 269.716C231.088 270.342 231.239 271.142 231.531 271.682C231.823 272.222 232.254 272.503 232.459 272.881C232.664 273.258 232.643 273.734 232.481 274.338C232.319 274.943 232.017 275.677 231.574 276.185C231.132 276.692 230.548 276.974 230.041 276.984C229.533 276.994 229.102 276.736 229.124 276.239C229.145 275.743 229.62 275.007 229.76 274.447C229.901 273.885 229.707 273.496 228.919 273.108C228.13 272.719 226.749 272.33 226.077 272.15C225.405 271.969 225.443 271.995 225.139 272.203C224.833 272.411 224.185 272.8 223.743 273.167C223.3 273.535 223.063 273.88 222.9 274.355C222.738 274.83 222.652 275.435 222.458 275.953C222.263 276.472 221.962 276.904 221.649 277.487C221.335 278.071 221.012 278.805 221.152 279.442C221.293 280.079 221.897 280.619 222.167 281.278C222.437 281.937 222.372 282.715 222.08 283.427C221.789 284.14 221.271 284.788 220.774 285.328C220.278 285.868 219.803 286.301 219.532 286.894C219.263 287.488 219.198 288.244 218.885 288.611C218.572 288.979 218.01 288.957 217.665 289.184C217.32 289.411 217.19 289.887 216.791 290.264C216.391 290.642 215.723 290.923 215.118 290.567C214.514 290.21 213.974 289.217 213.704 288.255C213.434 287.294 213.434 286.365 213.499 285.36C213.564 284.355 213.693 283.276 213.812 282.293C213.931 281.311 214.039 280.425 214.503 279.938C214.967 279.452 215.787 279.366 216.08 279.139C216.371 278.913 216.133 278.546 215.67 278.178C215.205 277.811 214.514 277.444 213.705 277.25C212.895 277.055 211.967 277.033 211.233 277.315C210.498 277.596 209.959 278.178 209.786 278.892C209.613 279.604 209.807 280.447 209.43 281.04C209.052 281.635 208.102 281.981 207.476 282.477C206.85 282.973 206.547 283.622 206.159 284.335C205.771 285.047 205.296 285.825 204.875 286.515C204.454 287.207 204.087 287.812 203.687 288.546C203.288 289.281 202.857 290.144 202.111 290.382C201.366 290.62 200.309 290.231 199.197 290.068C198.085 289.906 196.919 289.971 196.033 290.241C195.148 290.511 194.545 290.986 193.681 290.954C192.817 290.921 191.695 290.381 190.367 290.003C189.039 289.626 187.506 289.41 186.081 289.712C184.656 290.014 183.339 290.835 182.141 291.343C180.943 291.851 179.863 292.046 179.172 291.776C178.481 291.505 178.179 290.771 178.395 290.069C178.611 289.367 179.345 288.698 180.371 288.136C181.396 287.575 182.712 287.12 183.264 286.721C183.814 286.321 183.598 285.976 182.983 285.781C182.368 285.586 181.353 285.544 180.306 285.381C179.259 285.219 178.18 284.939 177.586 285.068C176.992 285.197 176.884 285.738 177.003 286.375C177.122 287.012 177.467 287.746 177.263 288.265C177.057 288.784 176.302 289.086 175.568 289.14C174.834 289.194 174.122 288.999 173.927 288.319C173.733 287.638 174.057 286.471 174.034 285.586C174.014 284.7 173.646 284.097 173.635 283.632C173.624 283.167 173.97 282.843 174.682 282.216C175.394 281.591 176.474 280.661 176.517 280.078C176.56 279.494 175.567 279.257 174.563 279.387C173.559 279.516 172.545 280.013 171.962 280.629C171.379 281.245 171.228 281.979 171.12 282.714C171.013 283.448 170.947 284.182 170.559 284.841C170.171 285.5 169.458 286.084 168.972 286.688C168.487 287.293 168.227 287.92 168.195 288.546C168.162 289.172 168.357 289.799 168.885 290.371C169.414 290.944 170.278 291.462 171.195 291.926C172.113 292.391 173.085 292.801 174.045 293.362C175.006 293.924 175.956 294.637 176.507 295.49C177.057 296.343 177.209 297.337 176.928 298.147C176.647 298.957 175.935 299.584 175.298 299.832C174.661 300.08 174.099 299.951 173.808 299.594C173.517 299.238 173.495 298.654 173.182 298.395C172.869 298.137 172.264 298.201 171.293 298.719C170.321 299.238 168.982 300.209 167.903 300.642C166.824 301.075 166.003 300.966 165.398 301.02C164.794 301.074 164.405 301.289 164.254 301.7C164.103 302.11 164.19 302.715 164.017 303.082C163.844 303.449 163.412 303.578 163.1 303.86C162.786 304.141 162.592 304.573 162.624 305.144C162.656 305.717 162.916 306.43 162.797 306.97C162.678 307.51 162.181 307.877 161.62 308.406C161.059 308.935 160.433 309.626 159.775 310.652C159.115 311.678 158.425 313.04 157.907 314.239C157.389 315.437 157.044 316.474 156.353 317.326C155.662 318.18 154.625 318.849 153.978 319.67C153.33 320.491 153.071 321.463 152.38 321.7C151.689 321.938 150.566 321.442 149.336 320.89C148.105 320.339 146.767 319.735 145.957 318.903C145.147 318.072 144.866 317.013 144.619 315.793C144.37 314.573 144.154 313.19 143.474 312.262C142.794 311.333 141.65 310.858 140.776 310.286C139.902 309.713 139.297 309.043 139.048 308.299C138.801 307.553 138.909 306.733 138.682 305.976C138.455 305.22 137.893 304.529 137.98 303.708C138.066 302.887 138.8 301.937 138.962 301.148C139.124 300.359 138.714 299.733 138.552 299.182C138.39 298.631 138.477 298.156 138.768 297.746C139.06 297.336 139.556 296.99 140.495 296.385C141.434 295.78 142.816 294.916 143.831 293.825C144.846 292.734 145.493 291.417 145.677 290.358C145.861 289.299 145.58 288.5 144.9 288.197C144.22 287.895 143.14 288.09 142.19 288.446C141.24 288.803 140.42 289.321 139.642 289.461C138.865 289.602 138.131 289.364 136.825 288.727C135.518 288.089 133.64 287.053 132.388 286.491C131.136 285.929 130.51 285.843 129.225 286.016C127.941 286.188 125.998 286.621 124.703 286.815C123.407 287.009 122.76 286.966 122.069 287.474C121.378 287.981 120.644 289.04 119.975 289.59C119.306 290.141 118.701 290.184 118.205 290.466C117.708 290.747 117.32 291.264 116.65 291.892C115.981 292.517 115.031 293.253 114.273 293.547C113.515 293.841 112.948 293.695 112.395 293.416C111.843 293.138 111.302 292.728 110.762 292.545C110.222 292.361 109.682 292.404 109.068 292.696C108.452 292.988 107.761 293.528 107.135 293.517C106.509 293.506 105.948 292.944 105.537 293.096C105.127 293.247 104.868 294.111 104.469 294.845C104.069 295.58 103.529 296.184 102.904 296.217C102.278 296.249 101.566 295.709 101.177 295.687C100.788 295.667 100.724 296.163 100.681 296.747C100.637 297.33 100.616 297.999 100.184 298.387C99.7526 298.777 98.9102 298.884 98.2631 298.614C97.6153 298.344 97.1621 297.697 97.2586 297.124C97.3552 296.552 98.0037 296.055 98.1651 295.677C98.3266 295.298 98.003 295.039 97.2803 295.158C96.5568 295.277 95.4341 295.774 94.6789 295.947C93.923 296.119 93.5347 295.969 93.0598 296.261C92.5849 296.553 92.0236 297.287 91.1603 297.848C90.2963 298.409 89.1304 298.798 88.2131 298.993C87.2958 299.188 86.6264 299.188 86.1731 298.809C85.7191 298.431 85.4821 297.675 85.0288 296.962C84.5756 296.249 83.9062 295.579 83.0645 295.601C82.2221 295.622 81.2076 296.336 80.5165 297.21C79.8255 298.085 79.4587 299.121 79.3081 299.964C79.1568 300.806 79.2216 301.454 79.5913 302.137C79.9609 302.82 80.6361 303.539 80.7031 304.016C80.7701 304.494 80.2304 304.731 79.6907 305.066C79.151 305.402 78.6113 305.833 78.5039 306.493C78.3958 307.151 78.7194 308.038 78.5522 308.744C78.385 309.451 77.7264 309.981 77.0108 310.183C76.2953 310.386 75.5243 310.261 75.2569 309.649C74.9896 309.035 75.2274 307.934 75.2274 307.297C75.2274 306.66 74.9896 306.487 74.6228 306.217C74.2553 305.947 73.7588 305.58 73.2515 305.277C72.7442 304.975 72.2261 304.737 71.6432 304.619C71.0602 304.5 70.4124 304.5 70.1213 304.338C69.8295 304.175 69.8943 303.852 69.8727 303.397C69.8511 302.944 69.743 302.361 69.2573 302.328C68.7716 302.297 67.9077 302.814 67.2166 303.268C66.5263 303.722 66.0075 304.11 65.6191 304.003C65.2299 303.896 64.9713 303.291 64.5389 303.161C64.1073 303.031 63.5027 303.377 63.1143 303.366C62.7252 303.355 62.553 302.988 62.2935 302.804C62.0341 302.62 61.689 302.62 61.1168 303.02C60.5447 303.421 59.7463 304.219 59.012 304.468C58.2777 304.717 57.609 304.414 57.1341 303.712C56.6593 303.01 56.379 301.908 55.9466 301.541C55.515 301.173 54.932 301.541 54.3555 302.061C53.7791 302.582 53.2105 303.256 52.5036 303.24C51.7967 303.224 50.9515 302.517 50.5292 301.732C50.107 300.947 50.107 300.083 50.4954 299.434C50.8838 298.787 51.6613 298.354 51.8335 297.729C52.0064 297.102 51.5748 296.281 51.7686 295.331C51.9625 294.38 52.7832 293.3 53.6904 292.544C54.5969 291.789 55.5906 291.357 56.3674 291.313C57.1442 291.269 57.7056 291.616 58.5479 291.875C59.3896 292.134 60.5123 292.307 61.462 292.047C62.4117 291.788 63.1885 291.097 63.837 290.169C64.4841 289.24 65.003 288.073 66.1256 287.469C67.2483 286.864 68.9756 286.821 70.7028 286.107C72.4301 285.394 74.1566 284.012 75.6251 282.629C77.0937 281.247 78.3021 279.865 79.468 278.677C80.634 277.49 81.7559 276.496 82.5983 275.61C83.4399 274.724 84.0013 273.947 85.1672 273.212C86.3331 272.478 88.1036 271.786 88.8379 271.074C89.5721 270.362 89.2695 269.626 88.9243 269.065C88.5792 268.504 88.19 268.115 88.7298 267.661C89.2695 267.207 90.7373 266.689 92.3565 266.041C93.9757 265.394 95.7461 264.616 97.1707 264.357C98.5953 264.097 99.6755 264.357 100.387 264.766C101.1 265.176 101.445 265.739 101.726 266.321C102.007 266.905 102.222 267.51 102.762 267.899C103.302 268.287 104.165 268.46 105.202 268.029C106.238 267.596 107.447 266.56 108.462 266.214C109.476 265.869 110.296 266.214 111.83 266.409C113.362 266.603 115.608 266.647 117.94 266.322C120.271 265.998 122.689 265.308 124.351 264.832C126.014 264.357 126.92 264.097 128.173 263.99C129.425 263.882 131.023 263.925 132.447 263.925C133.872 263.925 135.124 263.882 136.226 263.58C137.327 263.277 138.277 262.716 139.108 262.208C139.943 261.699 140.655 261.247 141.377 261.074ZM134.999 291.303C133.769 291.746 131.869 293.409 130.855 294.878C129.84 296.346 129.71 297.622 130.013 298.539C130.315 299.457 131.049 300.019 132.021 300.332C132.993 300.646 134.201 300.71 134.665 300.029C135.129 299.349 134.848 297.923 134.957 296.724C135.065 295.526 135.561 294.553 136.026 293.874C136.49 293.193 136.921 292.804 136.856 292.221C136.792 291.638 136.23 290.861 134.999 291.303ZM73.4699 319.913C73.988 318.833 75.0674 317.581 76.4488 316.781C77.8302 315.982 79.5142 315.636 81.0476 315.182C82.5803 314.729 83.9616 314.167 85.1924 313.216C86.4232 312.266 87.5026 310.926 88.5172 309.199C89.5318 307.471 90.4815 305.354 91.4312 304.015C92.381 302.676 93.3314 302.114 94.0218 302.309C94.7128 302.503 95.1444 303.454 95.5761 304.145C96.0077 304.836 96.4401 305.268 96.9142 305.527C97.3891 305.786 97.9072 305.873 98.7279 305.549C99.5487 305.225 100.671 304.49 101.535 304.404C102.399 304.317 103.002 304.879 103.845 304.944C104.686 305.009 105.766 304.576 106.587 304.101C107.407 303.626 107.968 303.108 107.882 302.179C107.796 301.25 107.062 299.911 106.975 298.961C106.889 298.01 107.45 297.448 108.033 297.578C108.616 297.708 109.22 298.528 110.43 298.291C111.639 298.053 113.452 296.757 114.662 296.131C115.87 295.504 116.475 295.547 117.727 296.001C118.979 296.455 120.879 297.318 122.196 298.075C123.513 298.831 124.247 299.478 125.11 299.63C125.974 299.781 126.967 299.435 127.615 299.695C128.262 299.953 128.565 300.818 128.629 301.768C128.694 302.718 128.521 303.755 128.565 304.749C128.608 305.743 128.867 306.693 129.299 307.686C129.731 308.681 130.335 309.717 130.054 310.603C129.774 311.489 128.608 312.223 127.032 313.086C125.456 313.95 123.469 314.944 122.261 316.37C121.052 317.796 120.62 319.654 120.318 321.187C120.016 322.721 119.843 323.93 119.368 324.384C118.894 324.838 118.116 324.535 117.101 323.52C116.087 322.505 114.835 320.777 113.129 319.719C111.423 318.66 109.264 318.272 107.839 318.488C106.414 318.704 105.723 319.525 104.839 320.021C103.953 320.518 102.873 320.691 102.183 321.188C101.492 321.684 101.19 322.505 101.104 323.305C101.017 324.104 101.147 324.882 100.65 325.422C100.154 325.962 99.0313 326.265 98.3194 326.935C97.6074 327.604 97.304 328.64 96.7218 329.224C96.1389 329.808 95.2756 329.937 94.6494 330.434C94.0232 330.93 93.6341 331.795 93.6997 332.637C93.7645 333.479 94.2826 334.301 94.6278 335.316C94.9729 336.331 95.1459 337.541 94.6494 337.692C94.1529 337.843 92.987 336.936 91.6698 336.677C90.3525 336.418 88.8847 336.807 87.9133 336.44C86.9413 336.072 86.4671 334.95 86.4239 334.02C86.3807 333.092 86.769 332.357 86.1003 332.141C85.4316 331.926 83.7037 332.228 82.7539 331.623C81.8042 331.018 81.6313 329.506 81.8899 328.188C82.1494 326.87 82.8397 325.747 83.2936 324.776C83.7469 323.804 83.9631 322.983 83.3369 322.292C82.7107 321.601 81.2429 321.039 79.8183 320.845C78.3936 320.65 77.0116 320.823 75.8889 321.212C74.7662 321.601 73.9029 322.206 73.4497 322.054C72.995 321.9 72.9518 320.993 73.4699 319.913ZM36.2601 389.747C35.5367 390.135 35.0186 390.848 34.7383 391.637C34.4579 392.426 34.414 393.29 34.6842 394.078C34.9544 394.866 35.5374 395.579 36.4979 396C37.4585 396.421 38.7973 396.551 39.7795 396.075C40.7617 395.6 41.3878 394.52 41.5284 393.386C41.6689 392.253 41.323 391.064 40.7941 390.362C40.2652 389.661 39.5525 389.445 38.7325 389.369C37.9117 389.293 36.9836 389.358 36.2601 389.747ZM49.5485 382.208C48.8358 382.684 48.0158 383.72 47.4321 384.822C46.8492 385.924 46.5033 387.09 46.1149 388.138C45.7258 389.185 45.2949 390.114 45.1976 390.978C45.1003 391.842 45.3374 392.641 45.9751 392.965C46.6121 393.29 47.6476 393.138 48.2961 392.426C48.9432 391.713 49.2026 390.438 49.7971 389.239C50.3902 388.04 51.319 386.917 51.6533 385.708C51.9877 384.499 51.7283 383.202 51.2967 382.511C50.865 381.82 50.2604 381.733 49.5485 382.208ZM19.8747 290.775C18.8493 290.819 18.0285 290.127 17.8887 288.874C17.7482 287.621 18.2879 285.807 19.3025 284.176C20.3171 282.545 21.8066 281.097 22.8212 280.45C23.8358 279.802 24.3762 279.953 24.7754 280.806C25.1746 281.659 25.434 283.215 25.1746 284.727C24.9159 286.239 24.1384 287.708 23.1346 288.83C22.1301 289.954 20.8994 290.732 19.8747 290.775ZM17.6935 291.898C16.8403 292.287 16.2789 293.388 15.9986 294.62C15.7176 295.85 15.7176 297.212 16.204 298.022C16.6897 298.832 17.661 299.091 18.5142 298.455C19.3674 297.816 20.1009 296.283 20.4677 295.084C20.8345 293.886 20.8345 293.022 20.2631 292.427C19.6902 291.833 18.5459 291.51 17.6935 291.898ZM26.8795 303.325C25.9298 303.844 25.1955 304.966 25.0982 305.939C25.0009 306.911 25.5407 307.731 26.6201 307.872C27.6995 308.012 29.3187 307.472 29.9989 306.544C30.6785 305.615 30.4198 304.297 29.7071 303.595C28.9944 302.893 27.8293 302.806 26.8795 303.325ZM4.07074 329.202C2.8724 329.18 1.68487 329.526 0.972934 330.185C0.260992 330.844 0.0231959 331.815 0.00157824 332.777C-0.0200394 333.738 0.17452 334.689 0.951314 335.045C1.72811 335.402 3.08858 335.164 4.44905 334.71C5.8088 334.257 7.16927 333.587 7.70899 332.766C8.24871 331.946 7.96768 330.974 7.22332 330.293C6.47823 329.613 5.26908 329.224 4.07074 329.202ZM12.1774 322.895C11.3998 323.176 10.7088 323.996 10.3096 325.022C9.91039 326.049 9.8023 327.28 9.84554 328.284C9.88877 329.289 10.0833 330.066 10.7304 330.066C11.3782 330.066 12.4793 329.289 13.2568 328.306C14.0336 327.323 14.4876 326.135 14.6706 325.238C14.8543 324.342 14.7679 323.737 14.293 323.305C13.8181 322.873 12.9549 322.615 12.1774 322.895ZM19.7226 314.201C18.6972 314.536 17.5962 315.4 17.2078 316.566C16.8194 317.732 17.1429 319.202 17.8016 319.827C18.4602 320.454 19.4531 320.238 20.2955 319.655C21.1372 319.071 21.8282 318.122 22.195 317.16C22.5618 316.199 22.605 315.226 22.1517 314.644C21.6985 314.06 20.748 313.866 19.7226 314.201ZM24.9584 355.599C24.2357 355.706 23.2636 356.203 22.5999 356.803C21.9363 357.402 21.5796 358.104 21.4773 358.72C21.3742 359.335 21.5255 359.864 21.9305 360.123C22.3355 360.382 22.9941 360.372 23.6037 360.02C24.2133 359.67 24.7747 358.978 25.2712 358.26C25.7677 357.542 26.1993 356.797 26.1777 356.284C26.1568 355.771 25.6819 355.49 24.9584 355.599ZM28.8114 338.383C28.2501 339.009 27.9907 339.852 27.5915 340.759C27.1923 341.667 26.6525 342.638 26.3182 343.438C25.9831 344.237 25.8534 344.864 25.9831 345.295C26.1128 345.728 26.5012 345.965 27.2895 346.03C28.0771 346.095 29.2647 345.987 30.2151 345.403C31.1649 344.82 31.8775 343.763 32.2119 342.541C32.5462 341.321 32.503 339.939 32.2551 338.978C32.0072 338.016 31.5533 337.477 30.8946 337.412C30.236 337.347 29.3728 337.757 28.8114 338.383ZM37.4361 337.983C36.6262 338.21 35.6116 338.512 35.234 339.193C34.8564 339.873 35.1151 340.932 35.7521 341.429C36.3891 341.926 37.4037 341.861 38.2245 341.354C39.0445 340.846 39.6707 339.896 39.8436 339.172C40.0166 338.448 39.7355 337.952 39.2931 337.779C38.8507 337.606 38.2461 337.757 37.4361 337.983Z" stroke="white" stroke-miterlimit="22.9256" stroke-linecap="round" stroke-linejoin="round"/>
</svg>
