<svg width="522" height="435" viewBox="0 0 522 435" fill="none" xmlns="http://www.w3.org/2000/svg">
<rect x="173.8" y="86.8999" width="86.9" height="86.9" fill="#6667AB"/>
<rect x="434.5" y="173.8" width="86.9" height="86.9" fill="#563474"/>
<rect x="347.6" y="347.6" width="86.9" height="86.9" fill="#592147"/>
<rect x="260.7" y="86.8999" width="86.9" height="86.9" fill="#6D6695"/>
<rect width="86.9" height="86.9" fill="#BCAFCF"/>
<rect x="434.5" y="347.6" width="86.9" height="86.9" fill="#47253C"/>
<rect x="173.8" y="347.6" width="86.9" height="86.9" fill="#683D62"/>
<rect x="260.7" y="173.8" width="86.9" height="86.9" fill="#4F3872"/>
<rect x="86.8999" width="86.9" height="86.9" fill="#AA9ECB"/>
<rect x="260.7" y="347.6" width="86.9" height="86.9" fill="#75406A"/>
<rect x="347.6" width="86.9" height="86.9" fill="#9883B9"/>
<rect x="86.8999" y="260.7" width="86.9" height="86.9" fill="#C49DB4"/>
<rect x="434.5" width="86.9" height="86.9" fill="#8B79B1"/>
<rect y="260.7" width="86.9" height="86.9" fill="#D4B9CB"/>
<rect x="86.8999" y="86.8999" width="86.9" height="86.9" fill="#7E6EAC"/>
<rect y="86.8999" width="86.9" height="86.9" fill="#7D74A8"/>
<rect x="173.8" y="260.7" width="86.9" height="86.9" fill="#AE90A7"/>
<rect y="173.8" width="86.9" height="86.9" fill="#6D5698"/>
<rect x="434.5" y="86.8999" width="86.9" height="86.9" fill="#544275"/>
<rect x="434.5" y="260.7" width="86.9" height="86.9" fill="#725671"/>
<rect x="347.6" y="86.8999" width="86.9" height="86.9" fill="#5B4F8F"/>
<rect x="173.8" width="86.9" height="86.9" fill="#9F90C1"/>
<rect x="86.8999" y="173.8" width="86.9" height="86.9" fill="#5F4B8B"/>
<rect x="260.7" width="86.9" height="86.9" fill="#9787B8"/>
<rect x="86.8999" y="347.6" width="86.9" height="86.9" fill="#7C5379"/>
<rect x="173.8" y="173.8" width="86.9" height="86.9" fill="#543D7D"/>
<rect x="347.6" y="260.7" width="86.9" height="86.9" fill="#895C79"/>
<rect x="347.6" y="173.8" width="86.9" height="86.9" fill="#603F83"/>
<rect y="347.6" width="86.9" height="86.9" fill="#926AA6"/>
<rect x="260.7" y="260.7" width="86.9" height="86.9" fill="#927288"/>
</svg>
