<svg width="130" height="130" viewBox="0 0 130 130" fill="none" xmlns="http://www.w3.org/2000/svg">
<g clip-path="url(#clip0_140_198)">
<path d="M77.4531 3.80897C77.4781 3.81148 77.4869 3.85031 77.4794 3.92545C77.4718 4.0006 77.4555 4.03691 77.4305 4.0344C76.9921 3.99042 76.5105 4.12552 75.9857 4.4397C75.4746 4.74262 75.0004 5.18206 74.5631 5.75803L71.7627 9.27201L71.3367 13.5176C71.2977 13.9058 71.307 14.1914 71.3646 14.3742C71.4221 14.5571 71.5479 14.6899 71.742 14.7726C71.9486 14.8566 72.2836 14.9218 72.747 14.9683C72.7846 14.9721 72.7996 15.0116 72.7921 15.0867C72.7845 15.1618 72.762 15.1975 72.7244 15.1938C72.3362 15.1548 72.0362 15.1184 71.8246 15.0845L70.4927 14.9319L69.1946 14.8206C68.9554 14.8093 68.6354 14.7835 68.2346 14.7433C68.2096 14.7408 68.2008 14.7019 68.2084 14.6268C68.2159 14.5517 68.2322 14.5153 68.2572 14.5179C68.7206 14.5643 69.0619 14.567 69.2811 14.5257C69.5003 14.4845 69.6562 14.3799 69.749 14.2121C69.8555 14.0331 69.9276 13.7557 69.9653 13.38L70.3612 9.43499L67.7703 4.62108C67.4524 4.00729 67.1483 3.57198 66.8578 3.31514C66.5673 3.05829 66.2342 2.91102 65.8585 2.87333C65.8209 2.86956 65.8059 2.8301 65.8135 2.75496C65.821 2.67982 65.8435 2.64413 65.8811 2.6479L66.5367 2.73265C66.8348 2.78786 67.0527 2.82237 67.1905 2.8362C67.6163 2.87892 68.1686 2.92168 68.8474 2.96449L69.9013 3.05126C69.9263 3.05377 69.9351 3.0926 69.9275 3.16774C69.92 3.24288 69.9037 3.2792 69.8786 3.27669C69.265 3.21511 68.9437 3.32835 68.9148 3.6164C68.9022 3.74164 68.9548 3.91136 69.0724 4.12556L71.5825 8.79854L74.1048 5.59819C74.4406 5.15119 74.6235 4.7774 74.6537 4.47683C74.7015 4.00093 74.3872 3.72905 73.7109 3.6612C73.6859 3.65868 73.6771 3.61986 73.6846 3.54471C73.6922 3.46957 73.7085 3.43326 73.7335 3.43577L74.6334 3.54503C75.1318 3.62034 75.5814 3.6781 75.9822 3.71831C76.1951 3.73967 76.4531 3.75291 76.7561 3.75802L77.4531 3.80897Z" fill="#91868C"/>
<path d="M80.9174 15.9878C80.954 15.9971 80.9783 16.0293 80.9902 16.0843C81.0174 16.1303 81.0141 16.1684 80.9804 16.1988C79.9763 16.7216 78.9804 16.8567 77.9926 16.6042C77.2731 16.4203 76.6979 16.1044 76.2667 15.6564C75.8387 15.1962 75.5592 14.6636 75.4281 14.0584C75.3001 13.4411 75.3156 12.8215 75.4746 12.1996C75.6585 11.4801 75.9976 10.8652 76.4918 10.355C76.9982 9.84787 77.5939 9.49996 78.2787 9.31125C78.9666 9.11036 79.6703 9.10187 80.3898 9.28578C81.0971 9.46658 81.5869 9.78665 81.8592 10.246C82.1468 10.6963 82.2049 11.2568 82.0334 11.9275C81.9493 12.2567 81.834 12.4026 81.6877 12.3652L77.1649 11.2286C77.0719 11.4906 77.0067 11.6948 76.9693 11.8412C76.6981 12.9021 76.7298 13.8196 77.0646 14.5937C77.3993 15.3678 78.024 15.8718 78.9386 16.1055C79.3044 16.1991 79.6202 16.2343 79.8859 16.2113C80.1669 16.1792 80.5047 16.1031 80.8991 15.9831L80.9174 15.9878ZM79.6744 9.49264C79.1622 9.36172 78.6963 9.43099 78.2766 9.70047C77.8601 9.95775 77.5235 10.3849 77.267 10.9819L80.6148 11.7597C80.7738 11.1378 80.7658 10.6356 80.5907 10.253C80.431 9.86144 80.1256 9.60797 79.6744 9.49264Z" fill="#91868C"/>
<path d="M91.8999 13.7816C91.923 13.7916 91.9195 13.8314 91.8893 13.9009C91.8591 13.9704 91.8324 14.0001 91.8093 13.99C91.5082 13.8591 91.2023 13.85 90.8917 13.9628C90.5976 14.0691 90.249 14.3168 89.8457 14.7059L85.4314 18.9207C85.383 18.9685 85.3068 18.9698 85.2025 18.9245C85.1099 18.8842 85.0588 18.8276 85.0492 18.7546L84.8636 12.4367C84.8535 11.8265 84.8002 11.4109 84.7035 11.1899C84.6119 10.9573 84.4502 10.7907 84.2187 10.69C84.1839 10.6749 84.1816 10.6326 84.2119 10.5631C84.2421 10.4936 84.2745 10.4664 84.3093 10.4815C84.5293 10.5772 84.7005 10.6585 84.8228 10.7254L85.5622 11.0675L86.7509 11.5637C86.9296 11.6276 87.1695 11.725 87.4706 11.8559C87.5053 11.871 87.5076 11.9133 87.4774 11.9828C87.4472 12.0523 87.4147 12.0794 87.38 12.0643C86.6967 11.7673 86.2972 11.752 86.1814 12.0183C86.1412 12.1109 86.124 12.2136 86.1301 12.3264L86.309 17.5674L89.5111 14.4779C89.6879 14.2931 89.8039 14.137 89.8593 14.0097C90.0708 13.5233 89.7307 13.0863 88.839 12.6987C88.8159 12.6886 88.8194 12.6488 88.8496 12.5794C88.8798 12.5099 88.9065 12.4802 88.9296 12.4902C89.2423 12.6262 89.4772 12.7352 89.6343 12.8172L90.6689 13.2877L91.3365 13.5573C91.4573 13.596 91.6451 13.6708 91.8999 13.7816Z" fill="#91868C"/>
<path d="M93.0295 22.6171C93.5936 22.9947 94.0384 23.3255 94.3639 23.6094C94.6962 23.8828 94.9303 24.2275 95.0663 24.6436C95.206 25.0771 95.1127 25.5476 94.7864 26.0551C94.4126 26.6366 93.8809 27.0568 93.1914 27.3159C92.5019 27.5749 91.7553 27.6553 90.9518 27.5572C90.1588 27.4658 89.424 27.2026 88.7473 26.7677C88.0283 26.3055 87.5609 25.7659 87.3449 25.149C87.1327 24.5494 87.1897 23.9958 87.516 23.4883C88.0121 22.7165 89.0408 22.3019 90.6018 22.2445C90.262 21.9364 90.0407 21.6298 89.938 21.3247C89.8353 21.0196 89.8893 20.7032 90.1 20.3754C90.3039 20.0583 90.5773 19.8306 90.9202 19.6924C91.2804 19.5504 91.7513 19.4571 92.3328 19.4126C92.0783 18.995 91.9473 18.5596 91.9397 18.1065C91.939 17.6428 92.061 17.2207 92.3057 16.8401C92.6931 16.2374 93.2523 15.9021 93.9834 15.8341C94.725 15.773 95.4659 15.9802 96.206 16.456C96.8721 16.8842 97.3166 17.4015 97.5393 18.0079C97.9441 18.029 98.3059 18.0822 98.6246 18.1676C98.9501 18.2423 99.2662 18.3783 99.5728 18.5754C99.6045 18.5957 99.5984 18.6516 99.5546 18.743C99.5282 18.8306 99.4844 18.922 99.4232 19.0171C99.3417 19.144 99.2408 19.266 99.1208 19.383C99.0007 19.5001 98.9263 19.5344 98.8976 19.4861C98.6612 19.11 98.3527 18.7997 97.9721 18.555C97.8241 18.4598 97.7096 18.3938 97.6288 18.3568C97.733 18.9616 97.622 19.5178 97.2958 20.0253C97.0511 20.4059 96.7157 20.6835 96.2898 20.8579C95.8638 21.0324 95.3941 21.089 94.8805 21.0279C94.3776 20.9735 93.8829 20.79 93.3965 20.4773C93.0688 20.2667 92.7697 19.9997 92.4993 19.6765C92.2071 19.7127 91.9711 19.7777 91.7913 19.8713C91.6116 19.965 91.4639 20.1017 91.3484 20.2814C91.192 20.5246 91.1471 20.7572 91.2136 20.9792C91.28 21.2012 91.4548 21.4406 91.738 21.6974C92.0281 21.9435 92.4585 22.2501 93.0295 22.6171ZM95.6305 16.4447C95.2816 16.2204 94.9372 16.1634 94.5974 16.2736C94.2643 16.3733 93.9449 16.6611 93.639 17.1368C93.3399 17.602 93.1609 18.0547 93.102 18.495C93.0537 18.9421 93.0986 19.337 93.2368 19.6799C93.3818 20.0122 93.597 20.2701 93.8825 20.4536C94.2209 20.671 94.5686 20.7228 94.9259 20.6087C95.3005 20.4909 95.6509 20.1783 95.9771 19.6708C96.3918 19.0259 96.5523 18.4043 96.4586 17.8062C96.3824 17.2044 96.1063 16.7505 95.6305 16.4447ZM89.777 26.7348C90.4749 27.1834 91.1629 27.3567 91.8411 27.2547C92.5125 27.1633 93.0521 26.8005 93.4599 26.1661C93.7318 25.7432 93.8319 25.3667 93.7601 25.0367C93.6884 24.7067 93.5003 24.4065 93.196 24.1362C92.9022 23.8726 92.4574 23.5419 91.8615 23.1439C91.4386 22.872 91.1388 22.6644 90.962 22.5209C90.5089 22.5285 90.1109 22.6013 89.768 22.7395C89.4289 22.8951 89.137 23.1632 88.8923 23.5438C88.5185 24.1253 88.4113 24.6989 88.5706 25.2645C88.7299 25.8301 89.1321 26.3202 89.777 26.7348Z" fill="#91868C"/>
<path d="M101.44 28.5775C101.468 28.6024 101.475 28.6421 101.46 28.6965C101.464 28.7498 101.444 28.7823 101.4 28.794C100.268 28.8026 99.3193 28.4697 98.5546 27.7954C97.9976 27.3042 97.6291 26.7611 97.4491 26.166C97.2774 25.5615 97.2709 24.96 97.4296 24.3615C97.5965 23.7536 97.8923 23.2089 98.3169 22.7275C98.8081 22.1705 99.3899 21.7773 100.062 21.5479C100.744 21.3268 101.433 21.288 102.128 21.4316C102.832 21.5658 103.463 21.8785 104.02 22.3697C104.567 22.8525 104.858 23.3604 104.891 23.8934C104.942 24.4252 104.739 24.9507 104.281 25.4699C104.056 25.7247 103.887 25.8022 103.774 25.7023L100.264 22.6321C100.062 22.8231 99.9109 22.9752 99.811 23.0885C99.0867 23.9098 98.6974 24.7412 98.6432 25.5828C98.589 26.4244 98.9159 27.1574 99.6239 27.7818C99.9071 28.0316 100.172 28.2067 100.419 28.3071C100.684 28.4064 101.02 28.4924 101.425 28.565L101.44 28.5775ZM103.289 22.2283C102.892 21.8786 102.446 21.7283 101.949 21.7773C101.461 21.8168 100.967 22.044 100.467 22.4588L103.094 24.6749C103.519 24.1935 103.74 23.7426 103.759 23.3224C103.795 22.901 103.638 22.5363 103.289 22.2283Z" fill="#91868C"/>
<path d="M107.391 37.0271C107.415 37.0564 107.397 37.0948 107.338 37.1423C107.279 37.1897 107.238 37.1987 107.214 37.1693C107.017 36.9244 106.868 36.7294 106.767 36.5843L106.141 35.779L105.487 34.9973C105.366 34.868 105.211 34.6859 105.021 34.4507C104.998 34.4213 105.015 34.3829 105.074 34.3355C105.133 34.2881 105.174 34.2791 105.198 34.3085C105.403 34.5632 105.578 34.7296 105.722 34.8076C105.883 34.8876 106.048 34.8918 106.217 34.8204C106.404 34.7509 106.639 34.6015 106.923 34.3723L109.26 32.4877C109.828 32.0294 110.157 31.5858 110.248 31.157C110.356 30.73 110.225 30.2863 109.853 29.8258C109.624 29.5417 109.314 29.3071 108.922 29.1219C108.538 28.9466 108.115 28.8431 107.653 28.8115L104.493 31.3599C104.209 31.5891 104.009 31.7825 103.894 31.9402C103.796 32.0998 103.769 32.267 103.813 32.4418C103.867 32.6086 103.997 32.8194 104.202 33.0741C104.226 33.1035 104.208 33.1419 104.149 33.1893C104.091 33.2367 104.049 33.2458 104.026 33.2164C103.828 32.9715 103.679 32.7765 103.578 32.6314L102.953 31.826L102.298 31.0444C102.177 30.9151 102.022 30.7329 101.833 30.4978C101.809 30.4684 101.827 30.43 101.885 30.3826C101.944 30.3352 101.985 30.3262 102.009 30.3556C102.215 30.6103 102.389 30.7767 102.533 30.8547C102.695 30.9347 102.86 30.9389 103.028 30.8675C103.215 30.7979 103.45 30.6486 103.734 30.4194L106.615 28.0963C106.938 27.8355 107.142 27.6067 107.225 27.4098C107.309 27.2129 107.28 27.0262 107.138 26.8499C107.019 26.703 106.736 26.5026 106.289 26.2489L106.277 26.2342C106.245 26.195 106.241 26.1498 106.265 26.0986C106.298 26.0395 106.34 26.0216 106.391 26.045L108.666 27.1209L108.752 27.1973C108.831 27.2952 108.793 27.4792 108.639 27.7491C108.503 28.0209 108.257 28.3079 107.902 28.61C109.322 28.6456 110.348 29.0553 110.98 29.839C111.415 30.3778 111.594 30.9206 111.517 31.4674C111.449 32.0239 111.125 32.5353 110.547 33.0015L107.682 35.3128C107.398 35.542 107.198 35.7354 107.083 35.8931C106.985 36.0527 106.958 36.2199 107.002 36.3947C107.056 36.5616 107.185 36.7723 107.391 37.0271Z" fill="#91868C"/>
<path d="M116.788 34.8142C116.648 34.5756 116.601 34.3474 116.649 34.1298C116.702 33.923 116.848 33.7495 117.087 33.6091C117.304 33.4815 117.516 33.4445 117.723 33.4982C117.936 33.5626 118.113 33.7142 118.253 33.9529C118.387 34.1807 118.427 34.398 118.374 34.6048C118.32 34.8115 118.185 34.9787 117.968 35.1063C117.729 35.2467 117.506 35.2901 117.3 35.2364C117.093 35.1828 116.922 35.0421 116.788 34.8142ZM107.682 38.286C107.662 38.2535 107.685 38.2181 107.75 38.1798C107.816 38.1415 107.858 38.1386 107.877 38.1712C108.113 38.5726 108.34 38.797 108.557 38.8442C108.786 38.8851 109.128 38.7715 109.584 38.5035L112.611 36.7234C112.99 36.5001 113.245 36.2995 113.374 36.1214C113.503 35.9434 113.51 35.7567 113.395 35.5615C113.286 35.377 113.07 35.183 112.746 34.9794L112.736 34.9631C112.711 34.9197 112.719 34.8712 112.76 34.8176C112.802 34.764 112.846 34.7525 112.893 34.7832L115.175 36.3542L115.23 36.4098C115.249 36.4423 115.252 36.4844 115.238 36.5361C115.231 36.5987 115.212 36.6395 115.179 36.6586C115.103 36.7033 114.883 36.8255 114.519 37.0252C114.154 37.2249 113.728 37.4683 113.24 37.7554L110.196 39.5451C109.882 39.7301 109.656 39.8922 109.518 40.0313C109.398 40.1748 109.347 40.3363 109.365 40.5156C109.394 40.6886 109.491 40.9161 109.657 41.1981C109.676 41.2307 109.653 41.2661 109.588 41.3044C109.523 41.3427 109.481 41.3455 109.462 41.313C109.302 41.0418 109.183 40.827 109.105 40.6687L108.604 39.7804L108.052 38.8786C107.952 38.7331 107.828 38.5356 107.682 38.286Z" fill="#91868C"/>
<path d="M119.818 46.6908C119.832 46.7256 119.805 46.7577 119.735 46.7869C119.666 46.8162 119.624 46.8134 119.609 46.7786C119.477 46.4653 119.255 46.2447 118.942 46.1169C118.634 46.0006 118.183 45.9511 117.589 45.9684L111.142 46.2198C109.836 46.2633 108.789 46.2253 108.001 46.1056C107.207 46.0024 106.591 45.8038 106.154 45.5098C105.709 45.2323 105.38 44.8382 105.165 44.3276C105.048 44.0491 105.02 43.8019 105.079 43.5858C105.122 43.363 105.259 43.2028 105.491 43.1053C105.677 43.0273 105.849 43.0302 106.007 43.1139C106.149 43.191 106.254 43.3107 106.322 43.4732C106.385 43.624 106.419 43.7532 106.423 43.8606C106.421 43.9846 106.406 44.1134 106.381 44.2471C106.379 44.2752 106.371 44.3536 106.357 44.4824C106.348 44.6228 106.377 44.7743 106.445 44.9367C106.562 45.2152 106.794 45.4251 107.14 45.5664C107.474 45.7126 107.979 45.8079 108.653 45.8524C109.315 45.9018 110.226 45.9083 111.385 45.8719L115.689 40.9098C116.087 40.4284 116.333 40.0864 116.425 39.8838C116.529 39.6763 116.535 39.4623 116.442 39.2418C116.432 39.2186 116.462 39.1924 116.532 39.1632C116.602 39.1339 116.641 39.1309 116.651 39.1541C116.763 39.421 116.843 39.6265 116.89 39.7706L117.128 40.3871L117.621 41.5112C117.706 41.6804 117.809 41.91 117.931 42.2001C117.941 42.2233 117.911 42.2496 117.841 42.2788C117.771 42.3081 117.732 42.3111 117.722 42.2879C117.586 41.963 117.452 41.7257 117.321 41.576C117.194 41.4379 117.061 41.3981 116.922 41.4566C116.864 41.481 116.778 41.5514 116.663 41.668L112.976 45.8585L117.386 45.5827C117.704 45.5585 117.95 45.5098 118.124 45.4367C118.402 45.3197 118.555 45.1324 118.584 44.8748C118.628 44.6239 118.556 44.2721 118.366 43.8196C118.356 43.7964 118.386 43.7702 118.455 43.7409C118.525 43.7117 118.565 43.7086 118.575 43.7318C118.706 44.0451 118.8 44.2855 118.857 44.4528L119.278 45.5045L119.559 46.1238C119.624 46.2465 119.711 46.4355 119.818 46.6908Z" fill="#91868C"/>
<path d="M116 67.0215C115.993 67.0728 115.951 67.0959 115.874 67.0908C115.812 67.097 115.778 67.0812 115.775 67.0437L115.557 64.8265C115.505 64.3004 115.844 63.445 116.575 62.2601C115.488 61.3679 114.87 60.1639 114.721 58.6483C114.643 57.8591 114.703 57.1829 114.901 56.6196C115.111 56.0551 115.416 55.6204 115.816 55.3154C116.217 55.023 116.662 54.8528 117.15 54.8047C117.852 54.7357 118.487 54.8945 119.056 55.2811C119.627 55.6803 120.253 56.2637 120.936 57.0313C121.252 56.7725 121.547 56.5601 121.822 56.3939C122.55 55.9555 123.215 55.7067 123.816 55.6475C124.38 55.5921 124.907 55.673 125.396 55.8905C125.886 56.1205 126.293 56.4599 126.615 56.9088C126.939 57.3702 127.132 57.9203 127.195 58.5591C127.257 59.1854 127.159 59.7326 126.901 60.2006C126.656 60.6673 126.208 60.9328 125.557 60.9969C125.068 61.0449 124.611 60.9634 124.186 60.7523C123.773 60.54 123.398 60.267 123.062 59.9334C122.738 59.5984 122.339 59.1382 121.864 58.5525L121.605 58.2365C120.268 59.304 119.015 60.7742 117.846 62.6472C118.583 62.9414 119.391 63.0454 120.267 62.9591C120.768 62.9098 121.128 62.7733 121.346 62.5494C121.578 62.3369 121.668 61.9676 121.617 61.4415C121.613 61.4039 121.648 61.3751 121.722 61.3552C121.797 61.3478 121.837 61.3692 121.842 61.4193L122.257 65.4383C122.262 65.4884 122.227 65.5172 122.151 65.5246C122.076 65.532 122.036 65.5106 122.031 65.4605C121.991 65.0472 121.916 64.7383 121.807 64.534C121.712 64.341 121.585 64.208 121.426 64.1351C121.268 64.0622 121.027 63.9974 120.705 63.9405C119.495 63.7181 118.476 63.3946 117.65 62.97C117.174 63.7883 116.794 64.553 116.51 65.2639C116.226 65.9748 116.056 66.5607 116 67.0215ZM124.874 56.7576C123.897 56.8537 122.89 57.288 121.853 58.0603C122.417 58.6499 122.947 59.0909 123.444 59.3835C123.955 59.6874 124.511 59.8098 125.112 59.7506C125.663 59.6964 126.081 59.5098 126.366 59.1909C126.651 58.872 126.769 58.4683 126.721 57.9798C126.63 57.0528 126.014 56.6454 124.874 56.7576ZM115.435 59.5455C115.533 60.5351 115.973 61.3517 116.758 61.9955C116.854 61.8215 116.953 61.6664 117.053 61.53C117.581 60.7193 118.161 59.935 118.795 59.177C119.43 58.4316 120.068 57.787 120.71 57.2432C120.29 56.8292 119.861 56.5173 119.423 56.3075C118.998 56.0964 118.528 56.0161 118.014 56.0666C117.501 56.1172 117.032 56.2961 116.607 56.6036C116.195 56.9223 115.882 57.3388 115.667 57.8532C115.452 58.3676 115.375 58.9317 115.435 59.5455Z" fill="#91868C"/>
<path d="M112.373 84.0433C112.361 84.0922 112.319 84.1075 112.245 84.0893C112.172 84.0711 112.141 84.0376 112.153 83.9887C112.211 83.7566 112.313 83.3993 112.459 82.9167C112.604 82.4342 112.706 82.0768 112.764 81.8447C112.833 81.5638 112.907 81.2126 112.986 80.7912C113.059 80.3942 113.122 80.0858 113.177 79.8659C113.189 79.817 113.232 79.8017 113.305 79.8199C113.378 79.8381 113.409 79.8716 113.397 79.9205C113.288 80.3602 113.247 80.6808 113.275 80.8823C113.312 81.0989 113.434 81.233 113.642 81.2846C113.825 81.3301 114.121 81.3128 114.53 81.2327L118.22 80.4755L119.307 76.0961L117.065 74.3919C116.738 74.1421 116.421 73.9794 116.116 73.9036C115.346 73.7125 114.814 74.2095 114.52 75.3945C114.505 75.4555 114.461 75.477 114.388 75.4588C114.314 75.4406 114.285 75.401 114.3 75.3399C114.355 75.12 114.446 74.8054 114.574 74.3961C114.713 73.938 114.826 73.5379 114.91 73.1959C114.986 72.8905 115.067 72.5148 115.151 72.069C115.218 71.6965 115.283 71.3819 115.347 71.1254C115.362 71.0643 115.406 71.0429 115.479 71.0611C115.553 71.0792 115.582 71.1189 115.567 71.18C115.482 71.522 115.471 71.8242 115.536 72.0867C115.61 72.3643 115.784 72.654 116.059 72.9558C116.335 73.2575 116.757 73.6216 117.325 74.048L125.417 80.1611C125.448 80.1946 125.454 80.248 125.436 80.3213C125.418 80.3946 125.389 80.4328 125.349 80.4359L115.178 82.5412C114.183 82.7352 113.49 82.9394 113.1 83.1538C112.71 83.3681 112.467 83.6646 112.373 84.0433ZM119.651 76.3565L118.65 80.3878L123.612 79.3628L119.651 76.3565Z" fill="#91868C"/>
<path d="M110.422 87.8807C110.115 88.4868 109.839 88.9687 109.596 89.3264C109.364 89.6895 109.049 89.9636 108.652 90.1486C108.237 90.3395 107.758 90.3032 107.215 90.0397C106.592 89.7377 106.11 89.2595 105.77 88.6051C105.43 87.9507 105.26 87.2182 105.262 86.4075C105.258 85.6082 105.431 84.8462 105.783 84.1213C106.156 83.3511 106.636 82.8217 107.224 82.533C107.795 82.2501 108.352 82.2404 108.895 82.5039C109.722 82.9047 110.258 83.8776 110.502 85.4226C110.768 85.0478 111.046 84.791 111.337 84.6523C111.628 84.5137 111.949 84.5294 112.3 84.6996C112.64 84.8643 112.899 85.1088 113.078 85.4331C113.262 85.7742 113.411 86.2311 113.525 86.8039C113.91 86.5008 114.327 86.3183 114.777 86.2565C115.237 86.2002 115.672 86.2708 116.08 86.4684C116.725 86.7813 117.126 87.2971 117.281 88.0157C117.43 88.7457 117.313 89.5071 116.929 90.2999C116.583 91.0135 116.122 91.5173 115.546 91.8115C115.573 92.2165 115.564 92.5825 115.517 92.9096C115.482 93.2421 115.384 93.5726 115.225 93.9011C115.209 93.9351 115.152 93.9358 115.056 93.9032C114.966 93.8874 114.87 93.8548 114.768 93.8054C114.632 93.7395 114.499 93.6539 114.368 93.5486C114.237 93.4432 114.194 93.3734 114.239 93.3391C114.584 93.059 114.856 92.7151 115.054 92.3073C115.13 92.1488 115.182 92.0271 115.21 91.9423C114.621 92.1185 114.054 92.0748 113.511 91.8113C113.103 91.6136 112.787 91.3136 112.562 90.911C112.338 90.5085 112.225 90.0483 112.224 89.5304C112.218 89.0238 112.341 88.5101 112.594 87.9891C112.764 87.638 112.994 87.3086 113.283 87.0011C113.212 86.7149 113.119 86.488 113.004 86.3206C112.889 86.1531 112.736 86.0227 112.543 85.9294C112.283 85.8031 112.046 85.7863 111.833 85.879C111.621 85.9717 111.403 86.1742 111.182 86.4866C110.972 86.8044 110.719 87.2691 110.422 87.8807ZM116.871 89.7264C117.052 89.3527 117.068 89.0035 116.917 88.6788C116.778 88.3597 116.454 88.0766 115.944 87.8296C115.446 87.588 114.974 87.4644 114.53 87.4586C114.079 87.4641 113.692 87.5562 113.368 87.7347C113.055 87.9186 112.824 88.1635 112.676 88.4694C112.5 88.8318 112.49 89.1837 112.647 89.5252C112.809 89.8835 113.161 90.1944 113.705 90.4579C114.396 90.7927 115.033 90.8778 115.617 90.7129C116.206 90.565 116.624 90.2361 116.871 89.7264ZM105.939 85.1411C105.576 85.8886 105.486 86.5933 105.669 87.2553C105.84 87.9119 106.266 88.4048 106.945 88.7342C107.398 88.9538 107.785 89.0081 108.104 88.8972C108.424 88.7863 108.7 88.5634 108.932 88.2284C109.159 87.9047 109.434 87.4229 109.759 86.7828C109.978 86.3297 110.149 86.0067 110.27 85.8139C110.209 85.3643 110.088 84.9773 109.91 84.653C109.715 84.3346 109.413 84.0765 109.005 83.8789C108.382 83.577 107.799 83.5391 107.256 83.7654C106.713 83.9916 106.274 84.4502 105.939 85.1411Z" fill="#91868C"/>
<path d="M103.122 98.5937C103.1 98.6243 103.058 98.6173 102.997 98.5727C102.936 98.5282 102.916 98.4906 102.939 98.46C103.124 98.2051 103.274 98.01 103.388 97.8747L104.005 97.0601L104.592 96.2232C104.685 96.073 104.821 95.8756 105 95.6309C105.022 95.6003 105.064 95.6073 105.125 95.6519C105.186 95.6964 105.205 95.734 105.183 95.7646C104.99 96.0296 104.874 96.2419 104.836 96.4014C104.801 96.5785 104.84 96.7394 104.953 96.8841C105.069 97.0465 105.274 97.2353 105.57 97.4507L108.002 99.2217C108.593 99.6524 109.108 99.8559 109.547 99.8321C109.988 99.8259 110.383 99.5832 110.732 99.1041C110.948 98.8084 111.094 98.4469 111.171 98.0195C111.241 97.6022 111.231 97.1659 111.142 96.7106L107.854 94.3157C107.558 94.1004 107.319 93.9574 107.136 93.8868C106.956 93.8338 106.787 93.8513 106.63 93.9393C106.482 94.0347 106.312 94.2149 106.119 94.48C106.097 94.5106 106.055 94.5036 105.994 94.4591C105.932 94.4145 105.913 94.3769 105.935 94.3463C106.121 94.0915 106.271 93.8964 106.385 93.7611L107.002 92.9464L107.588 92.1095C107.682 91.9593 107.818 91.7619 107.996 91.5172C108.018 91.4867 108.06 91.4936 108.121 91.5382C108.183 91.5828 108.202 91.6203 108.18 91.6509C107.987 91.916 107.871 92.1282 107.833 92.2877C107.797 92.4648 107.836 92.6257 107.949 92.7705C108.065 92.9328 108.271 93.1217 108.567 93.337L111.564 95.5202C111.9 95.7653 112.175 95.9027 112.387 95.9325C112.6 95.9623 112.773 95.8855 112.906 95.702C113.018 95.5491 113.138 95.2232 113.267 94.7244L113.278 94.7091C113.308 94.6683 113.351 94.6526 113.406 94.6619C113.472 94.6787 113.5 94.7149 113.491 94.7705L113.041 97.2516L112.99 97.3545C112.916 97.4565 112.728 97.4679 112.426 97.3889C112.128 97.3275 111.786 97.1645 111.402 96.8999C111.736 98.2828 111.607 99.382 111.012 100.198C110.604 100.758 110.125 101.073 109.576 101.141C109.02 101.219 108.441 101.04 107.839 100.601L104.857 98.4294C104.561 98.2141 104.322 98.0711 104.14 98.0005C103.96 97.9475 103.791 97.965 103.633 98.053C103.486 98.1484 103.315 98.3286 103.122 98.5937Z" fill="#91868C"/>
<path d="M98.6212 104.143C98.594 104.169 98.5537 104.173 98.5003 104.154C98.4467 104.154 98.4158 104.131 98.4075 104.086C98.486 102.952 98.8923 102.028 99.6264 101.315C100.161 100.795 100.733 100.468 101.343 100.333C101.962 100.208 102.564 100.248 103.151 100.453C103.747 100.667 104.27 101.005 104.719 101.467C105.239 102.001 105.588 102.614 105.766 103.305C105.935 104.004 105.921 104.697 105.723 105.382C105.535 106.077 105.173 106.684 104.638 107.204C104.113 107.715 103.582 107.967 103.046 107.959C102.509 107.969 101.999 107.725 101.514 107.227C101.276 106.982 101.212 106.807 101.32 106.701L104.665 103.423C104.489 103.206 104.348 103.044 104.243 102.935C103.476 102.146 102.674 101.693 101.835 101.574C100.996 101.455 100.237 101.725 99.5577 102.386C99.2858 102.651 99.0901 102.902 98.9705 103.142C98.8506 103.4 98.7387 103.729 98.6348 104.13L98.6212 104.143ZM104.836 106.483C105.217 106.113 105.402 105.677 105.391 105.177C105.389 104.685 105.2 104.173 104.823 103.64L102.401 106.1C102.851 106.562 103.285 106.818 103.705 106.869C104.124 106.937 104.501 106.809 104.836 106.483Z" fill="#91868C"/>
<path d="M99.271 110.012C99.0185 109.665 98.7022 109.466 98.3219 109.416C97.9416 109.365 97.4418 109.386 96.8224 109.478C96.3319 109.554 95.9364 109.601 95.6359 109.616C95.3355 109.632 95.0322 109.58 94.7261 109.46C94.4274 109.35 94.1667 109.142 93.9439 108.836C93.5651 108.316 93.4358 107.731 93.5558 107.082C93.6759 106.433 94.0775 105.86 94.7606 105.362C95.0257 105.169 95.3066 105.019 95.6032 104.912C95.8897 104.813 96.2147 104.756 96.5782 104.741C96.6691 104.737 96.7442 104.776 96.8037 104.857L97.7366 106.074C97.7588 106.104 97.7445 106.138 97.6935 106.175C97.6398 106.23 97.5967 106.246 97.5642 106.223C97.0093 105.846 96.4648 105.635 95.9306 105.587C95.4039 105.549 94.9366 105.679 94.5287 105.976C94.2331 106.191 94.0557 106.43 93.9965 106.691C93.9374 106.953 94.0117 107.226 94.2197 107.512C94.5167 107.919 94.8605 108.145 95.251 108.188C95.6386 108.249 96.1473 108.23 96.7769 108.13C97.2498 108.051 97.6314 108.007 97.9216 107.999C98.2119 107.99 98.5063 108.041 98.805 108.151C99.0935 108.268 99.3529 108.485 99.5831 108.801C99.9916 109.362 100.096 109.934 99.896 110.516C99.6933 111.116 99.3014 111.628 98.7203 112.051C98.3125 112.348 97.8745 112.55 97.4062 112.657C97.2848 112.683 97.198 112.661 97.146 112.589C96.9901 112.375 96.8727 112.203 96.7937 112.073L96.33 111.405C96.3152 111.384 96.3383 111.352 96.3995 111.307C96.4607 111.263 96.4987 111.251 96.5135 111.271C96.7438 111.587 97.125 111.746 97.6573 111.749C98.1869 111.769 98.6453 111.638 99.0328 111.355C99.2775 111.177 99.4266 110.975 99.4802 110.749C99.5339 110.522 99.4641 110.277 99.271 110.012Z" fill="#91868C"/>
<path d="M86.9262 112.677C86.893 112.695 86.8535 112.688 86.8077 112.655C86.7567 112.64 86.7334 112.609 86.7378 112.564C87.125 111.503 87.7672 110.733 88.6643 110.254C89.3179 109.905 89.9541 109.75 90.5732 109.79C91.1981 109.841 91.7626 110.045 92.2666 110.402C92.7765 110.77 93.1823 111.237 93.484 111.801C93.833 112.455 93.9974 113.136 93.9772 113.844C93.9459 114.559 93.7416 115.216 93.3645 115.816C92.9934 116.427 92.481 116.907 91.8275 117.256C91.1851 117.599 90.609 117.693 90.0992 117.538C89.5843 117.4 89.1641 117.027 88.8387 116.418C88.679 116.119 88.6656 115.934 88.7985 115.863L92.8934 113.654C92.7854 113.399 92.6959 113.205 92.6249 113.072C92.1103 112.108 91.4691 111.454 90.7014 111.11C89.9337 110.765 89.1345 110.815 88.3037 111.258C87.9715 111.436 87.7152 111.622 87.5351 111.818C87.3499 112.031 87.1524 112.314 86.9429 112.668L86.9262 112.677ZM92.2149 116.622C92.6801 116.373 92.9765 116.009 93.104 115.528C93.2374 115.058 93.1976 114.517 92.9844 113.905L89.9961 115.586C90.2978 116.151 90.6419 116.515 91.0283 116.679C91.4095 116.86 91.8051 116.841 92.2149 116.622Z" fill="#91868C"/>
<path d="M68.0661 115.959C68.0142 115.957 67.987 115.917 67.9845 115.841C67.9722 115.779 67.9845 115.744 68.0215 115.737L70.2059 115.299C70.7242 115.195 71.6093 115.447 72.8611 116.056C73.6405 114.886 74.7768 114.151 76.2701 113.852C77.0476 113.696 77.7264 113.688 78.3066 113.828C78.8892 113.981 79.3522 114.241 79.6955 114.609C80.0265 114.979 80.2402 115.405 80.3367 115.886C80.4754 116.577 80.3807 117.225 80.0527 117.83C79.7124 118.438 79.1944 119.119 78.4987 119.875C78.7876 120.163 79.0284 120.436 79.2211 120.693C79.73 121.374 80.0438 122.01 80.1626 122.603C80.274 123.158 80.2459 123.69 80.0783 124.199C79.8984 124.71 79.6012 125.148 79.1867 125.514C78.7598 125.882 78.2317 126.129 77.6023 126.255C76.9853 126.379 76.4311 126.336 75.9398 126.126C75.4509 125.929 75.1421 125.509 75.0134 124.868C74.9169 124.386 74.9524 123.924 75.12 123.479C75.2901 123.047 75.5244 122.647 75.8229 122.279C76.1239 121.924 76.542 121.48 77.0774 120.949L77.3661 120.66C76.1707 119.437 74.5828 118.336 72.6026 117.36C72.3833 118.123 72.3603 118.936 72.5336 119.8C72.6326 120.294 72.8043 120.638 73.0488 120.833C73.2834 121.043 73.6599 121.095 74.1782 120.991C74.2152 120.984 74.2473 121.016 74.2745 121.088C74.2894 121.162 74.2721 121.204 74.2228 121.214L70.265 122.027C70.2157 122.036 70.1835 122.004 70.1687 121.93C70.1538 121.856 70.1711 121.814 70.2205 121.804C70.6277 121.723 70.9276 121.618 71.1201 121.489C71.3027 121.376 71.4223 121.236 71.479 121.071C71.5357 120.905 71.5763 120.66 71.6008 120.334C71.7013 119.107 71.9217 118.061 72.2619 117.197C71.4002 116.805 70.6015 116.503 69.8657 116.291C69.13 116.079 68.5301 115.969 68.0661 115.959ZM79.1635 123.766C78.9705 122.803 78.438 121.845 77.5661 120.89C77.0357 121.51 76.6497 122.081 76.4081 122.605C76.1566 123.143 76.0903 123.708 76.2091 124.301C76.318 124.844 76.5453 125.241 76.891 125.493C77.2367 125.744 77.6502 125.822 78.1315 125.725C79.0448 125.542 79.3888 124.889 79.1635 123.766ZM75.4485 114.652C74.4736 114.847 73.7049 115.367 73.1426 116.212C73.3253 116.291 73.4895 116.373 73.6352 116.46C74.4944 116.904 75.3328 117.403 76.1501 117.958C76.9551 118.515 77.6602 119.087 78.2653 119.671C78.6353 119.212 78.9029 118.754 79.068 118.297C79.2356 117.853 79.2687 117.378 79.1672 116.872C79.0657 116.366 78.8409 115.916 78.4926 115.524C78.1345 115.147 77.6888 114.877 77.1555 114.714C76.6222 114.551 76.0532 114.531 75.4485 114.652Z" fill="#91868C"/>
<path d="M50.8524 125.836C50.8274 125.833 50.8198 125.794 50.8294 125.719C50.839 125.644 50.8563 125.608 50.8812 125.612C51.3182 125.668 51.8033 125.546 52.3367 125.246C52.8559 124.958 53.3421 124.531 53.7951 123.968L56.6913 120.532L57.2342 116.3C57.2839 115.913 57.2825 115.627 57.23 115.443C57.1775 115.259 57.0554 115.122 56.8636 115.034C56.6594 114.945 56.3263 114.87 55.8644 114.811C55.827 114.806 55.813 114.766 55.8227 114.691C55.8323 114.617 55.8558 114.582 55.8933 114.586C56.2803 114.636 56.5791 114.681 56.7897 114.72L58.1169 114.91L59.4114 115.057C59.6503 115.075 59.9694 115.109 60.3689 115.16C60.3939 115.164 60.4016 115.203 60.3919 115.278C60.3823 115.352 60.365 115.388 60.3401 115.385C59.8782 115.326 59.5371 115.314 59.3168 115.349C59.0966 115.384 58.9378 115.484 58.8405 115.65C58.7291 115.826 58.6493 116.101 58.6013 116.476L58.0968 120.408L60.5539 125.292C60.8547 125.914 61.1468 126.357 61.4301 126.622C61.7134 126.887 62.0423 127.043 62.4168 127.091C62.4543 127.096 62.4682 127.136 62.4586 127.211C62.449 127.286 62.4254 127.321 62.388 127.316L61.735 127.213C61.4385 127.15 61.2217 127.109 61.0843 127.092C60.6599 127.037 60.109 126.979 59.4316 126.918L58.3805 126.802C58.3555 126.799 58.3479 126.76 58.3575 126.685C58.3671 126.61 58.3844 126.574 58.4093 126.577C59.0211 126.656 59.3453 126.551 59.3822 126.264C59.3982 126.139 59.3504 125.968 59.2387 125.751L56.8583 121.011L54.2488 124.14C53.9008 124.578 53.7076 124.946 53.6692 125.246C53.6083 125.72 53.915 126.001 54.5891 126.087C54.6141 126.091 54.6218 126.13 54.6121 126.204C54.6025 126.279 54.5852 126.315 54.5603 126.312L53.6638 126.178C53.1676 126.089 52.7198 126.019 52.3203 125.968C52.1081 125.94 51.8505 125.92 51.5477 125.907L50.8524 125.836Z" fill="#91868C"/>
<path d="M47.7142 113.568C47.6779 113.558 47.6545 113.525 47.6442 113.47C47.6182 113.423 47.6226 113.385 47.6571 113.355C48.6754 112.861 49.6747 112.754 50.6551 113.033C51.3691 113.237 51.9354 113.569 52.3538 114.029C52.7688 114.501 53.0334 115.041 53.1475 115.65C53.2582 116.271 53.2254 116.89 53.0491 117.507C52.8452 118.221 52.489 118.826 51.9808 119.322C51.4604 119.815 50.8553 120.146 50.1655 120.316C49.4722 120.497 48.7685 120.486 48.0545 120.282C47.3525 120.082 46.8718 119.748 46.6125 119.281C46.3375 118.823 46.2951 118.261 46.4852 117.596C46.5786 117.269 46.6979 117.126 46.8431 117.168L51.3324 118.43C51.4326 118.171 51.5035 117.969 51.545 117.823C51.8457 116.77 51.8396 115.852 51.5266 115.069C51.2136 114.286 50.6033 113.765 49.6955 113.506C49.3325 113.402 49.0178 113.358 48.7515 113.373C48.4697 113.398 48.13 113.464 47.7324 113.573L47.7142 113.568ZM48.7754 120.095C49.2837 120.241 49.7514 120.184 50.1784 119.927C50.602 119.681 50.9503 119.264 51.2235 118.674L47.8987 117.803C47.7224 118.42 47.7163 118.922 47.8806 119.31C48.0293 119.706 48.3276 119.967 48.7754 120.095Z" fill="#91868C"/>
<path d="M36.717 115.5C36.6941 115.489 36.6985 115.449 36.7302 115.381C36.762 115.312 36.7893 115.283 36.8122 115.293C37.11 115.431 37.4153 115.447 37.7281 115.341C38.0241 115.241 38.3779 115.002 38.7893 114.622L43.2922 110.51C43.3415 110.464 43.4178 110.464 43.5208 110.512C43.6125 110.554 43.6623 110.612 43.6702 110.685L43.715 116.999C43.7115 117.609 43.7555 118.025 43.8472 118.248C43.9335 118.483 44.0912 118.653 44.3203 118.758C44.3546 118.774 44.356 118.817 44.3242 118.885C44.2925 118.954 44.2595 118.98 44.2251 118.965C44.0075 118.864 43.8383 118.779 43.7176 118.71L42.9868 118.351L41.8105 117.829C41.6334 117.762 41.396 117.659 41.0982 117.521C41.0638 117.506 41.0625 117.463 41.0942 117.395C41.1259 117.326 41.159 117.299 41.1933 117.315C41.8691 117.627 42.2678 117.651 42.3894 117.388C42.4317 117.296 42.4511 117.194 42.4476 117.081L42.3855 111.843L39.1184 114.857C38.9378 115.038 38.8184 115.191 38.7603 115.317C38.5382 115.798 38.8682 116.242 39.7501 116.649C39.773 116.66 39.7686 116.699 39.7369 116.768C39.7052 116.837 39.6779 116.866 39.655 116.855C39.3457 116.713 39.1136 116.599 38.9585 116.513L37.9356 116.02L37.2747 115.736C37.1549 115.695 36.969 115.616 36.717 115.5Z" fill="#91868C"/>
<path d="M35.7406 106.65C35.1835 106.259 34.745 105.918 34.425 105.626C34.098 105.345 33.871 104.994 33.744 104.574C33.6136 104.136 33.7176 103.667 34.056 103.165C34.4437 102.591 34.986 102.181 35.6829 101.937C36.3799 101.692 37.13 101.628 37.9333 101.745C38.7262 101.854 39.4569 102.134 40.1255 102.585C40.8359 103.065 41.2925 103.616 41.4953 104.239C41.6947 104.845 41.6252 105.398 41.2868 105.9C40.7722 106.663 39.7319 107.055 38.1658 107.078C38.4996 107.394 38.7146 107.707 38.8108 108.015C38.907 108.323 38.8458 108.639 38.6273 108.963C38.4158 109.276 38.1367 109.498 37.7899 109.629C37.4256 109.763 36.9515 109.846 36.3676 109.878C36.6134 110.303 36.7351 110.742 36.7326 111.196C36.723 111.661 36.5913 112.081 36.3376 112.458C35.9358 113.053 35.3677 113.377 34.6334 113.429C33.8886 113.473 33.1506 113.249 32.4193 112.756C31.7611 112.312 31.3271 111.783 31.1173 111.17C30.712 111.14 30.3505 111.079 30.033 110.986C29.7084 110.904 29.3946 110.761 29.0916 110.556C29.0603 110.535 29.0676 110.479 29.1135 110.389C29.1419 110.301 29.1879 110.211 29.2513 110.117C29.3359 109.991 29.4397 109.871 29.5627 109.757C29.6857 109.642 29.761 109.609 29.7887 109.658C30.0173 110.041 30.3196 110.359 30.6957 110.612C30.842 110.711 30.9552 110.78 31.0354 110.819C30.9444 110.21 31.068 109.655 31.4064 109.154C31.6601 108.777 32.0024 108.507 32.4333 108.341C32.8642 108.176 33.3363 108.13 33.8497 108.202C34.3527 108.268 34.8445 108.463 35.325 108.787C35.6489 109.006 35.9427 109.28 36.2066 109.61C36.5004 109.58 36.7384 109.52 36.9206 109.43C37.1029 109.341 37.2539 109.207 37.3738 109.029C37.5359 108.789 37.5861 108.557 37.5245 108.333C37.4628 108.109 37.2929 107.865 37.0147 107.601C36.7295 107.348 36.3048 107.031 35.7406 106.65ZM32.9959 112.78C33.3406 113.012 33.6846 113.077 34.0277 112.974C34.3638 112.882 34.6904 112.6 35.0076 112.13C35.3178 111.671 35.5073 111.221 35.5761 110.781C35.6345 110.334 35.5983 109.937 35.4674 109.59C35.3294 109.254 35.1194 108.991 34.8374 108.8C34.5031 108.575 34.1556 108.515 33.795 108.621C33.4168 108.731 33.0586 109.037 32.7203 109.538C32.2903 110.175 32.1156 110.795 32.1961 111.397C32.2592 112.002 32.5258 112.463 32.9959 112.78ZM39.0926 102.595C38.403 102.13 37.7172 101.941 37.0351 102.028C36.3601 102.105 35.8111 102.457 35.3882 103.083C35.1062 103.501 34.9975 103.876 35.0621 104.209C35.1267 104.541 35.3085 104.846 35.6075 105.124C35.8962 105.395 36.3347 105.736 36.9231 106.148C37.341 106.43 37.6369 106.645 37.8109 106.793C38.2653 106.795 38.6659 106.731 39.0126 106.6C39.356 106.452 39.6546 106.19 39.9083 105.814C40.296 105.239 40.4163 104.667 40.2692 104.096C40.122 103.525 39.7298 103.025 39.0926 102.595Z" fill="#91868C"/>
<path d="M27.5557 100.405C27.528 100.379 27.5222 100.339 27.5381 100.285C27.5362 100.232 27.5574 100.2 27.6015 100.19C28.7334 100.212 29.6722 100.571 30.418 101.266C30.9612 101.773 31.3146 102.326 31.4781 102.925C31.6331 103.534 31.623 104.136 31.4479 104.73C31.2643 105.333 30.9536 105.869 30.5158 106.339C30.0095 106.882 29.4171 107.259 28.7387 107.47C28.0512 107.672 27.3616 107.692 26.6702 107.529C25.9701 107.375 25.3485 107.046 24.8053 106.539C24.2713 106.041 23.9949 105.526 23.9762 104.992C23.9396 104.459 24.1574 103.939 24.6295 103.433C24.8612 103.184 25.0323 103.112 25.1428 103.215L28.5669 106.38C28.7741 106.195 28.9293 106.047 29.0322 105.937C29.779 105.136 30.191 104.315 30.2684 103.476C30.3458 102.636 30.0392 101.894 29.3487 101.25C29.0725 100.993 28.8123 100.81 28.568 100.703C28.306 100.597 27.9732 100.502 27.5695 100.418L27.5557 100.405ZM25.5323 106.701C25.919 107.061 26.3611 107.224 26.8586 107.188C27.3475 107.162 27.8477 106.949 28.359 106.548L25.794 104.26C25.3563 104.73 25.1225 105.174 25.0927 105.594C25.0451 106.014 25.1917 106.383 25.5323 106.701Z" fill="#91868C"/>
<path d="M21.7169 91.8146C21.6939 91.7844 21.7125 91.7463 21.773 91.7002C21.8334 91.6541 21.8751 91.6462 21.8981 91.6764C22.0901 91.9281 22.2348 92.1283 22.3322 92.277L22.939 93.1041L23.5761 93.9081C23.6936 94.0414 23.8446 94.2289 24.0288 94.4706C24.0519 94.5008 24.0332 94.5389 23.9728 94.585C23.9124 94.631 23.8706 94.639 23.8476 94.6088C23.648 94.347 23.4769 94.1748 23.3344 94.0924C23.1742 94.0076 23.0082 93.9988 22.8365 94.066C22.6471 94.1308 22.4064 94.2745 22.1143 94.4972L19.7127 96.3283C19.1287 96.7736 18.7852 97.2106 18.6823 97.6394C18.5616 98.0658 18.6816 98.5157 19.0425 98.9889C19.2652 99.2809 19.571 99.5254 19.9601 99.7224C20.3415 99.9093 20.7641 100.025 21.228 100.069L24.4754 97.5934C24.7674 97.3708 24.9736 97.1817 25.0939 97.0263C25.1965 96.8684 25.2281 96.7011 25.1887 96.5241C25.1392 96.3548 25.0147 96.1393 24.815 95.8775C24.792 95.8473 24.8107 95.8091 24.8711 95.7631C24.9315 95.717 24.9733 95.7091 24.9963 95.7393C25.1883 95.991 25.3329 96.1912 25.4304 96.3398L26.0372 97.1669L26.6742 97.971C26.7918 98.1043 26.9427 98.2918 27.127 98.5334C27.15 98.5636 27.1313 98.6018 27.0709 98.6478C27.0105 98.6939 26.9688 98.7018 26.9458 98.6716C26.7461 98.4098 26.5751 98.2377 26.4326 98.1553C26.2723 98.0704 26.1064 98.0616 25.9347 98.1288C25.7453 98.1937 25.5045 98.3374 25.2125 98.56L22.252 100.817C21.9198 101.071 21.7088 101.295 21.6192 101.491C21.5296 101.687 21.5539 101.875 21.6921 102.056C21.8072 102.207 22.0862 102.417 22.529 102.684L22.5406 102.699C22.5713 102.739 22.5742 102.785 22.5492 102.836C22.5143 102.894 22.4713 102.911 22.4205 102.886L20.1623 101.742L20.0781 101.663C20.0014 101.562 20.0442 101.378 20.2067 101.111C20.3515 100.841 20.6063 100.559 20.9712 100.265C19.5447 100.19 18.5243 99.7503 17.9101 98.9447C17.4877 98.3909 17.3225 97.8402 17.4144 97.2924C17.4986 96.7346 17.8378 96.2292 18.4319 95.7762L21.3772 93.5305C21.6693 93.3079 21.8754 93.1188 21.9958 92.9634C22.0983 92.8056 22.1299 92.6382 22.0905 92.4612C22.0411 92.2919 21.9165 92.0764 21.7169 91.8146Z" fill="#91868C"/>
<path d="M12.3768 93.7334C12.5105 93.9759 12.5507 94.2053 12.4974 94.4215C12.438 94.6266 12.2871 94.7961 12.0445 94.9297C11.8241 95.0512 11.6112 95.0823 11.406 95.0229C11.1948 94.9525 11.0223 94.796 10.8886 94.5535C10.7611 94.322 10.727 94.1037 10.7863 93.8985C10.8457 93.6933 10.9856 93.53 11.2061 93.4085C11.4486 93.2748 11.6725 93.2377 11.8777 93.2971C12.0829 93.3565 12.2492 93.5019 12.3768 93.7334ZM21.5771 90.5172C21.5953 90.5503 21.5714 90.5851 21.5052 90.6215C21.4391 90.658 21.3969 90.6596 21.3787 90.6266C21.1539 90.2187 20.9334 89.9881 20.7172 89.9348C20.4899 89.8876 20.1448 89.9916 19.6818 90.2467L16.6062 91.9416C16.2204 92.1542 15.9606 92.3477 15.8267 92.5221C15.6929 92.6964 15.6806 92.8828 15.79 93.0812C15.8933 93.2686 16.1041 93.4686 16.4225 93.6812L16.4316 93.6977C16.4559 93.7418 16.4466 93.7901 16.4036 93.8425C16.3606 93.8949 16.316 93.9052 16.2696 93.8732L14.0323 92.239L13.9794 92.182C13.9611 92.1489 13.9594 92.1068 13.9743 92.0555C13.9831 91.9931 14.004 91.9529 14.037 91.9347C14.1142 91.8921 14.3377 91.7761 14.7076 91.5867C15.0774 91.3972 15.5104 91.1658 16.0064 90.8925L19.0986 89.1885C19.4183 89.0123 19.6486 88.8566 19.7897 88.7214C19.9136 88.5812 19.9692 88.4213 19.9563 88.2415C19.9325 88.0678 19.8416 87.8377 19.6836 87.5511C19.6654 87.518 19.6893 87.4833 19.7555 87.4468C19.8216 87.4104 19.8638 87.4087 19.882 87.4417C20.0339 87.7173 20.1469 87.9353 20.2209 88.0957L20.6965 88.9977L21.2234 89.9145C21.3195 90.0628 21.4374 90.2637 21.5771 90.5172Z" fill="#91868C"/>
<path d="M9.68316 81.7864C9.66951 81.7512 9.69789 81.72 9.76831 81.6927C9.83872 81.6654 9.88076 81.6693 9.89441 81.7045C10.0173 82.0214 10.2334 82.2481 10.5428 82.3846C10.8477 82.5094 11.297 82.5715 11.8907 82.5708L18.3429 82.4995C19.6496 82.4925 20.6949 82.5598 21.4787 82.7014C22.2698 82.8267 22.8799 83.0424 23.3091 83.3485C23.7454 83.6383 24.0637 84.0414 24.2639 84.5578C24.3731 84.8394 24.395 85.0874 24.3296 85.3018C24.2805 85.5233 24.1386 85.6796 23.9039 85.7706C23.7161 85.8433 23.5444 85.8357 23.3887 85.7475C23.2493 85.6666 23.1478 85.5439 23.0841 85.3796C23.0249 85.2271 22.9948 85.097 22.9936 84.9895C22.9996 84.8657 23.0173 84.7373 23.0468 84.6044C23.0494 84.5764 23.0596 84.4982 23.0773 84.3698C23.0905 84.2297 23.0652 84.0775 23.0015 83.9132C22.8923 83.6316 22.6667 83.4153 22.3247 83.2644C21.9945 83.1089 21.4931 82.9995 20.8206 82.9362C20.1598 82.8684 19.2497 82.8365 18.0903 82.8404L13.649 87.6804C13.2373 88.1505 12.9824 88.4855 12.8844 88.6855C12.7747 88.89 12.7631 89.1038 12.8496 89.3267C12.8587 89.3502 12.828 89.3756 12.7576 89.4029C12.6872 89.4302 12.6474 89.4321 12.6383 89.4086C12.5337 89.1387 12.4599 88.9311 12.417 88.7857L12.1958 88.1628L11.7346 87.0254C11.6546 86.8539 11.5577 86.6214 11.444 86.3281C11.4349 86.3046 11.4655 86.2792 11.5359 86.2519C11.6064 86.2246 11.6461 86.2227 11.6552 86.2462C11.7826 86.5748 11.9098 86.8157 12.0367 86.969C12.1591 87.1105 12.2907 87.154 12.4315 87.0994C12.4902 87.0767 12.5786 87.0087 12.6966 86.8954L16.4988 82.8094L12.0829 82.9621C11.7648 82.9773 11.5178 83.0191 11.3418 83.0874C11.0601 83.1965 10.9015 83.3795 10.8661 83.6362C10.8143 83.8858 10.8772 84.2394 11.0546 84.6971C11.0637 84.7206 11.0331 84.7459 10.9627 84.7732C10.8922 84.8005 10.8525 84.8024 10.8434 84.779C10.7205 84.4621 10.6331 84.2193 10.5812 84.0504L10.1893 82.9874L9.92598 82.3605C9.8642 82.236 9.78326 82.0446 9.68316 81.7864Z" fill="#91868C"/>
<path d="M14.0664 61.5714C14.0754 61.5203 14.118 61.4983 14.1943 61.5056C14.257 61.5012 14.2898 61.5178 14.2924 61.5554L14.449 63.7778C14.4862 64.3051 14.123 65.1508 13.3597 66.315C14.4214 67.237 15.0059 68.4576 15.1129 69.9768C15.1686 70.7678 15.09 71.4421 14.8769 71.9997C14.6513 72.5582 14.3343 72.9843 13.926 73.278C13.5168 73.5592 13.0673 73.717 12.5777 73.7515C11.8746 73.8011 11.2439 73.6247 10.6856 73.2224C10.1264 72.8075 9.51628 72.207 8.85522 71.4208C8.53215 71.6707 8.23109 71.8749 7.95204 72.0333C7.21181 72.4514 6.54036 72.6816 5.93769 72.7241C5.37269 72.7639 4.84862 72.6683 4.36549 72.4374C3.88147 72.1939 3.48454 71.8433 3.17471 71.3857C2.86398 70.9155 2.68606 70.3602 2.64095 69.7199C2.59672 69.0921 2.70978 68.5479 2.98016 68.0872C3.23797 67.6274 3.69332 67.3745 4.34621 67.3285C4.83588 67.294 5.29045 67.3882 5.70992 67.611C6.11683 67.8347 6.48378 68.118 6.81077 68.4608C7.1252 68.8046 7.5117 69.2758 7.97027 69.8744L8.22015 70.1974C9.58602 69.1675 10.8792 67.7326 12.0997 65.8927C11.3709 65.5782 10.5671 65.4518 9.68819 65.5137C9.18597 65.5491 8.82266 65.6757 8.59826 65.8934C8.36042 66.0994 8.26007 66.4661 8.29723 66.9934C8.29988 67.0311 8.26398 67.0588 8.18954 67.0767C8.1142 67.082 8.07477 67.0595 8.07123 67.0093L7.76843 62.9803C7.76489 62.9301 7.80078 62.9023 7.87612 62.897C7.95145 62.8917 7.99089 62.9142 7.99443 62.9644C8.02362 63.3787 8.08968 63.6895 8.19261 63.8968C8.28209 64.0923 8.40527 64.2288 8.56213 64.306C8.71899 64.3833 8.95746 64.4548 9.27754 64.5206C10.4816 64.7765 11.4906 65.1281 12.3044 65.5755C12.8029 64.7707 13.2041 64.0169 13.5078 63.3141C13.8116 62.6114 13.9978 62.0304 14.0664 61.5714ZM4.9111 71.5851C5.89043 71.5161 6.9091 71.11 7.9671 70.3667C7.41976 69.7617 6.90187 69.3061 6.41343 68.9998C5.91155 68.6819 5.35928 68.5442 4.75661 68.5866C4.20417 68.6255 3.78117 68.8004 3.48763 69.1113C3.19409 69.4222 3.06457 69.8225 3.09907 70.3122C3.16453 71.2413 3.76854 71.6656 4.9111 71.5851ZM14.4237 69.0601C14.3538 68.0682 13.9358 67.2397 13.1698 66.5744C13.0683 66.7456 12.9654 66.898 12.8613 67.0315C12.3117 67.8273 11.7097 68.5952 11.0552 69.3353C10.3999 70.0628 9.74373 70.6895 9.08679 71.2152C9.4953 71.6407 9.91557 71.9644 10.3476 72.1863C10.7671 72.4091 11.2342 72.5024 11.749 72.4661C12.2637 72.4298 12.7378 72.264 13.1713 71.9685C13.5913 71.6613 13.9158 71.2536 14.145 70.7453C14.3742 70.2371 14.4671 69.6753 14.4237 69.0601Z" fill="#91868C"/>
<path d="M18.1622 44.6558C18.1757 44.6073 18.2188 44.5932 18.2916 44.6134C18.3644 44.6337 18.394 44.668 18.3805 44.7165C18.3164 44.9469 18.2048 45.3013 18.0457 45.7796C17.8865 46.2579 17.7749 46.6123 17.7109 46.8427C17.6333 47.1216 17.5493 47.4706 17.4589 47.8896C17.3752 48.2844 17.3031 48.5909 17.2424 48.8092C17.2289 48.8577 17.1857 48.8719 17.113 48.8516C17.0402 48.8314 17.0106 48.797 17.0241 48.7485C17.1455 48.312 17.1951 47.9926 17.1729 47.7905C17.142 47.5729 17.0234 47.4354 16.8173 47.3781C16.6354 47.3275 16.3389 47.3365 15.9279 47.4051L12.2187 48.059L11.0097 52.4064L13.2033 54.1725C13.5233 54.4313 13.8348 54.6028 14.138 54.6871C14.902 54.8996 15.4475 54.4177 15.7746 53.2414C15.7915 53.1807 15.8363 53.1605 15.9091 53.1808C15.9818 53.201 16.0098 53.2414 15.9929 53.3021C15.9322 53.5204 15.8324 53.8323 15.6935 54.2378C15.5411 54.6919 15.4177 55.0887 15.3232 55.4282C15.2389 55.7314 15.1482 56.1046 15.0511 56.5479C14.9741 56.9185 14.9003 57.2311 14.8294 57.4857C14.8126 57.5463 14.7678 57.5665 14.695 57.5463C14.6223 57.5261 14.5943 57.4857 14.6112 57.425C14.7056 57.0855 14.7242 56.7836 14.667 56.5195C14.6011 56.2399 14.4347 55.9454 14.168 55.6361C13.9013 55.3268 13.4898 54.9511 12.9334 54.509L5.01489 48.1724C4.98526 48.138 4.98056 48.0844 5.00079 48.0117C5.02102 47.9389 5.05102 47.9015 5.09077 47.8995L15.3169 46.079C16.3168 45.9129 17.0149 45.7281 17.4111 45.5248C17.8073 45.3214 18.0577 45.0318 18.1622 44.6558ZM10.6733 52.1365L11.7861 48.1347L6.7974 49.0207L10.6733 52.1365Z" fill="#91868C"/>
<path d="M20.2249 40.8708C20.5496 40.2735 20.8386 39.7996 21.0918 39.4489C21.3339 39.0925 21.6562 38.8273 22.0586 38.6535C22.4781 38.4744 22.9558 38.5241 23.4919 38.8028C24.1061 39.1221 24.574 39.6137 24.8957 40.2774C25.2173 40.9411 25.3661 41.6781 25.3421 42.4884C25.3238 43.2875 25.1289 44.0444 24.7573 44.7591C24.3624 45.5185 23.8673 46.0342 23.2719 46.3063C22.6934 46.573 22.1362 46.567 21.6001 46.2883C20.7849 45.8645 20.2769 44.877 20.0763 43.3257C19.8002 43.6929 19.5148 43.9417 19.22 44.0722C18.9252 44.2026 18.6047 44.1779 18.2585 43.9979C17.9234 43.8237 17.6713 43.5721 17.502 43.2429C17.3273 42.8967 17.191 42.4358 17.0931 41.86C16.7001 42.1522 16.278 42.3228 15.8268 42.372C15.3645 42.4154 14.9323 42.3326 14.5302 42.1236C13.8937 41.7926 13.5079 41.2658 13.373 40.5431C13.2438 39.8092 13.3825 39.0515 13.7889 38.2697C14.1547 37.5662 14.6298 37.0755 15.214 36.7976C15.1979 36.392 15.2178 36.0264 15.2736 35.7008C15.3183 35.3693 15.4248 35.0417 15.5932 34.7178C15.6106 34.6843 15.6669 34.6852 15.762 34.7205C15.8518 34.7388 15.9469 34.7741 16.0474 34.8263C16.1815 34.896 16.3123 34.9853 16.4401 35.0943C16.5679 35.2033 16.609 35.2743 16.5634 35.3074C16.2101 35.5776 15.9289 35.9138 15.7199 36.3158C15.6386 36.4721 15.5832 36.5923 15.5537 36.6763C16.1474 36.5168 16.7122 36.5763 17.2483 36.855C17.6503 37.064 17.9579 37.3729 18.171 37.7816C18.3841 38.1902 18.4837 38.6534 18.4699 39.1711C18.4619 39.6777 18.3244 40.1878 18.0573 40.7015C17.8773 41.0477 17.6385 41.3704 17.341 41.6697C17.404 41.9578 17.4905 42.1872 17.6004 42.3578C17.7103 42.5284 17.8602 42.6631 18.05 42.7618C18.3069 42.8953 18.543 42.9187 18.7583 42.832C18.9736 42.7454 19.1962 42.549 19.4263 42.243C19.6451 41.9312 19.9113 41.4738 20.2249 40.8708ZM13.8305 38.8446C13.6389 39.2131 13.6137 39.5618 13.7549 39.8905C13.8849 40.2134 14.2012 40.5055 14.7037 40.7668C15.1951 41.0222 15.663 41.1591 16.1075 41.1774C16.5577 41.1845 16.9475 41.1034 17.2767 40.934C17.5947 40.7589 17.8321 40.5206 17.9889 40.2191C18.1747 39.8617 18.1943 39.5102 18.0478 39.1645C17.8959 38.8018 17.5519 38.4811 17.0159 38.2024C16.3346 37.8483 15.7001 37.7454 15.1123 37.8937C14.5191 38.0251 14.0918 38.3421 13.8305 38.8446ZM24.6299 43.7353C25.0131 42.9983 25.1227 42.2963 24.9588 41.6295C24.8059 40.9684 24.3945 40.4637 23.7244 40.1153C23.2777 39.8831 22.8931 39.8179 22.5706 39.9198C22.2481 40.0217 21.966 40.2368 21.7244 40.5651C21.4886 40.8823 21.1996 41.3562 20.8574 41.987C20.6252 42.4337 20.4456 42.7517 20.3188 42.9411C20.368 43.3922 20.4772 43.7824 20.6465 44.1116C20.8328 44.4354 21.127 44.7018 21.529 44.9108C22.1432 45.2301 22.7251 45.2843 23.2745 45.0735C23.8239 44.8626 24.2757 44.4165 24.6299 43.7353Z" fill="#91868C"/>
<path d="M27.8533 30.4483C27.8764 30.4185 27.9177 30.4266 27.9774 30.4727C28.037 30.5187 28.0554 30.5567 28.0323 30.5865C27.8404 30.8351 27.6857 31.0252 27.5682 31.1567L26.9314 31.9506L26.3244 32.7675C26.2268 32.9144 26.0859 33.1071 25.9016 33.3458C25.8786 33.3756 25.8372 33.3675 25.7776 33.3214C25.7179 33.2753 25.6996 33.2374 25.7226 33.2076C25.9223 32.949 26.0433 32.7409 26.0857 32.5832C26.1259 32.4079 26.0917 32.2466 25.9832 32.0993C25.8724 31.9345 25.6729 31.7407 25.3845 31.5181L23.0129 29.687C22.4362 29.2417 21.9291 29.0248 21.4917 29.0362C21.052 29.03 20.6518 29.2606 20.2909 29.728C20.0682 30.0163 19.9125 30.3722 19.8236 30.7956C19.7424 31.2091 19.7401 31.6437 19.8166 32.0996L23.0234 34.5756C23.3118 34.7982 23.5459 34.9473 23.7258 35.0226C23.9034 35.0804 24.0719 35.0677 24.2314 34.9845C24.381 34.8936 24.5555 34.7189 24.7552 34.4604C24.7782 34.4306 24.8196 34.4387 24.8792 34.4848C24.9389 34.5308 24.9572 34.5688 24.9342 34.5986C24.7422 34.8472 24.5875 35.0372 24.4701 35.1688L23.8332 35.9627L23.2262 36.7796C23.1286 36.9264 22.9877 37.1192 22.8035 37.3578C22.7804 37.3877 22.7391 37.3796 22.6794 37.3335C22.6198 37.2874 22.6014 37.2495 22.6245 37.2196C22.8241 36.9611 22.9451 36.753 22.9876 36.5953C23.0277 36.42 22.9935 36.2587 22.885 36.1114C22.7743 35.9465 22.5747 35.7528 22.2863 35.5301L19.3629 33.2729C19.0347 33.0196 18.7654 32.8751 18.5548 32.8395C18.3442 32.8039 18.1698 32.8755 18.0316 33.0545C17.9164 33.2037 17.7875 33.5247 17.6449 34.0178L17.6334 34.0327C17.6027 34.0724 17.5598 34.0869 17.5046 34.0761C17.4396 34.0576 17.4124 34.0208 17.4233 33.9656L17.9402 31.5079L17.9944 31.4069C18.0712 31.3075 18.2585 31.3013 18.5563 31.3884C18.8519 31.4579 19.1874 31.6297 19.563 31.9038C19.2684 30.5177 19.4282 29.4269 20.0424 28.6315C20.4647 28.0846 20.9502 27.7848 21.4987 27.7322C22.0549 27.6697 22.6264 27.8649 23.2131 28.3178L26.1216 30.5635C26.41 30.7862 26.6441 30.9352 26.824 31.0106C27.0016 31.0683 27.1701 31.0556 27.3296 30.9724C27.4791 30.8816 27.6537 30.7069 27.8533 30.4483Z" fill="#91868C"/>
<path d="M32.4947 25.0151C32.5224 24.9895 32.5626 24.9866 32.6152 25.0065C32.6686 25.0086 32.6989 25.0321 32.706 25.0769C32.5992 26.2039 32.1713 27.1133 31.4225 27.8052C30.8771 28.3091 30.2992 28.6203 29.6888 28.7388C29.0699 28.8479 28.4708 28.7931 27.8916 28.5743C27.3038 28.3463 26.7921 27.9965 26.3564 27.5251C25.8524 26.9797 25.5205 26.3609 25.3608 25.6688C25.2103 24.9681 25.2419 24.2791 25.4557 23.6017C25.661 22.9151 26.0363 22.3198 26.5817 21.8158C27.1179 21.3204 27.6528 21.0832 28.1864 21.1043C28.7207 21.1076 29.2228 21.3634 29.6926 21.8718C29.9233 22.1214 29.9831 22.2974 29.8722 22.4L26.4599 25.5786C26.6294 25.799 26.7654 25.9647 26.8679 26.0757C27.6111 26.8799 28.3986 27.3518 29.2304 27.4915C30.0621 27.6312 30.8247 27.3808 31.518 26.7401C31.7954 26.4839 31.9966 26.238 32.1217 26.0024C32.2475 25.7491 32.3672 25.4243 32.4808 25.028L32.4947 25.0151ZM26.3665 22.5288C25.9783 22.8876 25.7832 23.3163 25.7813 23.815C25.7709 24.3045 25.9466 24.8191 26.3083 25.3588L28.7808 22.9714C28.3451 22.5 27.9191 22.2338 27.5029 22.1728C27.0874 22.0941 26.7086 22.2128 26.3665 22.5288Z" fill="#91868C"/>
<path d="M31.9902 19.1379C32.2342 19.4888 32.545 19.6937 32.9228 19.7526C33.3005 19.8115 33.799 19.8018 34.4181 19.7236C34.9085 19.6582 35.3035 19.6209 35.6032 19.6116C35.9029 19.6023 36.204 19.661 36.5063 19.7876C36.8015 19.9039 37.0567 20.1168 37.2719 20.4265C37.6378 20.9528 37.7538 21.5381 37.6199 22.1823C37.486 22.8264 37.0733 23.3888 36.3817 23.8695C36.1134 24.056 35.8302 24.1992 35.5323 24.2992C35.2447 24.3919 34.9196 24.4418 34.5571 24.4489C34.4665 24.4506 34.3925 24.4102 34.3351 24.3277L33.4324 23.0952C33.4109 23.0643 33.4259 23.0308 33.4775 22.995C33.5323 22.9416 33.5756 22.9268 33.6074 22.9506C34.1519 23.3375 34.6898 23.5607 35.221 23.6201C35.745 23.6692 36.2134 23.5502 36.6262 23.2633C36.9256 23.0552 37.1076 22.8216 37.1723 22.5623C37.2369 22.303 37.1689 22.0289 36.968 21.7399C36.681 21.3271 36.3434 21.0948 35.9554 21.0431C35.5705 20.9738 35.0633 20.9819 34.4338 21.0674C33.9609 21.1359 33.5798 21.1712 33.2904 21.1733C33.001 21.1754 32.7087 21.1183 32.4136 21.002C32.1287 20.8786 31.8751 20.6569 31.6527 20.3369C31.2581 19.7693 31.1667 19.1975 31.3787 18.6215C31.5938 18.0281 31.9955 17.5269 32.5838 17.118C32.9967 16.831 33.4375 16.6394 33.9064 16.5431C34.028 16.5198 34.1139 16.5443 34.1641 16.6166C34.3148 16.8333 34.428 17.0072 34.5038 17.1382L34.9511 17.8147C34.9654 17.8353 34.9416 17.8672 34.8797 17.9102C34.8178 17.9532 34.7797 17.9644 34.7653 17.9438C34.5429 17.6239 34.1665 17.4568 33.6362 17.4427C33.1091 17.4111 32.6494 17.5316 32.2572 17.8043C32.0095 17.9764 31.8564 18.1747 31.798 18.3989C31.7396 18.6232 31.8037 18.8695 31.9902 19.1379Z" fill="#91868C"/>
<path d="M44.8341 17.5687C44.8678 17.5518 44.9073 17.5601 44.9524 17.5938C45.0031 17.6106 45.0257 17.6415 45.0201 17.6865C44.6059 18.74 43.9433 19.4957 43.0324 19.9536C42.3689 20.2871 41.7275 20.4264 41.1082 20.3715C40.4832 20.3053 39.9227 20.087 39.4265 19.7165C38.9247 19.3349 38.5296 18.8573 38.2412 18.2838C37.9076 17.6203 37.7598 16.9339 37.7976 16.2246C37.8467 15.5096 38.0676 14.8562 38.4604 14.2643C38.8474 13.6612 39.3727 13.1929 40.0362 12.8593C40.6885 12.5315 41.2681 12.4514 41.7751 12.6192C42.2877 12.77 42.6994 13.1547 43.0104 13.7732C43.163 14.0768 43.1719 14.2626 43.0369 14.3304L38.8789 16.4418C38.9808 16.7005 39.0656 16.8973 39.1335 17.0322C39.6254 18.0106 40.2517 18.6819 41.0124 19.0461C41.7731 19.4103 42.5752 19.3805 43.4186 18.9565C43.756 18.7869 44.0174 18.6062 44.2027 18.4144C44.3936 18.2057 44.5985 17.9267 44.8172 17.5772L44.8341 17.5687ZM39.6323 13.485C39.16 13.7224 38.854 14.0805 38.7143 14.5593C38.569 15.0268 38.5955 15.5699 38.7939 16.1887L41.8301 14.5779C41.5417 14.0044 41.206 13.6308 40.8228 13.4571C40.4452 13.2665 40.0484 13.2758 39.6323 13.485Z" fill="#91868C"/>
<path d="M63.3307 13.981C63.3824 13.9849 63.4085 14.0251 63.4089 14.1017C63.4195 14.1637 63.4063 14.1979 63.3691 14.2043L61.1734 14.5816C60.6524 14.6711 59.7747 14.3941 58.5402 13.7505C57.7286 14.8989 56.5723 15.602 55.0713 15.8599C54.2898 15.9942 53.6111 15.9831 53.035 15.8267C52.4568 15.6578 52.0013 15.3849 51.6683 15.0079C51.3477 14.6287 51.1458 14.1973 51.0627 13.7135C50.9433 13.0188 51.056 12.3737 51.4006 11.7781C51.7576 11.1803 52.2944 10.5134 53.0108 9.77731C52.7299 9.48075 52.4968 9.20153 52.3113 8.93967C51.8215 8.24478 51.5255 7.59962 51.4231 7.00419C51.3272 6.44597 51.3701 5.915 51.5517 5.41126C51.7457 4.90539 52.055 4.4755 52.4795 4.1216C52.9164 3.76557 53.4511 3.53321 54.0838 3.4245C54.704 3.31794 55.2568 3.37621 55.7422 3.59933C56.2254 3.81004 56.5224 4.23792 56.6332 4.88297C56.7164 5.36676 56.668 5.82845 56.4881 6.26803C56.3061 6.69521 56.0608 7.08856 55.7522 7.44809C55.4415 7.79521 55.0112 8.22673 54.4613 8.74266L54.1647 9.0235C55.3257 10.2799 56.8824 11.4237 58.8348 12.4547C59.0751 11.6982 59.1207 10.8858 58.9715 10.0175C58.8862 9.5213 58.7241 9.17241 58.4851 8.97082C58.2564 8.75469 57.8815 8.69139 57.3605 8.78091C57.3233 8.7873 57.2921 8.75435 57.2669 8.68205C57.2541 8.60762 57.2725 8.56614 57.3222 8.55762L61.3009 7.85483C61.3506 7.84631 61.3818 7.87926 61.3946 7.95369C61.4073 8.02812 61.3889 8.06959 61.3393 8.07812C60.9299 8.14846 60.6273 8.24516 60.4313 8.36823C60.2456 8.47676 60.1222 8.61291 60.0609 8.77669C59.9997 8.94047 59.9523 9.18488 59.9187 9.50992C59.7842 10.7335 59.5349 11.7725 59.1708 12.6269C60.0213 13.0427 60.8114 13.3667 61.5409 13.5989C62.2705 13.8312 62.8671 13.9585 63.3307 13.981ZM52.4541 5.86921C52.6204 6.83679 53.1261 7.80991 53.9711 8.78857C54.5185 8.18368 54.9202 7.62297 55.1763 7.10644C55.4426 6.57538 55.5246 6.01213 55.4223 5.4167C55.3285 4.87089 55.1123 4.46743 54.7737 4.20633C54.4351 3.94523 54.0239 3.85624 53.5401 3.93937C52.6221 4.09709 52.2601 4.74037 52.4541 5.86921ZM55.9148 15.0828C56.8948 14.9144 57.6776 14.416 58.2631 13.5874C58.0827 13.5035 57.9208 13.4163 57.7776 13.326C56.931 12.8585 56.1069 12.336 55.3052 11.7585C54.516 11.1789 53.827 10.5885 53.2384 9.98724C52.8558 10.4361 52.5756 10.8865 52.3978 11.3385C52.218 11.7781 52.1717 12.2522 52.2591 12.7608C52.3465 13.2694 52.5588 13.7246 52.8961 14.1264C53.2436 14.5137 53.6816 14.796 54.2102 14.9734C54.7388 15.1508 55.307 15.1873 55.9148 15.0828Z" fill="#91868C"/>
</g>
<defs>
<clipPath id="clip0_140_198">
<rect width="130" height="130" fill="white"/>
</clipPath>
</defs>
</svg>
