<svg width="44" height="34" viewBox="0 0 44 34" fill="none" xmlns="http://www.w3.org/2000/svg">
<path d="M26.6986 12.8044C24.6986 18.6844 19.4386 26.5244 19.4386 26.5244C19.4386 26.5244 5.89864 21.2944 2.76864 16.8644C0.328641 13.7544 -0.0413568 7.99439 4.59864 5.86439C9.23864 3.73439 13.2886 7.17439 13.2886 7.17439C13.2886 7.17439 14.6486 2.04439 19.6486 1.11439C24.6486 0.184393 27.6486 5.11439 27.4586 9.03439V9.17439" stroke="#725671" stroke-linecap="round" stroke-linejoin="round"/>
<path d="M20.1887 25.3944C18.3487 22.0344 16.6887 18.3944 16.6387 15.9444C16.3487 12.0044 19.2587 7.02441 24.2787 7.85441C29.2987 8.68441 30.7687 13.8044 30.7687 13.8044C30.7687 13.8044 34.7687 10.3044 39.4287 12.3144C44.0887 14.3244 43.8587 20.0944 41.4887 23.2444C38.4887 27.7544 25.0487 33.2444 25.0487 33.2444C25.0487 33.2444 23.3887 30.8744 21.5387 27.8044" stroke="#725671" stroke-linecap="round" stroke-linejoin="round"/>
</svg>
