<svg width="263" height="91" viewBox="0 0 263 91" fill="none" xmlns="http://www.w3.org/2000/svg">
<path d="M17.3567 55.5325C16.8567 56.3425 15.9567 57.1225 15.3567 58.1025C14.6858 59.2777 14.0815 60.4896 13.5467 61.7325C12.6097 64.1991 11.4968 66.5953 10.2167 68.9025C9.13666 70.5625 6.82666 72.3925 7.21666 70.1725C7.59666 67.6525 11.7067 62.6025 13.2167 60.5825C14.7567 58.3825 17.4067 55.2825 18.4367 52.7625C16.0767 53.3925 13.1767 56.2125 10.7067 58.1225C7.31666 60.8125 4.43666 66.7625 1.08666 69.6125C-4.41334 69.3525 12.6467 53.7025 14.7667 54.0525C19.0367 50.3525 22.6067 48.8425 26.3667 45.3525C24.1067 43.5725 19.1867 46.3525 20.6267 40.2825C22.7367 38.1925 23.7667 38.2825 23.9667 40.5325C26.2367 47.7825 54.3167 27.4425 64.0167 25.4625C59.5667 20.2925 47.6667 28.6525 47.8867 23.1325C48.0367 20.7025 51.2067 20.3925 52.5667 20.3425C69.2467 25.8325 73.3967 23.1025 93.7567 15.9925C97.1367 15.2325 87.1067 10.9325 87.5967 6.16254C90.8167 3.97253 94.7067 4.65254 94.2267 8.99254C92.3267 15.1925 101.917 15.4625 106.617 15.2425C119.127 13.8825 132.557 15.2425 145.617 16.4125C142.617 11.3025 128.917 6.49254 130.407 1.58254C130.967 0.182541 132.217 -0.417465 133.977 0.312538C140.847 3.05254 141.037 12.5925 149.427 15.0825C170.647 22.6125 192.897 30.8925 214.827 46.3025C206.957 38.2725 195.957 30.3525 193.597 20.6425C198.367 19.7325 206.697 29.5325 208.597 35.4725C208.922 36.6766 209.417 37.8281 210.067 38.8925C210.908 40.1634 211.851 41.364 212.887 42.4825C213.567 43.1425 214.277 43.7725 214.977 44.4025C216.447 45.7625 217.977 47.1225 219.437 48.4825C222.727 51.4825 226.077 54.4825 229.437 57.5925C237.107 64.6725 244.807 72.0125 252.437 79.8325C255.777 83.2525 259.137 86.7525 262.437 90.3525C261.01 89.3592 259.573 88.3825 258.127 87.4225C255.797 84.8925 253.447 82.5225 251.127 80.3025C251.387 80.4425 251.627 80.6125 251.887 80.7425C232.737 59.2525 212.817 46.0225 193.507 35.1925C186.837 31.5625 182.147 32.7825 178.047 35.0025C174.517 36.9125 167.937 42.7725 162.127 35.2025C165.127 28.4225 178.607 33.5525 184.507 30.6625C179.545 27.8304 174.164 25.8051 168.567 24.6625C163.327 22.5625 158.123 20.6925 152.957 19.0525C152.704 18.9229 152.414 18.8869 152.138 18.951C151.861 19.0151 151.616 19.1751 151.447 19.4025C137.677 15.4025 119.637 13.4925 117.927 24.6225C116.087 32.7725 105.597 28.6225 111.377 22.0225C114.377 20.0225 117.967 18.7925 120.627 16.5325C113.527 14.4525 76.1467 16.4425 79.1967 26.0525C79.6567 27.3225 77.8067 31.3025 76.4367 31.9725C74.2867 32.9725 73.1567 30.2125 73.4367 28.5525C73.5867 27.5525 75.6867 23.7025 76.6767 23.4125C65.3167 26.3525 46.9567 29.6025 43.2367 44.5925C42.517 46.1591 41.6427 47.6498 40.6267 49.0425C38.7367 50.6825 36.6267 50.1125 38.2067 47.0425C40.4567 41.9725 44.0967 38.2125 47.7067 34.3825C41.8467 36.0925 35.8367 40.8725 30.2667 43.9725C25.6167 46.9625 21.1367 49.4225 17.3567 55.5325ZM9.35666 68.5925C9.85666 67.7425 10.3567 66.8825 10.9467 65.8925L10.5967 65.5425C10.0067 66.7325 8.56666 68.2225 9.39666 68.5925H9.35666ZM0.836661 68.1525L1.83666 68.2725C3.41666 65.7425 5.42666 63.7225 6.62666 61.1125C4.16892 62.9702 2.185 65.3824 0.836661 68.1525ZM21.9567 39.9525C21.6567 40.4925 21.3567 41.0225 20.6967 42.1625C21.5267 42.5125 22.2067 42.8125 22.8867 43.1625C23.7667 41.3525 22.1667 41.0125 21.9567 39.9525ZM54.6667 22.4325C53.2567 22.0125 51.4167 21.4325 49.7767 22.9925C50.5267 24.1325 51.7767 23.4925 53.3167 23.3425C53.6567 23.1125 54.1567 22.7625 54.6667 22.4325ZM93.3067 8.09254C91.7267 6.94254 90.3067 5.14254 89.1667 7.61254C89.934 8.57784 90.7624 9.49303 91.6467 10.3525L93.3067 8.09254ZM135.187 2.92254C134.767 2.46254 133.497 2.64254 132.617 2.54254C133.317 5.54254 136.407 6.84254 138.947 9.26254C139.607 7.27254 136.427 4.82254 135.187 2.92254ZM207.087 36.4725C206.922 36.0987 206.782 35.7146 206.667 35.3225C203.857 31.0725 200.767 24.7425 196.667 23.3225C197.667 26.9725 201.667 31.6825 207.607 37.5125C207.404 37.1814 207.23 36.8335 207.087 36.4725ZM166.957 37.8925C168.277 36.4325 174.777 36.0225 173.197 33.4425C171.557 34.4625 161.247 33.3525 166.957 37.8925ZM111.587 25.0825C111.867 26.9825 114.947 27.3425 115.767 26.0225C116.197 24.0225 116.767 22.5325 115.707 20.2525C114.249 21.7888 112.874 23.4011 111.587 25.0825ZM75.7867 30.6925C76.5467 29.2225 77.5567 27.8925 76.4667 26.5425C75.6567 27.7525 73.5667 30.4325 75.7867 30.6925ZM38.9567 48.2125C40.9567 47.9525 41.5067 44.8925 42.5667 43.2825C42.3767 42.7225 42.2867 42.4725 42.2067 42.2225C40.8767 43.9125 39.2767 46.2325 38.9567 48.2125Z" fill="white"/>
</svg>
